<?xml version="1.0" encoding="iso-8859-1"?>
<!-- Generator: Adobe Illustrator 22.1.0, SVG Export Plug-In . SVG Version: 6.00 Build 0)  -->
<svg version="1.1" id="Layer_1" xmlns="http://www.w3.org/2000/svg" xmlns:xlink="http://www.w3.org/1999/xlink" x="0px" y="0px"
	 viewBox="0 0 505 626" style="enable-background:new 0 0 505 626;" xml:space="preserve">
<title>hero-banner-mobile&amp;categories-svg</title>
<desc>Created with Sketch.</desc>
<circle id="Oval" style="fill:#FFFFFF;" cx="249.5" cy="261.5" r="221.2"/>
<path id="Shape" style="fill:#EFECF5;" d="M249.5,42.3c112.2,0.1,206.1,85.3,217.2,197s-64.2,213.6-174.2,235.8
	c-110,22.2-219-42.5-252.1-149.7S60.7,103.2,164.1,59.5C191.1,48.1,220.1,42.2,249.5,42.3z M249.5,40.3
	c-122.2,0-221.2,99-221.2,221.2s99,221.2,221.2,221.2s221.2-99,221.2-221.2S371.7,40.3,249.5,40.3z"/>
<path id="Shape_1_" style="fill:#1C1B21;" d="M178.4,579c-15.7,0-28.5-12.8-28.5-28.5l-0.2-374c0-15.7,12.8-28.5,28.5-28.5h150.1
	c15.7,0,28.5,12.8,28.5,28.5l0.2,374c0,15.7-12.8,28.5-28.5,28.5H178.4z"/>
<path id="Shape_2_" style="fill:#81787D;" d="M196.5,164.4c0,2.3-1.9,4.2-4.2,4.2s-4.3-1.8-4.3-4.2s1.9-4.2,4.2-4.2
	S196.5,162.1,196.5,164.4z"/>
<path id="Shape_3_" style="fill:#473D43;" d="M192.2,161c2.2,0,4,1.6,4.2,3.8c0-0.1,0-0.3,0.1-0.4c0-2.3-1.9-4.2-4.2-4.2
	s-4.3,1.9-4.3,4.2c0,0.1,0,0.3,0.1,0.4C188.3,162.7,190.1,161.1,192.2,161z"/>
<path id="Shape_4_" style="fill:#81787D;" d="M274.8,165c0,1.3-1,2.3-2.3,2.3h-38.2c-1.3,0-2.3-1.1-2.3-2.3c0-1.3,1-2.3,2.3-2.3
	h38.2C273.8,162.7,274.8,163.7,274.8,165z"/>
<path id="Shape_5_" style="fill:#473D43;" d="M234.3,163.5h38.2c1.1,0,2.1,0.8,2.3,1.9c0-0.2,0-0.3,0-0.5c0-1.3-1-2.3-2.3-2.3h-38.1
	c-0.6,0-1.2,0.2-1.7,0.7c-0.4,0.4-0.7,1-0.7,1.7c0,0.2,0,0.3,0,0.5C232.2,164.3,233.2,163.5,234.3,163.5z"/>
<path id="Shape_6_" style="fill:#65499C;" d="M329,147.1H177.8c-8.2,0-16,3.2-21.8,9s-9,13.6-9,21.8v373.9c0,8.2,3.2,16,9,21.8
	s13.6,9,21.8,9H329c8.2,0,16-3.2,21.8-9s9-13.6,9-21.8V177.9c0-8.2-3.2-16-9-21.8C345,150.3,337.2,147.1,329,147.1z M355.8,550.4
	c0,15.1-12.2,27.3-27.3,27.3H178.4c-15.1,0-27.3-12.2-27.3-27.3l-0.1-374c0-15.1,12.2-27.3,27.3-27.3h150.1
	c15.1,0,27.3,12.2,27.3,27.3L355.8,550.4z"/>
<path id="Shape_7_" style="fill:#473D43;" d="M329,147.1H177.8c-8.2,0-16,3.2-21.8,9s-9,13.6-9,21.8v373.9c0,8.2,3.2,16,9,21.8
	s13.6,9,21.8,9H329c8.2,0,16-3.2,21.8-9s9-13.6,9-21.8V177.9c0-8.2-3.2-16-9-21.8C345,150.3,337.2,147.1,329,147.1z M355.8,550.4
	c0,15.1-12.2,27.3-27.3,27.3H178.4c-15.1,0-27.3-12.2-27.3-27.3l-0.1-374c0-15.1,12.2-27.3,27.3-27.3h150.1
	c15.1,0,27.3,12.2,27.3,27.3L355.8,550.4z"/>
<rect id="Rectangle-path" x="302.5" y="147.1" style="fill:#CACAC9;" width="4.7" height="2"/>
<rect id="Rectangle-path_1_" x="148.9" y="181.9" style="fill:#949494;" width="2" height="5"/>
<polygon id="Shape_8_" style="fill:#949494;" points="147,187.7 148.9,186.9 148.9,181.9 147,182.7 "/>
<rect id="Rectangle-path_2_" x="355.9" y="181.9" style="fill:#949494;" width="2" height="5"/>
<polygon id="Shape_9_" style="fill:#949494;" points="359.8,187.7 357.9,186.9 357.9,181.9 359.8,182.7 "/>
<path id="Shape_10_" style="fill:#949494;" d="M359.7,554.1h-4.1c-0.3,1.9-0.7,3.9-1.4,5.7h4.6C359.3,557.9,359.6,556,359.7,554.1z"
	/>
<path id="Shape_11_" style="fill:#949494;" d="M148,559.8h4.8c-0.7-1.8-1.1-3.8-1.4-5.7H147C147.2,556,147.5,557.9,148,559.8z"/>
<rect id="Rectangle-path_3_" x="156.7" y="189.6" style="fill:#FFFFFF;" width="193.5" height="343.3"/>
<path id="Shape_12_" style="fill:#81787D;" d="M177.2,579.2c-15.1,0-27.3-12.3-27.2-27.4l-0.2-375.3c0-15.1,12.2-27.3,27.2-27.4
	h-1.5c-15.1,0-27.3,12.3-27.3,27.4l0.2,375.4c0,15.1,12.2,27.3,27.3,27.4L177.2,579.2L177.2,579.2z"/>
<path id="Shape_13_" style="fill:#1C1B21;" d="M329.9,149.1c7.2,0,14.2,2.9,19.3,8c5.1,5.1,8,12.1,8,19.3l0.2,375.3
	c0,15.1-12.2,27.3-27.3,27.4h1.5c15.1,0,27.3-12.3,27.3-27.4l-0.2-375.3c0-7.2-2.9-14.2-8-19.3s-12.1-8-19.3-8
	C331.4,149.1,329.9,149.1,329.9,149.1z"/>
<linearGradient id="Shape_23_" gradientUnits="userSpaceOnUse" x1="210.5605" y1="222.4124" x2="210.5605" y2="223.4124" gradientTransform="matrix(1.84 0 0 -27.86 -26.7314 6501.9102)">
	<stop  offset="0" style="stop-color:#3B333A"/>
	<stop  offset="0.04" style="stop-color:#655A62"/>
	<stop  offset="0.09" style="stop-color:#80767E"/>
	<stop  offset="0.52" style="stop-color:#80767E"/>
	<stop  offset="0.9" style="stop-color:#80767E"/>
	<stop  offset="0.95" style="stop-color:#655A62"/>
	<stop  offset="1" style="stop-color:#3B333A"/>
</linearGradient>
<path id="Shape_14_" style="fill:url(#Shape_23_);" d="M361,277.6h-1.2v27.9h1.2c0.3,0,0.6-0.3,0.6-0.6v-26.6
	C361.6,277.9,361.3,277.6,361,277.6z"/>
<linearGradient id="Shape_24_" gradientUnits="userSpaceOnUse" x1="210.5489" y1="-54.338" x2="210.5489" y2="-26.478" gradientTransform="matrix(1.84 0 0 -27.86 -241.21 6449.1499)">
	<stop  offset="0" style="stop-color:#3B333A"/>
	<stop  offset="0.04" style="stop-color:#655A62"/>
	<stop  offset="0.09" style="stop-color:#80767E"/>
	<stop  offset="0.52" style="stop-color:#80767E"/>
	<stop  offset="0.9" style="stop-color:#80767E"/>
	<stop  offset="0.95" style="stop-color:#655A62"/>
	<stop  offset="1" style="stop-color:#3B333A"/>
</linearGradient>
<path id="Shape_15_" style="fill:url(#Shape_24_);" d="M145.9,224.9h1.2v27.9h-1.2c-0.3,0-0.6-0.3-0.6-0.6v-26.7
	c0-0.2,0.1-0.3,0.2-0.4C145.6,225,145.8,224.9,145.9,224.9z"/>
<linearGradient id="Shape_25_" gradientUnits="userSpaceOnUse" x1="210.5489" y1="-158.7109" x2="210.5489" y2="-103.7809" gradientTransform="matrix(1.84 0 0 -54.93 -241.21 11680.8486)">
	<stop  offset="0" style="stop-color:#3B333A"/>
	<stop  offset="0.04" style="stop-color:#655A62"/>
	<stop  offset="0.09" style="stop-color:#80767E"/>
	<stop  offset="0.52" style="stop-color:#80767E"/>
	<stop  offset="0.9" style="stop-color:#80767E"/>
	<stop  offset="0.95" style="stop-color:#655A62"/>
	<stop  offset="1" style="stop-color:#3B333A"/>
</linearGradient>
<path id="Shape_16_" style="fill:url(#Shape_25_);" d="M145.9,286.2h1.2v54.9h-1.2c-0.3,0-0.6-0.3-0.6-0.6v-53.7
	C145.3,286.5,145.6,286.2,145.9,286.2z"/>
<path id="Shape_17_" style="fill:#473D43;" d="M220.6,165c0,0.1,0,0.3,0,0.4c-0.2,1.1-1.2,1.9-2.3,1.9h-9.5c-1.1,0-2.1-0.8-2.3-1.9
	c0-0.1,0-0.3,0-0.4c0-0.6,0.2-1.2,0.7-1.7s1-0.7,1.7-0.7h9.5C219.6,162.7,220.6,163.7,220.6,165z"/>
<path id="Shape_18_" style="fill:#81787D;" d="M220.5,165.4c-0.2,1.1-1.2,1.9-2.3,1.9h-9.5c-1.1,0-2.1-0.8-2.3-1.9
	c0.1-0.5,0.3-0.9,0.7-1.2c0.4-0.4,1-0.7,1.7-0.7h9.5C219.4,163.5,220.3,164.3,220.5,165.4z"/>
<path id="Shape_19_" style="fill:none;stroke:#81787D;stroke-width:0.88;" d="M277.5,555.3c0,0.8-0.1,1.5-0.2,2.2
	c-1.1,6-6.3,10.4-12.5,10.4H242c-6.1,0-11.4-4.4-12.4-10.4c-0.1-0.7-0.2-1.5-0.2-2.2c0-3.4,1.3-6.6,3.7-9s5.6-3.7,9-3.7H265
	C271.8,542.6,277.5,548.3,277.5,555.3z"/>
<path id="Shape_20_" style="fill:#1C1B21;" d="M277.5,555.3c0,0.8-0.1,1.5-0.2,2.2c-1.1,6-6.3,10.4-12.5,10.4H242
	c-6.1,0-11.4-4.4-12.4-10.4c-0.1-0.7-0.2-1.5-0.2-2.2c0-3.4,1.3-6.6,3.7-9s5.6-3.7,9-3.7H265C271.8,542.6,277.5,548.3,277.5,555.3z"
	/>
<path id="Shape_21_" style="fill:#473D43;" d="M277.3,556.6c-0.4,2.7-1.7,5.2-3.5,7.3c-2.3,2.5-5.6,4-9,4H242
	c-6.2,0-11.4-4.9-12.4-11.3c0.4-2.7,1.6-5.2,3.5-7.3c2.3-2.5,5.6-4,9-4h22.8C271.1,545.3,276.2,550.2,277.3,556.6z"/>
<path id="Shape_22_" style="fill:#847F82;" d="M277.3,556.6c-0.4,2.7-1.7,5.2-3.5,7.3c-2.3,2.5-5.6,4-9,4H242
	c-6.2,0-11.4-4.9-12.4-11.3c0-0.2,0.1-0.4,0.1-0.7c1.3,6.1,6.3,10.6,12.3,10.6h22.9c3.4,0,6.7-1.5,9-4c1.7-1.8,2.9-4.1,3.4-6.6
	C277.2,556.2,277.2,556.4,277.3,556.6z"/>
<circle id="Oval_2_" style="fill:#FFFFFF;" cx="47.9" cy="172.9" r="47"/>
<path id="Shape_42_" style="fill:#DDDDDC;" d="M47.9,133.1h-2.4l-1.1,0.1H43l0.2,1.5c1.5-0.2,3.1-0.3,4.7-0.3V133.1z M35.5,135.1
	c-1.2,0.4-2.4,0.8-3.5,1.3l0,0h-0.2h-0.1l-0.7,0.3l0.6,1.3c1.4-0.7,2.9-1.2,4.3-1.7l-0.5-1.4v0.2L35.5,135.1L35.5,135.1z
	 M24.4,140.9L24.4,140.9h-0.1l-0.4,0.4l-0.3,0.2h-0.1h-0.1H22l1,1.1c1.1-1.1,2.3-2.1,3.6-3l-0.9-1.2L24.4,140.9z M15.5,149.9
	l-0.5,0.8v0.1v0.1h-0.1h-0.1v0.1v0.1c-0.2,0.3-0.4,0.6-0.6,0.9h-0.1c-0.1,0.2-0.2,0.4-0.3,0.6l1.3,0.7c0.7-1.4,1.6-2.7,2.5-4
	l-1.2-0.9L15.5,149.9z M10,161.1L10,161.1c-0.4,1.4-0.7,2.8-1,4.2l1.4,0.3c0.3-1.5,0.6-3.1,1.1-4.5l-1.4-0.4L10,161.1z M9.7,173.5
	H8.2v0.4v0.1v0.1v0.1c0.1,1.2,0.2,2.4,0.3,3.6l1.4-0.2c-0.2-1.5-0.3-3.1-0.4-4.7L9.7,173.5z M11.8,185.4l-1.4,0.5
	c0.5,1.5,1.2,3,1.9,4.5l1.3-0.6C12.9,188.3,12.3,186.9,11.8,185.4z M17.5,196.1l-1.2,0.9c0.6,0.8,1.2,1.5,1.8,2.2h0.2v0.1
	c0.3,0.3,0.6,0.6,0.9,0.9l1-1c-1.1-1.1-2.1-2.3-3.1-3.5L17.5,196.1z M26.3,204.4l-0.8,1.2c0.6,0.4,1.2,0.8,1.9,1.2l0,0h0.4l0.1,0.1
	l0.2,0.1h0.1c0.1,0,0.2,0.1,0.2,0.1h0.1h0.3l0.2,0.1l0.7-1.3c-1.4-0.7-2.7-1.5-4-2.4L26.3,204.4z M37.3,209.6l-0.4,1.4l1.5,0.4h0.1
	l0,0h2l1.1,0.2l0.2-1.4c-1.5-0.2-3.1-0.6-4.6-1L37.3,209.6z M54,210.7c-1.5,0.2-3.1,0.4-4.7,0.4v1.5c0.6,0,1.2-0.1,1.8-0.1H52
	c0.7-0.1,1.4-0.2,2-0.3l0,0V210.7L54,210.7z M65.5,206.9c-1.4,0.7-2.8,1.3-4.3,1.9l0.5,1.4c1.2-0.4,2.3-0.9,3.4-1.4h0.1h0.2h0.1h0.1
	l0.6-0.3l-0.7-1.3L65.5,206.9z M75.2,199.8c-1.1,1.1-2.3,2.2-3.5,3.1l0.9,1.1H73h0.1h0.1h0.4l0,0h0.1c0.4-0.4,0.8-0.8,1.2-1.1v-0.1
	h1l-1-1L75.2,199.8z M82.3,189.9c-0.7,1.4-1.5,2.7-2.3,4.1l1.2,0.8c0.6-0.9,1.2-1.9,1.7-2.9l0.1-0.1v-0.1v-0.1v-0.1v-0.1l0,0v-0.1
	l0.2-0.3l-1.3-0.6L82.3,189.9z M85.9,178.4c-0.2,1.5-0.6,3.1-1,4.6l1.4,0.4c0.1-0.4,0.2-0.9,0.3-1.3V182v-0.1
	c0.2-0.9,0.3-1.7,0.5-2.6l-1.4-0.2L85.9,178.4z M87.1,166l-1.4,0.2c0.3,1.5,0.4,3.1,0.5,4.6l1.4-0.1c0-0.8-0.1-1.5-0.2-2.3v-0.1
	v-0.1v-0.1V168v-0.1v-0.1c0-0.1,0-0.3-0.1-0.4L87.1,166z M83,154.1l-1.3,0.7c0.7,1.4,1.4,2.8,1.9,4.2l1.4-0.5l-0.1-0.2v-0.1
	l-0.1-0.1c-0.2-0.5-0.5-1-0.7-1.6H84l0,0c-0.2-0.3-0.3-0.6-0.5-0.9L83,154.1z M75.4,144.1l-1,1.1c1.1,1.1,2.2,2.2,3.2,3.4l1.1-0.9
	c-1-1.2-2-2.3-3.1-3.4L75.4,144.1z M65,137l-0.6,1.3c1.4,0.7,2.8,1.4,4.1,2.3l0.8-1.2c-0.1-0.1-0.2-0.1-0.3-0.2h-0.2
	c-0.8-0.5-1.5-0.9-2.3-1.3h-0.1H66L65,137z M53,133.4l-0.2,1.4c1.5,0.2,3.1,0.5,4.6,0.9l0.4-1.4c-0.9-0.2-1.8-0.4-2.7-0.6H55h-1.3
	h-0.1l-0.6-0.1L53,133.4z"/>
<path id="Rectangle-path_4_" style="fill:#673AB7;" d="M63.6,150.9v43.9c0,3.5-2.8,6.3-6.3,6.3H38.5c-3.5,0-6.3-2.8-6.3-6.3v-43.9
	c0-3.5,2.8-6.3,6.3-6.3h18.8C60.8,144.6,63.6,147.4,63.6,150.9z"/>
<path id="Rectangle-path_5_" style="fill:#00B8A9;" d="M35.4,150.9h25.1c0.9,0,1.6,0.7,1.6,1.6v37.7c0,0.9-0.7,1.6-1.6,1.6H35.4
	c-0.9,0-1.6-0.7-1.6-1.6v-37.7C33.8,151.6,34.5,150.9,35.4,150.9z"/>
<circle id="Oval_3_" style="fill:#FFFFFF;" cx="47.9" cy="147.7" r="1.6"/>
<path id="Shape_43_" style="fill:#FFFFFF;" d="M49.5,198h-3.1c-0.9,0-1.6-0.7-1.6-1.6c0-0.9,0.7-1.6,1.6-1.6h3.1
	c0.9,0,1.6,0.7,1.6,1.6S50.4,198,49.5,198z"/>
<circle id="Oval_4_" style="fill:#FFFFFF;" cx="457.7" cy="354.6" r="47"/>
<path id="Shape_44_" style="fill:#DDDDDC;" d="M457.7,314.8h-2.4l-1.1,0.1H454h-1.2l0.2,1.4c1.5-0.2,3.1-0.3,4.7-0.3v-1.5V314.8z
	 M445.3,316.8c-1.2,0.4-2.4,0.8-3.5,1.3h-0.2h-0.1l-0.7,0.3l0.6,1.3c1.4-0.7,2.9-1.2,4.3-1.7l-0.4-1.4L445.3,316.8z M434.1,322.6
	L434.1,322.6l-0.5,0.3l-0.3,0.3l-0.1,0.1l0,0h-0.1h-0.6h-0.1l1,1.1c1.1-1.1,2.3-2.1,3.6-3l-0.9-1.2L434.1,322.6z M425.3,331.6
	l-0.5,0.8v0.1h-0.1v0.1l0,0c-0.2,0.3-0.4,0.6-0.6,0.9l0,0v0.1l0,0H424v0.1c-0.1,0.2-0.2,0.4-0.3,0.6l1.3,0.7c0.7-1.4,1.6-2.7,2.5-4
	l-1.2-0.9L425.3,331.6z M419.7,342.9L419.7,342.9L419.7,342.9c-0.5,1.4-0.8,2.8-1.1,4.2l1.4,0.3c0.3-1.5,0.6-3,1.1-4.5l-1.4-0.4
	V342.9z M419.4,355.3H418c0,0.1,0,0.2,0,0.4v0.1l0,0l0,0v0.1c0.1,1.2,0.2,2.4,0.3,3.6l1.4-0.2c-0.2-1.5-0.3-3.1-0.4-4.7L419.4,355.3
	z M421.5,367.2l-1.4,0.5c0.5,1.5,1.1,3,1.9,4.4l1.3-0.6C422.6,370.1,422,368.6,421.5,367.2L421.5,367.2z M427.3,377.9l-1.2,0.9
	c0.6,0.8,1.2,1.5,1.8,2.2l0,0h0.1h0.1v0.1c0.3,0.3,0.6,0.6,0.9,0.9l1-1c-1.1-1.1-2.1-2.3-3.1-3.5L427.3,377.9z M436,386.2l-0.8,1.2
	c0.6,0.4,1.2,0.8,1.9,1.2h0.1h0.4l0.1,0.1l0.2,0.1h0.1l0.2,0.1l0,0h0.8l0.2,0.1l0.7-1.3c-1.4-0.7-2.7-1.5-4-2.4L436,386.2z
	 M447,391.3l-0.4,1.4c0.5,0.1,1,0.3,1.5,0.4h0.1h2.1l1.1,0.2l0.2-1.4c-1.5-0.2-3.1-0.6-4.6-1L447,391.3z M463.7,392.4
	c-1.5,0.2-3.1,0.4-4.7,0.4v1.5c0.6,0,1.2-0.1,1.8-0.1h0.9c0.7-0.1,1.4-0.1,2-0.3l-0.2-1.4L463.7,392.4z M475.2,388.6
	c-1.4,0.7-2.8,1.3-4.3,1.9l0.5,1.4c1.1-0.4,2.3-0.9,3.4-1.4h0.1h0.3l0.6-0.3l-0.7-1.3L475.2,388.6z M485,381.5
	c-1.1,1.1-2.3,2.1-3.5,3.1l0.9,1.1h0.1h0.3h0.2h0.1c0.4-0.4,0.8-0.8,1.2-1.1l0,0h0.3l-1-1L485,381.5z M492,371.6
	c-0.7,1.4-1.5,2.7-2.3,4l1.2,0.8l0,0c0.6-0.9,1.2-1.9,1.7-2.9l0.1-0.1v-0.1l0,0v-0.1l0,0v-0.1l0,0l0,0l0.2-0.3l-1.3-0.6L492,371.6z
	 M495.6,360.1c-0.2,1.5-0.5,3.1-0.9,4.6l1.4,0.4c0.1-0.4,0.2-0.9,0.3-1.3v-0.1l0,0c0.2-0.9,0.3-1.7,0.5-2.6l-1.5-0.2L495.6,360.1z
	 M496.8,347.7l-1.4,0.2c0.3,1.5,0.4,3.1,0.5,4.6l1.4-0.1c0-0.8-0.1-1.5-0.2-2.3V350v-0.1v0.1l0,0v-0.1c0-0.1,0-0.3-0.1-0.5
	L496.8,347.7z M492.7,335.8l-1.3,0.7c0.7,1.4,1.4,2.8,2,4.2l1.4-0.5l-0.1-0.2l0,0l0,0l-0.1-0.1c-0.2-0.5-0.4-1.1-0.7-1.6l0,0v-0.1
	c-0.2-0.3-0.3-0.6-0.5-0.9L492.7,335.8z M485.1,325.8l-1,1.1c1.1,1.1,2.2,2.2,3.2,3.4l1.1-0.9c-1-1.2-2-2.3-3.2-3.4L485.1,325.8z
	 M474.8,318.7l-0.6,1.3c1.4,0.7,2.8,1.4,4.1,2.3l0.8-1.2l-0.4-0.2h-0.1c-0.8-0.5-1.5-0.9-2.3-1.3H476l0,0l-0.9-0.4L474.8,318.7z
	 M462.7,315.1l-0.2,1.4c1.5,0.2,3.1,0.5,4.6,0.9l0.4-1.4c-0.9-0.2-1.8-0.4-2.7-0.6h-1.4l-0.6-0.1L462.7,315.1L462.7,315.1z"/>
<circle id="Oval_5_" style="fill:#FFBE00;" cx="457.7" cy="354.5" r="25"/>
<circle id="Oval_6_" style="fill:#D77F00;" cx="457.7" cy="354.5" r="21"/>
<path id="Shape_45_" style="fill:#FFBE00;" d="M457.7,333.5c-1.8,0-3.6,0.2-5.3,0.7c-2.4,0.6-4.6,1.6-6.7,3c-2.9,2-5.2,4.7-6.8,7.9
	c-3.3,6.5-3,14.3,0.8,20.5s10.6,10,17.9,10c2.5,0,5.1-0.5,7.4-1.4c3.3-1.2,6.2-3.3,8.5-6c1.6-1.9,2.9-4,3.7-6.3
	c0.9-2.4,1.4-4.9,1.4-7.4C478.7,342.9,469.3,333.5,457.7,333.5z M472,366.4c-2.2,2.7-5.2,4.8-8.6,5.8c-1.8,0.6-3.7,0.9-5.7,0.9
	c-10.3,0-18.6-8.3-18.6-18.6c0-2.6,0.5-5.1,1.6-7.5c1.4-3.3,3.7-6,6.7-8c2.1-1.4,4.4-2.3,6.9-2.8c1.1-0.2,2.3-0.3,3.4-0.3
	c10.2,0,18.6,8.3,18.6,18.6c0,1.8-0.3,3.6-0.8,5.3C474.8,362.3,473.6,364.5,472,366.4z"/>
<path id="Shape_46_" style="fill:#D77F00;" d="M457.7,333.5c-1.8,0-3.6,0.2-5.3,0.7c-2.4,0.6-4.6,1.6-6.7,3c-2.9,2-5.2,4.7-6.8,7.9
	c-3.3,6.5-3,14.3,0.8,20.5s10.6,10,17.9,10c2.5,0,5.1-0.5,7.4-1.4c3.3-1.2,6.2-3.3,8.5-6c1.6-1.9,2.9-4,3.7-6.3
	c0.9-2.4,1.4-4.9,1.4-7.4C478.7,342.9,469.3,333.5,457.7,333.5z"/>
<circle id="Oval_7_" style="fill:#F2A700;" cx="457.7" cy="354.5" r="19.2"/>
<path id="Shape_47_" style="fill:#FFDD30;" d="M453.8,345c0.3,0.1,0.5,0.2,0.8,0.2c0.7,0.1,1.5,0,2.1-0.4c0.2-0.2,0.8-0.8,0.8-0.8
	h0.4c0,0,0.6,0.6,0.8,0.8c0.6,0.4,1.4,0.5,2.1,0.4c0.3,0,0.6-0.1,0.8-0.2c0.6-0.4,1.1-1,1.3-1.7c0.2-0.6,0.1-1.3-0.1-1.8
	c-0.4-0.9-1.2-1.5-2.1-1.8c0.3-0.3,0.4-0.7,0.2-1c-0.2-0.4-0.6-0.5-1.1-0.5c-0.4,0-0.7,0.1-1.1,0.3v-0.6c0-0.3-0.1-0.6-0.4-0.9
	l-0.7-0.7h-0.1l-0.7,0.7c-0.2,0.2-0.4,0.5-0.4,0.9v0.6c-0.3-0.2-0.7-0.3-1.1-0.3c0,0-0.8-0.1-1.1,0.5c-0.1,0.3-0.1,0.7,0.2,1
	c-0.9,0.2-1.7,0.9-2.1,1.8c-0.2,0.6-0.3,1.2-0.1,1.8C452.7,344,453.1,344.6,453.8,345z"/>
<path id="Shape_48_" style="fill:#FFDD30;" d="M462.5,345.4c0.1,0.3,0.2,0.5,0.3,0.8c0.4,0.6,0.9,1.1,1.6,1.4
	c0.3,0.1,1.1,0.1,1.1,0.1l0.3,0.3c0,0-0.1,0.9-0.1,1.1c0.1,0.7,0.4,1.4,1,1.9c0.2,0.2,0.4,0.4,0.7,0.5c0.7,0.3,1.4,0.3,2.1,0
	c0.6-0.3,1.1-0.7,1.4-1.2c0.4-0.8,0.5-1.8,0.1-2.7c0.4,0.1,0.8-0.1,0.9-0.5s0-0.9-0.3-1.1c0,0-0.6-0.6-0.9-0.6l0.5-0.4
	c0.3-0.2,0.4-0.5,0.5-0.8l0.1-1l-0.1-0.1l-1-0.1c-0.3,0-0.6,0.1-0.9,0.3l-0.5,0.4c-0.1-0.4-0.2-0.7-0.4-1c-0.2-0.4-0.6-0.6-1.1-0.5
	c-0.4,0.1-0.6,0.4-0.7,0.8c-0.8-0.6-1.7-0.7-2.6-0.5c-0.6,0.2-1.1,0.6-1.5,1.1C462.6,344,462.4,344.7,462.5,345.4z"/>
<path id="Shape_49_" style="fill:#FFDD30;" d="M474.9,357.2c-0.2-0.3-0.5-0.5-0.8-0.5l-0.6-0.1c0.2-0.3,0.4-0.6,0.5-1s0-0.8-0.3-1.1
	c-0.3-0.2-0.7-0.2-1,0c-0.1-0.9-0.5-1.8-1.3-2.4c-0.5-0.4-1.1-0.5-1.8-0.5c-0.7,0-1.4,0.4-1.9,0.9c-0.2,0.2-0.3,0.5-0.4,0.7
	c-0.3,0.7-0.3,1.5,0,2.1c0.1,0.2,0.6,1,0.6,1s-0.1,0.3-0.1,0.4s-0.7,0.4-1,0.6c-0.5,0.5-0.8,1.3-0.9,2c0,0.3,0,0.6,0.1,0.8
	c0.2,0.7,0.7,1.3,1.4,1.6c0.6,0.3,1.2,0.4,1.8,0.3c0.9-0.2,1.7-0.8,2.1-1.6c0.2,0.4,0.6,0.5,1,0.4c0.6-0.2,0.7-0.9,0.7-0.9
	c0.1-0.4,0-0.7-0.1-1.1l0.6,0.1c0.3,0.1,0.7,0,0.9-0.2l0.8-0.5v-0.1L474.9,357.2z"/>
<path id="Shape_50_" style="fill:#FFDD30;" d="M468,363.4c0-0.6-0.3-1.2-0.7-1.7c-0.5-0.6-1.2-0.9-1.9-0.9c-0.3,0-0.6,0-0.8,0.1
	c-0.7,0.2-1.3,0.7-1.7,1.3c-0.1,0.3-0.4,1.1-0.4,1.1l-0.4,0.2c0,0-0.8-0.3-1.1-0.4c-0.7-0.1-1.5,0.1-2.1,0.6
	c-0.2,0.2-0.4,0.3-0.6,0.6c-0.4,0.6-0.6,1.4-0.4,2.1c0.1,0.6,0.4,1.2,0.9,1.6c0.7,0.6,1.7,0.8,2.6,0.7c-0.1,0.4,0,0.8,0.3,1
	c0.4,0.2,0.8,0.2,1.2,0c0,0,0.7-0.4,0.8-0.7l0.3,0.5c0.1,0.3,0.4,0.5,0.7,0.6l0.9,0.3l0.1-0.1l0.3-0.9c0.1-0.3,0.1-0.6-0.1-0.9
	l-0.3-0.6c0.4,0,0.7-0.1,1.1-0.2c0,0,0.7-0.3,0.7-0.9c0-0.4-0.3-0.7-0.7-0.8C467.6,365.3,468,364.4,468,363.4z"/>
<path id="Shape_51_" style="fill:#FFDD30;" d="M443.8,345.9c-0.3,0.3-0.4,0.7-0.3,1.1c0.2,0.3,0.6,0.5,0.9,0.5
	c-0.4,0.9-0.3,1.9,0.1,2.7c0.3,0.6,0.8,1,1.4,1.2c0.7,0.3,1.4,0.3,2.1,0c0.3-0.1,0.5-0.3,0.7-0.5c0.6-0.5,0.9-1.2,1-1.9
	c0-0.3-0.1-1.1-0.1-1.1l0.3-0.3c0,0,0.9-0.1,1.1-0.1c0.7-0.2,1.3-0.7,1.6-1.4c0.1-0.2,0.3-0.5,0.3-0.8c0.1-0.7-0.1-1.5-0.5-2.1
	c-0.4-0.5-0.9-0.9-1.5-1.1c-0.9-0.2-1.9,0-2.6,0.5c0-0.4-0.3-0.7-0.7-0.8c-0.4,0-0.8,0.2-1.1,0.5c-0.2,0.3-0.4,0.6-0.4,1l-0.5-0.4
	c-0.3-0.2-0.6-0.3-0.9-0.3l-1,0.1l-0.1,0.1l0.1,1c0,0.3,0.2,0.6,0.5,0.8l0.5,0.4C444.3,345.3,443.8,345.9,443.8,345.9z"/>
<path id="Shape_52_" style="fill:#FFDD30;" d="M449.3,360.1c0.1-0.3,0.1-0.6,0.1-0.8c0-0.7-0.3-1.5-0.8-2c-0.2-0.2-1-0.6-1-0.6
	l-0.1-0.4c0,0,0.5-0.7,0.6-1c0.3-0.7,0.3-1.5,0-2.1c-0.1-0.3-0.2-0.5-0.4-0.7c-0.5-0.6-1.2-0.9-1.9-0.9c-0.6,0-1.3,0.2-1.8,0.5
	c-0.8,0.6-1.2,1.4-1.3,2.4c-0.3-0.2-0.7-0.2-1,0c-0.3,0.3-0.4,0.7-0.3,1.1s0.3,0.7,0.5,1l-0.6,0.1c-0.3,0.1-0.6,0.3-0.8,0.5L440,358
	v0.1l0.8,0.5c0.3,0.2,0.6,0.2,0.9,0.2l0.6-0.1c-0.1,0.4-0.1,0.7-0.1,1.1c0,0,0.1,0.8,0.7,0.9c0.4,0.1,0.8-0.1,1-0.4
	c0.4,0.8,1.2,1.4,2.1,1.6c0.6,0.1,1.3,0,1.8-0.3C448.6,361.4,449.1,360.8,449.3,360.1z"/>
<path id="Shape_53_" style="fill:#FFDD30;" d="M456.5,363.7c-0.6-0.4-1.3-0.6-2.1-0.6c-0.3,0.1-1.1,0.4-1.1,0.4l-0.4-0.2
	c0,0-0.3-0.8-0.4-1.1c-0.4-0.6-1-1.1-1.7-1.3c-0.3-0.1-0.5-0.1-0.8-0.1c-0.7,0-1.4,0.4-1.9,0.9c-0.4,0.5-0.7,1.1-0.7,1.7
	c0,0.9,0.4,1.8,1.1,2.5c-0.4,0.1-0.6,0.4-0.6,0.8c0,0.6,0.7,0.9,0.7,0.9c0.3,0.1,0.7,0.2,1.1,0.2l-0.3,0.6c-0.1,0.3-0.2,0.6-0.1,0.9
	l0.3,0.9l0.1,0.1l0.9-0.3c0.3-0.1,0.6-0.3,0.7-0.6l0.3-0.5c0.1,0.3,0.8,0.7,0.8,0.7c0.4,0.2,0.8,0.2,1.2,0c0.3-0.2,0.4-0.6,0.3-1
	c0.9,0.2,1.9-0.1,2.6-0.7c0.5-0.4,0.8-1,0.9-1.6c0.2-0.7,0-1.5-0.4-2.1C456.9,364,456.7,363.8,456.5,363.7z"/>
<path id="Shape_54_" style="fill:#FFDD30;" d="M467.4,354.2c0-3.9-2.3-7.4-6-8.9c-3.6-1.5-7.8-0.7-10.5,2.1
	c-2.8,2.8-3.6,6.9-2.1,10.5s5,6,8.9,6C463,363.9,467.3,359.6,467.4,354.2z"/>
<path id="Shape_55_" style="fill:#FFBE00;" d="M465.8,354.2c0-4.5-3.6-8.1-8.1-8.1s-8.1,3.6-8.1,8.1s3.6,8.1,8.1,8.1
	S465.8,358.7,465.8,354.2z"/>
<path id="Shape_56_" style="opacity:0.94;fill:#F2A700;enable-background:new    ;" d="M457.7,341.9c0.5-0.1,1,0.3,1.1,0.7
	c0.2,0.9,1.1,1.4,2,1.3c1.6-0.4,0.9-2.4,0.9-2.4c-0.4,0.6-1.1,0.8-1.7,0.5c-0.5-0.3-0.7-0.9-0.6-1.5c-0.4,0.3-1,0.3-1.5,0h-0.4
	c-0.5,0.3-1,0.3-1.5,0c0.2,0.6-0.1,1.2-0.6,1.5c-0.6,0.3-1.4,0.1-1.7-0.5c0,0-0.7,2,0.9,2.4c0.9,0.2,1.8-0.4,2-1.3
	C456.7,342.2,457.1,341.9,457.7,341.9"/>
<path id="Shape_57_" style="opacity:0.94;fill:#F2A700;enable-background:new    ;" d="M467.3,346.5c0.4,0.3,0.4,0.9,0.1,1.3
	c-0.6,0.7-0.4,1.8,0.3,2.4c1.3,1,2.4-0.8,2.4-0.8c0-1.4-0.6-2.7-1.6-3.6l-0.2-0.3c-0.1-0.6-0.4-1-1-1.2c-0.5-0.2-1.1,0-1.5,0.5
	c-0.6-0.3-0.9-1-0.7-1.6c0,0-2,0.7-1.3,2.1c0.4,0.8,1.4,1.2,2.3,0.8C466.5,346,467.1,346.1,467.3,346.5"/>
<path id="Shape_58_" style="opacity:0.94;fill:#F2A700;enable-background:new    ;" d="M469.9,356.9c-0.1,0.5-0.5,0.9-1,0.9
	c-0.9,0-1.7,0.8-1.7,1.7c0,1.7,2.1,1.3,2.1,1.3c-0.5-0.5-0.5-1.3-0.1-1.8c0.4-0.4,1-0.5,1.6-0.2c-0.2-0.5-0.1-1.1,0.3-1.5l0.1-0.4
	c-0.2-0.5-0.1-1.1,0.3-1.5c-0.6,0-1.2-0.4-1.3-1s0.2-1.2,0.8-1.4c0,0-1.8-1.1-2.5,0.4c-0.4,0.9,0,1.9,0.8,2.3
	C469.8,356,470,356.5,469.9,356.9"/>
<path id="Shape_59_" style="opacity:0.94;fill:#F2A700;enable-background:new    ;" d="M463.2,365.2c-0.4,0.3-1,0.2-1.3-0.2
	c-0.6-0.7-1.7-0.8-2.4-0.2c-1.3,1,0.3,2.5,0.3,2.5c0-0.6,0.6-1.1,1.2-1.2s1.2,0.4,1.3,1.1c0.3-0.5,0.8-0.7,1.3-0.7l0.3-0.2
	c0.3-0.5,0.8-0.7,1.3-0.7c-0.4-0.4-0.5-1.1-0.1-1.6c0.4-0.6,1.2-0.7,1.8-0.3c0,0-0.2-2.1-1.8-1.7c-0.9,0.2-1.5,1.1-1.3,2
	C463.9,364.6,463.6,365,463.2,365.2"/>
<path id="Shape_60_" style="opacity:0.94;fill:#F2A700;enable-background:new    ;" d="M448.1,346.5c-0.4,0.3-0.4,0.9-0.1,1.3
	c0.6,0.7,0.4,1.8-0.3,2.4c-1.3,1-2.4-0.8-2.4-0.8c0.7,0.1,1.3-0.4,1.5-1.1c-0.5-0.2-0.8-0.7-0.8-1.3c0-0.6,0.4-1,0.9-1.2l0.2-0.3
	c0.1-0.6,0.4-1,1-1.2c0.5-0.2,1.1,0,1.5,0.5c0.6-0.3,1-1,0.7-1.6c0,0,2,0.7,1.3,2.1c-0.4,0.8-1.4,1.2-2.3,0.8
	C448.9,346,448.3,346.1,448.1,346.5"/>
<path id="Shape_61_" style="opacity:0.94;fill:#F2A700;enable-background:new    ;" d="M445.5,356.9c0,0.5,0.4,0.9,0.9,0.9
	c0.9,0,1.7,0.8,1.7,1.7c0,1.7-2.1,1.3-2.1,1.3c0.5-0.5,0.6-1.3,0.1-1.8c-0.4-0.4-1-0.5-1.6-0.2c0.2-0.5,0.1-1.1-0.3-1.5l-0.1-0.4
	c0.2-0.5,0.1-1.1-0.3-1.5c0.6,0,1.2-0.4,1.3-1c0.1-0.6-0.2-1.2-0.8-1.4c0,0,1.8-1.1,2.5,0.4c0.4,0.8,0,1.9-0.8,2.3
	C445.6,356,445.4,356.5,445.5,356.9"/>
<path id="Shape_62_" style="opacity:0.94;fill:#F2A700;enable-background:new    ;" d="M452.2,365.2c0.4,0.3,1,0.2,1.3-0.2
	c0.6-0.7,1.7-0.8,2.4-0.2c1.3,1-0.3,2.5-0.3,2.5c-0.1-0.7-0.7-1.2-1.4-1.2c-0.6,0.1-1.1,0.5-1.1,1.1c-0.3-0.5-0.8-0.7-1.3-0.7
	l-0.3-0.2c-0.6,0.1-1.1-0.2-1.4-0.7s-0.2-1.1,0.2-1.5c-0.4-0.6-1.2-0.7-1.8-0.3c0,0,0.2-2.1,1.8-1.7c0.9,0.2,1.5,1.1,1.3,2
	C451.5,364.6,451.8,365,452.2,365.2"/>
<path id="Shape_63_" style="fill:#F2A700;" d="M464.8,354.2c0-3.9-3.2-7.1-7.1-7.1s-7.1,3.2-7.1,7.1s3.2,7.1,7.1,7.1
	C461.6,361.4,464.8,358.2,464.8,354.2z"/>
<circle id="Oval_8_" style="fill:#FFFFFF;" cx="457.7" cy="172.9" r="47"/>
<path id="Shape_64_" style="fill:#DDDDDC;" d="M457.7,133.1h-2.4l-1.1,0.1h-1.4l0.2,1.5c1.5-0.2,3.1-0.3,4.7-0.3L457.7,133.1
	L457.7,133.1z M445.3,135.1c-1.2,0.4-2.4,0.8-3.5,1.3h-0.2h-0.1l-0.7,0.3l0.6,1.3c1.4-0.7,2.9-1.2,4.3-1.7l-0.5-1.4L445.3,135.1z
	 M434.1,140.9L434.1,140.9l-0.5,0.4l-0.3,0.2h-0.1l0,0h-0.1h-0.6l0,0l1,1.1c1.1-1.1,2.3-2.1,3.6-3l-0.9-1.2L434.1,140.9z
	 M425.3,149.9l-0.5,0.8v0.1v0.1h-0.1h-0.1v0.1v0.1c-0.2,0.3-0.4,0.6-0.6,0.9l0,0l-0.3,0.6l1.3,0.7c0.7-1.4,1.6-2.7,2.5-4l-1.2-0.9
	L425.3,149.9z M419.7,161.1L419.7,161.1c-0.4,1.4-0.7,2.8-1,4.2l1.4,0.3c0.3-1.5,0.6-3.1,1.1-4.5l-1.4-0.4L419.7,161.1z
	 M419.4,173.6H418c0,0.1,0,0.2,0,0.4v0.1v0.1v0.1c0.1,1.2,0.2,2.4,0.3,3.6l1.4-0.2c-0.2-1.5-0.3-3.1-0.4-4.7L419.4,173.6z
	 M421.5,185.5l-1.4,0.5c0.5,1.5,1.2,3,1.9,4.5l1.3-0.7C422.6,188.4,422,187,421.5,185.5z M427.3,196.2l-1.2,0.9
	c0.6,0.8,1.2,1.5,1.8,2.2h0.2v0.1c0.3,0.3,0.6,0.6,0.9,0.9l1-1c-1.1-1.1-2.1-2.3-3.1-3.5L427.3,196.2z M436,204.5l-0.8,1.2
	c0.6,0.4,1.2,0.8,1.9,1.2h0.1h0.4l0.1,0.1l0.2,0.1h0.1c0.1,0,0.2,0.1,0.2,0.1l0,0h0.3l0.2,0.1l0.7-1.3c-1.4-0.7-2.7-1.5-4-2.4
	L436,204.5z M447,209.6l-0.4,1.4l1.5,0.4h0.1h0.1h2l1.1,0.2l0.2-1.4c-1.5-0.2-3.1-0.6-4.6-1L447,209.6z M463.7,210.7
	c-1.5,0.2-3.1,0.4-4.7,0.4v1.5c0.6,0,1.2-0.1,1.8-0.1h0.9c0.7-0.1,1.4-0.2,2-0.3l-0.2-1.4L463.7,210.7z M475.2,206.9
	c-1.4,0.7-2.8,1.3-4.3,1.9l0.5,1.4c1.1-0.4,2.3-0.9,3.4-1.4h0.1h0.2l0.6-0.3l-0.7-1.3L475.2,206.9z M485,199.8
	c-1.1,1.1-2.3,2.2-3.5,3.1l0.9,1.1h0.1h0.5h0.1h0.4l0,0l1.2-1.1v-0.1h0.2l-1-1L485,199.8z M492,189.9c-0.7,1.4-1.5,2.7-2.3,4.1
	l1.2,0.8c0.6-0.9,1.2-1.9,1.7-2.9l0.1-0.1v-0.1v-0.1v-0.1v-0.1l0,0v-0.1l0.2-0.3l-1.3-0.6L492,189.9z M495.6,178.4
	c-0.2,1.5-0.5,3.1-0.9,4.6l1.4,0.4c0.1-0.4,0.2-0.9,0.3-1.3V182v-0.1c0.2-0.9,0.3-1.7,0.5-2.6l-1.5-0.2L495.6,178.4z M496.9,166
	l-1.4,0.2c0.3,1.5,0.4,3.1,0.5,4.6l1.4-0.1c0-0.8-0.1-1.5-0.2-2.3v-0.1v-0.1v-0.1V168v-0.1v-0.1c0-0.1,0-0.3-0.1-0.4L496.9,166z
	 M492.8,154.1l-1.3,0.7c0.7,1.4,1.4,2.8,1.9,4.2l1.4-0.5l-0.1-0.2v-0.1l-0.1-0.1c-0.2-0.5-0.5-1-0.7-1.6h-0.1v-0.1
	c-0.2-0.3-0.3-0.6-0.5-0.9L492.8,154.1z M485.1,144.1l-1,1.1c1.1,1.1,2.2,2.2,3.2,3.4l1.1-0.9c-1-1.2-2-2.3-3.1-3.4L485.1,144.1z
	 M474.8,137l-0.6,1.3c1.4,0.7,2.8,1.4,4.1,2.3l0.8-1.2l-0.4-0.2h-0.1c-0.8-0.5-1.5-0.9-2.3-1.3H476l0,0l-0.9-0.4L474.8,137z
	 M462.7,133.5l-0.2,1.4c1.5,0.2,3.1,0.5,4.6,0.9l0.4-1.4c-0.9-0.2-1.8-0.4-2.7-0.6h-0.1h-1.3h-0.1l-0.6-0.1L462.7,133.5L462.7,133.5
	z"/>
<path id="Rectangle-path_6_" style="fill:none;stroke:#673AB7;stroke-width:2.27;" d="M453.6,150.8h8.3c1.2,0,2.1,0.9,2.1,2.1v5.8
	c0,1.2-0.9,2.1-2.1,2.1h-8.3c-1.2,0-2.1-0.9-2.1-2.1v-5.8C451.5,151.7,452.4,150.8,453.6,150.8z"/>
<path id="Rectangle-path_7_" style="fill:#02C9B5;" d="M439.5,157.1h36.4c3.1,0,5.7,2.5,5.7,5.7v20.5c0,3.1-2.5,5.7-5.7,5.7h-36.4
	c-3.1,0-5.7-2.5-5.7-5.7v-20.5C433.8,159.6,436.4,157.1,439.5,157.1z"/>
<path id="Shape_65_" style="fill:#673AB7;" d="M475.9,158.2c2.5,0,4.5,2,4.5,4.5v20.5c0,2.5-2,4.5-4.5,4.5h-36.4
	c-2.5,0-4.5-2-4.5-4.5v-20.5c0-2.5,2-4.5,4.5-4.5H475.9z M475.9,155.9h-36.4c-1.8,0-3.5,0.7-4.8,2s-2,3-2,4.8v20.5
	c0,1.8,0.7,3.5,2,4.8s3,2,4.8,2h36.4c3.8,0,6.8-3.1,6.8-6.8v-20.5c0-1.8-0.7-3.5-2-4.8C479.4,156.6,477.7,155.9,475.9,155.9z"/>
<rect id="Rectangle-path_8_" x="442.9" y="157.1" style="fill:#673AB7;" width="4.5" height="31.8"/>
<path id="Shape_66_" style="fill:#673AB7;" d="M446.3,158.2v29.5H444v-29.5H446.3z M448.6,155.9h-6.8V190h6.8V155.9z"/>
<rect id="Rectangle-path_9_" x="467.9" y="157.1" style="fill:#673AB7;" width="4.5" height="31.8"/>
<path id="Shape_67_" style="fill:#673AB7;" d="M471.3,158.2v29.5H469v-29.5H471.3z M473.6,155.9h-6.8V190h6.8V155.9z"/>
<circle id="Oval_9_" style="fill:#FFFFFF;" cx="47.9" cy="354.6" r="47"/>
<path id="Shape_68_" style="fill:#DDDDDC;" d="M47.9,314.8h-2.4l-1.1,0.1h-0.2H43l0.2,1.4c1.5-0.2,3.1-0.3,4.7-0.3v-1.5V314.8z
	 M35.5,316.8c-1.2,0.4-2.4,0.8-3.5,1.3l0,0h-0.2h-0.1l-0.7,0.3l0.6,1.3c1.4-0.7,2.9-1.2,4.3-1.7l-0.5-1.4L35.5,316.8z M24.4,322.6
	L24.4,322.6h-0.1l-0.4,0.3l-0.3,0.3l-0.1,0.1h-0.1H22h-0.1l1,1.1c1.1-1.1,2.3-2.1,3.6-3l-0.9-1.2L24.4,322.6z M15.5,331.6l-0.5,0.8
	v0.1h-0.1v0.1l0,0c-0.2,0.3-0.4,0.6-0.6,0.9l0,0v0.1l0,0h-0.1v0.1c-0.1,0.2-0.2,0.4-0.3,0.6l1.3,0.7c0.7-1.4,1.6-2.7,2.5-4l-1.2-0.9
	L15.5,331.6z M10,342.8L10,342.8L10,342.8c-0.5,1.4-0.8,2.8-1.1,4.2l1.4,0.3c0.3-1.5,0.6-3.1,1.1-4.5H10z M9.7,355.2H8.2v0.4v0.1
	v0.1l0,0v0.1c0.1,1.2,0.2,2.4,0.3,3.6l1.4-0.2c-0.2-1.5-0.3-3.1-0.4-4.7L9.7,355.2z M11.8,367.1l-1.4,0.5c0.5,1.5,1.2,3,1.9,4.5
	l1.3-0.6C12.9,370.1,12.3,368.6,11.8,367.1z M17.5,377.8l-1.2,0.9c0.6,0.8,1.2,1.5,1.8,2.2h0.1h0.1h0.1l0.1,0.1
	c0.3,0.3,0.6,0.6,0.9,0.9l1-1c-1.1-1.1-2.1-2.3-3.1-3.5L17.5,377.8z M26.3,386.1l-0.8,1.2c0.6,0.4,1.2,0.8,1.9,1.2l0,0h0.4l0.1,0.1
	l0.2,0.1h0.1l0.2,0.1h0.1h0.2L29,389l0.7-1.3c-1.4-0.7-2.7-1.5-4-2.4L26.3,386.1z M37.3,391.3l-0.4,1.4c0.5,0.1,1,0.3,1.5,0.4h0.1
	h2.1l1.1,0.2l0.2-1.4c-1.5-0.2-3.1-0.6-4.6-1L37.3,391.3z M54,392.4c-1.5,0.2-3.1,0.4-4.7,0.4v1.5c0.6,0,1.2-0.1,1.8-0.1H52
	c0.7-0.1,1.4-0.1,2-0.3l0,0V392.4L54,392.4z M65.5,388.6c-1.4,0.7-2.8,1.3-4.3,1.9l0.5,1.4c1.2-0.4,2.3-0.9,3.4-1.4h0.1h0.3l0,0h0.1
	l0.6-0.3l-0.7-1.3V388.6z M75.2,381.5c-1.1,1.1-2.3,2.1-3.5,3.1l0.9,1.1h0.1H73h0.2l0,0h0.1c0.4-0.4,0.8-0.8,1.2-1.1h0.1h0.3l-1-1
	L75.2,381.5z M82.3,371.6c-0.7,1.4-1.5,2.7-2.3,4l1.2,0.8l0,0c0.6-0.9,1.2-1.9,1.7-2.9l0.1-0.1v-0.1l0,0v-0.1l0,0v-0.1l0,0l0,0
	l0.2-0.3l-1.3-0.6L82.3,371.6z M85.9,360.1c-0.2,1.5-0.6,3.1-1,4.6l1.4,0.4c0.1-0.4,0.2-0.9,0.3-1.3v-0.1l0,0
	c0.2-0.9,0.3-1.7,0.5-2.6l-1.4-0.2L85.9,360.1z M87.1,347.7l-1.4,0.2c0.3,1.5,0.4,3.1,0.5,4.6l1.4-0.1c0-0.8-0.1-1.5-0.2-2.3V350
	v-0.1v0.1l0,0v-0.1c0-0.1,0-0.3-0.1-0.5L87.1,347.7z M83,335.8l-1.3,0.7c0.7,1.4,1.4,2.8,1.9,4.2l1.4-0.5l-0.1-0.2h-0.1l0,0
	l-0.1-0.1c-0.2-0.5-0.4-1.1-0.7-1.6l0,0l0,0v-0.1c-0.2-0.3-0.3-0.6-0.5-0.9L83,335.8z M75.4,325.8l-1,1.1c1.1,1.1,2.2,2.2,3.2,3.4
	l1.1-0.9c-1-1.2-2-2.3-3.1-3.4L75.4,325.8z M65,318.7l-0.6,1.3c1.4,0.7,2.8,1.4,4.1,2.3l0.8-1.2l-0.3-0.2h-0.2
	c-0.8-0.5-1.5-0.9-2.3-1.3l0,0H66l-0.8-0.4L65,318.7z M53,315.1l-0.2,1.4c1.5,0.2,3.1,0.5,4.6,0.9l0.4-1.4c-0.9-0.2-1.8-0.4-2.7-0.6
	h-1.4l-0.6-0.1L53,315.1L53,315.1z"/>
<path id="Shape_69_" style="fill:#02C9B5;stroke:#673AB7;stroke-width:2.38;stroke-linecap:round;stroke-linejoin:round;" d="
	M65.1,344v-8.8c0.1-2.3,2-4,4.2-4s4.1,1.8,4.2,4v8.8H65.1z"/>
<path id="Shape_70_" style="fill:#02C9B5;stroke:#673AB7;stroke-width:2.38;stroke-linecap:round;stroke-linejoin:round;" d="
	M65.1,335.2c0-1.1,0.4-2.2,1.2-3c0.8-0.8,1.9-1.2,3-1.2H33c-5.2,0-9.4,4.2-9.4,9.4V379l5.2-2.6L34,379l5.2-2.6l5.2,2.6l5.2-2.6
	l5.2,2.6l5.2-2.6l5.2,2.6L65.1,335.2z"/>
<path id="Shape_71_" style="fill:#FFFFFF;" d="M52.8,345.4h-4.1c0.8,1,1.3,2.2,1.4,3.5h3.5l-0.8,2.7h-2.7c-0.1,1.8-1,3.6-2.5,4.7
	c-1.8,1.1-3.9,1.7-6,1.6l8.6,10v0.2h-4l-9.3-10.8v-2.2h4.3c1.3,0,2.5-0.3,3.6-1c0.9-0.6,1.5-1.5,1.7-2.5h-9.9l0.8-2.7h9.3
	c-0.5-2.2-2.3-3.4-5.1-3.5h-4.9l0.8-2.7h16.2L52.8,345.4z"/>
<circle id="Oval_10_" style="fill:#FFFFFF;" cx="249.5" cy="47.3" r="47"/>
<path id="Shape_72_" style="fill:#DDDDDC;" d="M249.5,7.5h-2.4L246,7.6h-1.4l0.2,1.4c1.5-0.2,3.1-0.3,4.7-0.3V7.5z M237,9.5
	c-1.2,0.4-2.3,0.8-3.5,1.3h-0.1h-0.2l0,0l-0.7,0.3l0.6,1.3c1.4-0.7,2.9-1.2,4.3-1.7L237,9.5L237,9.5z M225.9,15.3L225.9,15.3
	l-0.5,0.4L225,16l0,0h-0.1h-0.1l0,0h-0.1h-0.2h-0.3h-0.1H224l1,1.1c1.1-1.1,2.3-2.1,3.6-3l-0.9-1.2L225.9,15.3z M217.1,24.3
	c-0.2,0.3-0.4,0.5-0.6,0.8l0,0h-0.1h-0.1v0.1v0.1c-0.2,0.3-0.4,0.6-0.6,0.9l0,0H215c-0.1,0.2-0.2,0.4-0.3,0.6l1.3,0.7
	c0.7-1.4,1.6-2.7,2.5-4l-1.2-0.9L217.1,24.3z M211.5,35.6c-0.4,1.4-0.7,2.8-1,4.2l1.4,0.2c0.3-1.5,0.6-3.1,1.1-4.5l-1.4-0.4
	L211.5,35.6z M211.2,48h-1.5c0,0.1,0,0.2,0,0.4v0.1v0.1c0,1.2,0.2,2.4,0.3,3.6l1.4-0.2c-0.2-1.5-0.3-3.1-0.4-4.7L211.2,48z
	 M213.3,59.9l-1.4,0.5c0.5,1.5,1.2,3,1.9,4.5l1.3-0.7C214.4,62.8,213.8,61.4,213.3,59.9z M219,70.5l-1.1,0.9
	c0.6,0.8,1.2,1.5,1.8,2.2h0.1h0.2h0.1c0.3,0.3,0.6,0.6,0.9,0.9l1-1C220.8,72.6,219.9,71.6,219,70.5z M227.8,78.9l-0.8,1.2
	c0.6,0.4,1.2,0.8,1.8,1.2h0.1h0.4h0.1l0.1,0.1l0.2,0.1h0.1l0.2,0.1l0,0h0.1h0.1h0.3l0.2,0.1l0.7-1.3c-1.4-0.7-2.7-1.5-4-2.4
	L227.8,78.9z M238.7,84.1l-0.4,1.4l1.5,0.4h0.1h0.1h2l1.1,0.2l0.2-1.4c-1.5-0.2-3.1-0.6-4.6-1L238.7,84.1z M255.4,85.1
	c-1.5,0.2-3.1,0.4-4.7,0.4l0.1,1.5c0.6,0,1.2-0.1,1.8-0.1h0.9c0.7-0.1,1.4-0.2,2-0.3L255.4,85.1L255.4,85.1z M266.9,81.4
	c-1.4,0.7-2.8,1.3-4.3,1.9l0.5,1.4c1.1-0.4,2.3-0.9,3.4-1.4l0,0h0.2l0,0h0.1l0.6-0.3l-0.7-1.3L266.9,81.4z M276.7,74.2
	c-1.1,1.1-2.3,2.2-3.5,3.1l0.9,1.1h0.1h0.1h0.5l0,0c0.4-0.4,0.8-0.8,1.2-1.1v-0.1h0.3l-1-1L276.7,74.2z M283.7,64.3
	c-0.7,1.4-1.5,2.7-2.3,4.1l1.2,0.8c0.6-0.9,1.2-1.9,1.7-2.9l0.1-0.1v-0.1l0,0l0.2-0.3l-1.3-0.7L283.7,64.3z M287.3,52.8
	c-0.2,1.5-0.5,3.1-0.9,4.6l1.4,0.4l0.3-1.3v-0.1c0.2-0.9,0.4-1.7,0.5-2.6l-1.4-0.2L287.3,52.8z M288.6,40.4l-1.4,0.2
	c0.3,1.5,0.4,3.1,0.5,4.6l1.5-0.1c0-0.8-0.1-1.5-0.1-2.2v-0.1v-0.2V41v-0.1c0-0.2,0-0.3-0.1-0.5H288.6z M284.5,28.5l-1.3,0.7
	c0.7,1.4,1.4,2.8,2,4.2l1.4-0.5l-0.1-0.2l0,0v-0.1c-0.2-0.5-0.5-1.1-0.7-1.6h-0.1l0,0l0,0c-0.2-0.3-0.3-0.6-0.5-0.9L284.5,28.5z
	 M276.9,18.5l-1,1c1.1,1.1,2.2,2.2,3.2,3.4l1.1-0.9c-1-1.2-2-2.3-3.1-3.4L276.9,18.5z M266.5,11.4l-0.6,1.3c1.4,0.7,2.8,1.4,4.1,2.3
	l0.8-1.2c-0.1-0.1-0.2-0.2-0.4-0.2h-0.1l0,0c-0.8-0.5-1.5-0.9-2.3-1.3h-0.1h-0.2h-0.1l-0.8-0.4L266.5,11.4z M254.5,7.8l-0.2,1.5
	c1.5,0.2,3.1,0.5,4.6,0.9l0.4-1.4c-0.9-0.2-1.8-0.4-2.7-0.6h-0.1h-1.4l-0.6-0.1L254.5,7.8L254.5,7.8z"/>
<polygon id="Shape_73_" style="fill:#00B8A9;" points="270.7,51.1 238.9,55.7 234.6,34.4 275.3,34.4 "/>
<path id="Shape_74_" style="fill:none;stroke:#673AB7;stroke-width:2.59;stroke-linecap:round;stroke-linejoin:round;" d="
	M226.4,27.9h6.3"/>
<path id="Shape_75_" style="fill:none;stroke:#673AB7;stroke-width:2.59;stroke-linecap:round;stroke-linejoin:round;" d="
	M232.8,27.9l5.7,26.9"/>
<path id="Shape_76_" style="fill:none;stroke:#673AB7;stroke-width:2.59;stroke-linecap:round;stroke-linejoin:round;" d="
	M275.3,34.4h-41.2"/>
<path id="Shape_77_" style="fill:none;stroke:#673AB7;stroke-width:2.59;stroke-linecap:round;stroke-linejoin:round;" d="
	M275.3,34.4l-4.6,16.7"/>
<polyline id="Shape_78_" style="fill:none;stroke:#673AB7;stroke-width:2.59;stroke-linecap:round;stroke-linejoin:round;" points="
	270.7,51.1 269,51.3 238.9,55.7 "/>
<path id="Shape_79_" style="fill:none;stroke:#673AB7;stroke-width:2.59;stroke-linecap:round;stroke-linejoin:round;" d="M269,59.9
	h-24.2c-4.6-0.4-5.5-2.7-6.4-5.1"/>
<circle id="Oval_11_" style="fill:#00B8A9;" cx="245.5" cy="70" r="4.4"/>
<circle id="Oval_12_" style="fill:none;stroke:#673AB7;stroke-width:2.59;stroke-linecap:round;stroke-linejoin:round;" cx="245.5" cy="70" r="4.4"/>
<circle id="Oval_13_" style="fill:#00B8A9;" cx="264.7" cy="70" r="4.4"/>
<circle id="Oval_14_" style="fill:none;stroke:#673AB7;stroke-width:2.59;stroke-linecap:round;stroke-linejoin:round;" cx="264.7" cy="70" r="4.4"/>
<g>
	<g>
		<g>
			<g>
				<path style="fill:#673AB7;" d="M252.5,294c-28.3,0-51,22.7-51,51s22.7,51,51,51s51-22.7,51-51C303.5,316.8,280.8,294,252.5,294z
					"/>
			</g>
		</g>
		<g>
			<g>
				<g>
					<path style="fill:#FFFFFF;" d="M273.5,329.3h-9.4l-4.7-8.3l-7.7-13.4c-0.2-0.4-0.6-0.6-1.1-0.6H244c-1.1,0-1.7,1.1-1.1,1.9
						l15.1,20.4h-26.6c-0.6,0-1.3,0.6-1.3,1.3v5.7c0,0.6,0.6,1.3,1.3,1.3h6.2v15.5c0,2.3,0.6,4.7,1.7,6.8c2.6,4.9,7.7,8.3,13.4,8.3
						c2.3,0,4.7-0.6,6.8-1.7V379c0,0.6,0.6,1.3,1.3,1.3h5.7c0.6,0,1.3-0.6,1.3-1.3v-41.4h6c0.6,0,1.3-0.6,1.3-1.3v-5.7
						C274.8,329.9,274.2,329.3,273.5,329.3z M259.3,353.1c0,3.8-3,6.8-6.8,6.8s-6.8-3-6.8-6.8v-15.5h13.6V353.1z"/>
				</g>
			</g>
		</g>
	</g>
</g>
<g>
	<path d="M198.662,428.334h-1.125v-8.531h1.125V428.334z"/>
	<path d="M201.574,421.994l0.035,0.797c0.227-0.285,0.5-0.509,0.82-0.671s0.68-0.243,1.078-0.243c0.309,0,0.588,0.042,0.838,0.126
		s0.463,0.219,0.639,0.404s0.312,0.424,0.407,0.715s0.144,0.644,0.144,1.058v4.154h-1.084v-4.166c0-0.246-0.027-0.456-0.082-0.63
		s-0.136-0.315-0.243-0.425s-0.24-0.189-0.398-0.24s-0.341-0.076-0.548-0.076c-0.352,0-0.66,0.094-0.926,0.281
		s-0.473,0.434-0.621,0.738v4.518h-1.084v-6.34H201.574z"/>
	<path d="M206.906,425.111c0-0.484,0.06-0.925,0.179-1.321c0.119-0.396,0.289-0.736,0.507-1.02s0.48-0.503,0.787-0.659
		s0.65-0.234,1.029-0.234c0.387,0,0.725,0.065,1.014,0.196s0.539,0.319,0.75,0.565v-3.305h1.084v9h-0.996l-0.053-0.68
		c-0.211,0.258-0.465,0.455-0.762,0.592s-0.646,0.205-1.049,0.205c-0.371,0-0.711-0.08-1.018-0.24s-0.568-0.384-0.787-0.671
		s-0.389-0.627-0.507-1.02c-0.119-0.393-0.179-0.821-0.179-1.286V425.111z M207.99,425.234c0,0.316,0.031,0.614,0.096,0.894
		s0.166,0.522,0.303,0.729s0.311,0.371,0.521,0.492s0.463,0.182,0.756,0.182c0.191,0,0.363-0.022,0.516-0.067
		s0.289-0.108,0.412-0.19s0.232-0.18,0.328-0.293s0.18-0.238,0.25-0.375v-2.912c-0.07-0.129-0.152-0.248-0.246-0.357
		s-0.203-0.204-0.326-0.284s-0.26-0.143-0.412-0.188s-0.322-0.067-0.51-0.067c-0.297,0-0.553,0.062-0.766,0.185
		s-0.387,0.29-0.523,0.501s-0.238,0.456-0.303,0.735s-0.096,0.577-0.096,0.894V425.234z"/>
	<path d="M213.943,420.312c0-0.176,0.054-0.324,0.161-0.445s0.267-0.182,0.478-0.182s0.371,0.061,0.48,0.182s0.164,0.27,0.164,0.445
		s-0.055,0.322-0.164,0.439s-0.27,0.176-0.48,0.176s-0.37-0.059-0.478-0.176S213.943,420.488,213.943,420.312z M215.115,428.334
		h-1.084v-6.34h1.084V428.334z"/>
	<path d="M220.764,428.334c-0.039-0.078-0.07-0.177-0.094-0.296s-0.043-0.243-0.059-0.372c-0.102,0.105-0.216,0.206-0.343,0.302
		s-0.266,0.18-0.416,0.252s-0.313,0.129-0.489,0.17s-0.361,0.062-0.557,0.062c-0.324,0-0.618-0.049-0.882-0.146
		s-0.488-0.23-0.674-0.398s-0.329-0.366-0.431-0.595s-0.152-0.474-0.152-0.735c0-0.34,0.066-0.64,0.199-0.899
		s0.323-0.478,0.571-0.653s0.548-0.309,0.899-0.398s0.744-0.135,1.178-0.135h1.078v-0.498c0-0.379-0.113-0.681-0.34-0.905
		s-0.561-0.337-1.002-0.337c-0.203,0-0.389,0.027-0.557,0.082s-0.312,0.128-0.431,0.22s-0.212,0.198-0.278,0.319
		s-0.1,0.248-0.1,0.381h-1.09c0-0.227,0.06-0.451,0.179-0.674s0.288-0.423,0.507-0.601s0.483-0.322,0.794-0.434
		s0.657-0.167,1.04-0.167c0.344,0,0.661,0.044,0.952,0.132s0.54,0.221,0.747,0.398s0.369,0.399,0.486,0.665s0.176,0.576,0.176,0.932
		v2.947c0,0.215,0.019,0.44,0.056,0.677s0.093,0.44,0.167,0.612v0.094H220.764z M218.965,427.508c0.195,0,0.379-0.027,0.551-0.082
		s0.328-0.126,0.469-0.214s0.263-0.188,0.366-0.302s0.185-0.23,0.243-0.352v-1.301h-0.902c-0.621,0-1.1,0.097-1.436,0.29
		s-0.504,0.485-0.504,0.876c0,0.152,0.025,0.295,0.076,0.428s0.128,0.247,0.231,0.343s0.23,0.172,0.381,0.229
		S218.766,427.508,218.965,427.508z"/>
	<path d="M223.646,419.984l-0.123,2.156h-0.756l0.006-2.062v-0.744h0.873V419.984z"/>
	<path d="M228.299,426.652c0-0.117-0.018-0.228-0.053-0.331s-0.104-0.201-0.208-0.293s-0.251-0.177-0.442-0.255
		s-0.443-0.15-0.756-0.217c-0.352-0.074-0.668-0.162-0.949-0.264s-0.521-0.224-0.718-0.366s-0.349-0.312-0.454-0.507
		s-0.158-0.424-0.158-0.686c0-0.25,0.056-0.487,0.167-0.712s0.269-0.422,0.472-0.592s0.449-0.305,0.738-0.404
		s0.611-0.149,0.967-0.149c0.379,0,0.718,0.052,1.017,0.155s0.553,0.245,0.762,0.425s0.368,0.39,0.478,0.63s0.164,0.497,0.164,0.771
		h-1.09c0-0.129-0.029-0.259-0.088-0.39s-0.145-0.248-0.258-0.352s-0.252-0.188-0.416-0.252s-0.354-0.097-0.568-0.097
		c-0.227,0-0.419,0.026-0.577,0.079s-0.288,0.123-0.39,0.211s-0.176,0.188-0.223,0.299s-0.07,0.226-0.07,0.343
		s0.02,0.223,0.059,0.316s0.113,0.179,0.223,0.255s0.259,0.146,0.448,0.211s0.435,0.13,0.735,0.196
		c0.387,0.09,0.723,0.191,1.008,0.305s0.521,0.245,0.709,0.396s0.327,0.323,0.419,0.519s0.138,0.422,0.138,0.68
		c0,0.277-0.058,0.531-0.173,0.762s-0.28,0.428-0.495,0.592s-0.473,0.292-0.773,0.384s-0.635,0.138-1.002,0.138
		c-0.422,0-0.794-0.059-1.116-0.176s-0.593-0.272-0.812-0.466s-0.385-0.414-0.498-0.662s-0.17-0.503-0.17-0.765h1.084
		c0.012,0.223,0.065,0.409,0.161,0.56s0.216,0.272,0.36,0.366s0.303,0.16,0.475,0.199s0.344,0.059,0.516,0.059
		c0.223,0,0.418-0.023,0.586-0.07s0.31-0.111,0.425-0.193s0.202-0.179,0.261-0.29S228.299,426.781,228.299,426.652z"/>
	<path d="M235.061,424.994v3.34h-1.125v-8.531h3.146c0.484,0,0.912,0.064,1.283,0.193s0.683,0.31,0.935,0.542
		s0.443,0.508,0.574,0.826s0.196,0.667,0.196,1.046c0,0.41-0.065,0.776-0.196,1.099s-0.322,0.593-0.574,0.812
		s-0.563,0.386-0.935,0.501s-0.799,0.173-1.283,0.173H235.061z M235.061,424.074h2.021c0.328,0,0.61-0.041,0.847-0.123
		s0.43-0.196,0.58-0.343s0.261-0.32,0.331-0.521s0.105-0.423,0.105-0.665c0-0.219-0.035-0.431-0.105-0.636s-0.181-0.386-0.331-0.542
		s-0.344-0.281-0.58-0.375s-0.519-0.141-0.847-0.141h-2.021V424.074z"/>
	<path d="M245.186,428.334c-0.039-0.078-0.07-0.177-0.094-0.296s-0.043-0.243-0.059-0.372c-0.102,0.105-0.216,0.206-0.343,0.302
		s-0.266,0.18-0.416,0.252s-0.313,0.129-0.489,0.17s-0.361,0.062-0.557,0.062c-0.324,0-0.618-0.049-0.882-0.146
		s-0.488-0.23-0.674-0.398s-0.329-0.366-0.431-0.595s-0.152-0.474-0.152-0.735c0-0.34,0.066-0.64,0.199-0.899
		s0.323-0.478,0.571-0.653s0.548-0.309,0.899-0.398s0.744-0.135,1.178-0.135h1.078v-0.498c0-0.379-0.113-0.681-0.34-0.905
		s-0.561-0.337-1.002-0.337c-0.203,0-0.389,0.027-0.557,0.082s-0.312,0.128-0.431,0.22s-0.212,0.198-0.278,0.319
		s-0.1,0.248-0.1,0.381h-1.09c0-0.227,0.06-0.451,0.179-0.674s0.288-0.423,0.507-0.601s0.483-0.322,0.794-0.434
		s0.657-0.167,1.04-0.167c0.344,0,0.661,0.044,0.952,0.132s0.54,0.221,0.747,0.398s0.369,0.399,0.486,0.665s0.176,0.576,0.176,0.932
		v2.947c0,0.215,0.019,0.44,0.056,0.677s0.093,0.44,0.167,0.612v0.094H245.186z M243.387,427.508c0.195,0,0.379-0.027,0.551-0.082
		s0.328-0.126,0.469-0.214s0.263-0.188,0.366-0.302s0.185-0.23,0.243-0.352v-1.301h-0.902c-0.621,0-1.1,0.097-1.436,0.29
		s-0.504,0.485-0.504,0.876c0,0.152,0.025,0.295,0.076,0.428s0.128,0.247,0.231,0.343s0.23,0.172,0.381,0.229
		S243.188,427.508,243.387,427.508z"/>
	<path d="M249.785,426.746l1.477-4.752h1.16l-2.549,7.318c-0.059,0.156-0.135,0.326-0.229,0.51s-0.216,0.354-0.366,0.513
		s-0.331,0.291-0.542,0.398s-0.459,0.161-0.744,0.161c-0.043,0-0.094-0.004-0.152-0.012s-0.117-0.017-0.176-0.026
		s-0.113-0.02-0.164-0.029s-0.09-0.019-0.117-0.026v-0.879c0.016,0.004,0.037,0.007,0.064,0.009s0.056,0.004,0.085,0.006
		s0.057,0.004,0.082,0.006s0.046,0.003,0.062,0.003c0.184,0,0.346-0.018,0.486-0.053s0.266-0.093,0.375-0.173
		s0.204-0.187,0.284-0.319s0.153-0.297,0.22-0.492l0.24-0.645l-2.262-6.27h1.184L249.785,426.746z"/>
	<path d="M254.408,421.994l0.029,0.703c0.219-0.258,0.483-0.459,0.794-0.604s0.673-0.217,1.087-0.217
		c0.41,0,0.772,0.081,1.087,0.243s0.556,0.421,0.724,0.776c0.211-0.305,0.485-0.551,0.823-0.738s0.737-0.281,1.198-0.281
		c0.34,0,0.641,0.044,0.902,0.132s0.483,0.226,0.665,0.413s0.319,0.426,0.413,0.715s0.141,0.633,0.141,1.031v4.166h-1.084v-4.172
		c0-0.266-0.032-0.486-0.097-0.662s-0.155-0.316-0.272-0.422s-0.26-0.179-0.428-0.22s-0.354-0.062-0.557-0.062
		c-0.223,0-0.42,0.035-0.592,0.105s-0.319,0.165-0.442,0.284s-0.221,0.26-0.293,0.422s-0.118,0.335-0.138,0.519v4.207h-1.09v-4.166
		c0-0.246-0.032-0.456-0.097-0.63s-0.155-0.315-0.272-0.425s-0.259-0.189-0.425-0.24s-0.353-0.076-0.56-0.076
		c-0.387,0-0.697,0.084-0.932,0.252s-0.41,0.387-0.527,0.656v4.629h-1.084v-6.34H254.408z"/>
	<path d="M266.537,428.451c-0.441,0-0.841-0.076-1.198-0.229s-0.663-0.364-0.917-0.636s-0.449-0.595-0.586-0.97
		s-0.205-0.785-0.205-1.23v-0.246c0-0.516,0.077-0.977,0.231-1.383s0.36-0.748,0.618-1.025s0.553-0.489,0.885-0.636
		s0.678-0.22,1.037-0.22c0.453,0,0.844,0.079,1.172,0.237s0.599,0.376,0.812,0.653s0.37,0.605,0.472,0.984s0.152,0.791,0.152,1.236
		v0.486h-4.295c0.008,0.293,0.056,0.566,0.144,0.82s0.213,0.475,0.375,0.662s0.357,0.336,0.586,0.445s0.487,0.164,0.776,0.164
		c0.383,0,0.707-0.078,0.973-0.234s0.498-0.363,0.697-0.621l0.662,0.516c-0.102,0.156-0.225,0.308-0.369,0.454
		s-0.313,0.277-0.507,0.393s-0.415,0.207-0.665,0.275S266.854,428.451,266.537,428.451z M266.402,422.768
		c-0.219,0-0.42,0.04-0.604,0.12s-0.348,0.196-0.492,0.349s-0.265,0.342-0.36,0.568s-0.161,0.486-0.196,0.779h3.176v-0.082
		c-0.012-0.211-0.046-0.42-0.103-0.627s-0.145-0.393-0.264-0.557s-0.272-0.297-0.46-0.398S266.68,422.768,266.402,422.768z"/>
	<path d="M271.289,421.994l0.035,0.797c0.227-0.285,0.5-0.509,0.82-0.671s0.68-0.243,1.078-0.243c0.309,0,0.588,0.042,0.838,0.126
		s0.463,0.219,0.639,0.404s0.312,0.424,0.407,0.715s0.144,0.644,0.144,1.058v4.154h-1.084v-4.166c0-0.246-0.027-0.456-0.082-0.63
		s-0.136-0.315-0.243-0.425s-0.24-0.189-0.398-0.24s-0.341-0.076-0.548-0.076c-0.352,0-0.66,0.094-0.926,0.281
		s-0.473,0.434-0.621,0.738v4.518h-1.084v-6.34H271.289z"/>
	<path d="M278.355,420.459v1.535h1.184v0.838h-1.184v3.932c0,0.164,0.02,0.296,0.059,0.396s0.091,0.177,0.155,0.231
		s0.139,0.091,0.223,0.108s0.171,0.026,0.261,0.026s0.185-0.009,0.284-0.026s0.177-0.032,0.231-0.044v0.879
		c-0.086,0.023-0.197,0.049-0.334,0.076s-0.303,0.041-0.498,0.041c-0.199,0-0.388-0.028-0.565-0.085s-0.333-0.151-0.466-0.284
		s-0.238-0.308-0.316-0.524s-0.117-0.483-0.117-0.8v-3.926h-1.154v-0.838h1.154v-1.535H278.355z"/>
	<path d="M284.496,426.652c0-0.117-0.018-0.228-0.053-0.331s-0.104-0.201-0.208-0.293s-0.251-0.177-0.442-0.255
		s-0.443-0.15-0.756-0.217c-0.352-0.074-0.668-0.162-0.949-0.264s-0.521-0.224-0.718-0.366s-0.349-0.312-0.454-0.507
		s-0.158-0.424-0.158-0.686c0-0.25,0.056-0.487,0.167-0.712s0.269-0.422,0.472-0.592s0.449-0.305,0.738-0.404
		s0.611-0.149,0.967-0.149c0.379,0,0.718,0.052,1.017,0.155s0.553,0.245,0.762,0.425s0.368,0.39,0.478,0.63s0.164,0.497,0.164,0.771
		h-1.09c0-0.129-0.029-0.259-0.088-0.39s-0.145-0.248-0.258-0.352s-0.252-0.188-0.416-0.252s-0.354-0.097-0.568-0.097
		c-0.227,0-0.419,0.026-0.577,0.079s-0.288,0.123-0.39,0.211s-0.176,0.188-0.223,0.299s-0.07,0.226-0.07,0.343
		s0.02,0.223,0.059,0.316s0.113,0.179,0.223,0.255s0.259,0.146,0.448,0.211s0.435,0.13,0.735,0.196
		c0.387,0.09,0.723,0.191,1.008,0.305s0.521,0.245,0.709,0.396s0.327,0.323,0.419,0.519s0.138,0.422,0.138,0.68
		c0,0.277-0.058,0.531-0.173,0.762s-0.28,0.428-0.495,0.592s-0.473,0.292-0.773,0.384s-0.635,0.138-1.002,0.138
		c-0.422,0-0.794-0.059-1.116-0.176s-0.593-0.272-0.812-0.466s-0.385-0.414-0.498-0.662s-0.17-0.503-0.17-0.765h1.084
		c0.012,0.223,0.065,0.409,0.161,0.56s0.216,0.272,0.36,0.366s0.303,0.16,0.475,0.199s0.344,0.059,0.516,0.059
		c0.223,0,0.418-0.023,0.586-0.07s0.31-0.111,0.425-0.193s0.202-0.179,0.261-0.29S284.496,426.781,284.496,426.652z"/>
	<path d="M294.844,426.107h-3.574l-0.803,2.227h-1.16l3.258-8.531h0.984l3.264,8.531h-1.154L294.844,426.107z M291.609,425.182h2.9
		l-1.453-3.99L291.609,425.182z"/>
	<path d="M303.146,425.234c0,0.465-0.055,0.894-0.164,1.286s-0.269,0.732-0.478,1.02s-0.466,0.511-0.771,0.671
		s-0.652,0.24-1.043,0.24c-0.398,0-0.747-0.062-1.046-0.188s-0.556-0.307-0.771-0.545v3.053h-1.084v-8.777h0.99l0.053,0.703
		c0.215-0.266,0.475-0.469,0.779-0.609s0.658-0.211,1.061-0.211c0.398,0,0.751,0.078,1.058,0.234s0.565,0.376,0.776,0.659
		s0.37,0.623,0.478,1.02s0.161,0.837,0.161,1.321V425.234z M302.062,425.111c0-0.316-0.033-0.614-0.1-0.894s-0.17-0.524-0.311-0.735
		s-0.318-0.378-0.533-0.501s-0.471-0.185-0.768-0.185c-0.184,0-0.351,0.021-0.501,0.064s-0.286,0.104-0.407,0.182
		s-0.229,0.171-0.322,0.278s-0.176,0.224-0.246,0.349v3.029c0.07,0.125,0.152,0.241,0.246,0.349s0.201,0.199,0.322,0.275
		s0.258,0.136,0.41,0.179s0.322,0.064,0.51,0.064c0.293,0,0.546-0.062,0.759-0.188s0.39-0.293,0.53-0.504s0.244-0.458,0.311-0.741
		s0.1-0.583,0.1-0.899V425.111z"/>
	<path d="M309.879,425.234c0,0.465-0.055,0.894-0.164,1.286s-0.269,0.732-0.478,1.02s-0.466,0.511-0.771,0.671
		s-0.652,0.24-1.043,0.24c-0.398,0-0.747-0.062-1.046-0.188s-0.556-0.307-0.771-0.545v3.053h-1.084v-8.777h0.99l0.053,0.703
		c0.215-0.266,0.475-0.469,0.779-0.609s0.658-0.211,1.061-0.211c0.398,0,0.751,0.078,1.058,0.234s0.565,0.376,0.776,0.659
		s0.37,0.623,0.478,1.02s0.161,0.837,0.161,1.321V425.234z M308.795,425.111c0-0.316-0.033-0.614-0.1-0.894s-0.17-0.524-0.311-0.735
		s-0.318-0.378-0.533-0.501s-0.471-0.185-0.768-0.185c-0.184,0-0.351,0.021-0.501,0.064s-0.286,0.104-0.407,0.182
		s-0.229,0.171-0.322,0.278s-0.176,0.224-0.246,0.349v3.029c0.07,0.125,0.152,0.241,0.246,0.349s0.201,0.199,0.322,0.275
		s0.258,0.136,0.41,0.179s0.322,0.064,0.51,0.064c0.293,0,0.546-0.062,0.759-0.188s0.39-0.293,0.53-0.504s0.244-0.458,0.311-0.741
		s0.1-0.583,0.1-0.899V425.111z"/>
</g>
</svg>
