<?xml version="1.0" encoding="utf-8"?>
<!-- Generator: Adobe Illustrator 22.1.0, SVG Export Plug-In . SVG Version: 6.00 Build 0)  -->
<svg version="1.1" id="Layer_1" xmlns="http://www.w3.org/2000/svg" xmlns:xlink="http://www.w3.org/1999/xlink" x="0px" y="0px"
	 viewBox="0 0 300 324" style="enable-background:new 0 0 300 324;" xml:space="preserve">
<style type="text/css">
	.st0{fill:#FFFFFF;}
	.st1{fill:#663DB4;}
	.st2{opacity:0.25;fill:url(#gradient_1_);enable-background:new    ;}
	.st3{fill:#4CAF50;}
	.st4{fill:#673AB7;}
</style>
<title>7-qrcode</title>
<desc>Created with Sketch.</desc>
<rect id="Rectangle-2" class="st0" width="300" height="324"/>
<g id="qrcode" transform="translate(42.000000, 0.000000)">
	<rect id="p" x="18" class="st1" width="6.2" height="6.2"/>
	<rect id="p_1_" x="18" y="6.2" class="st1" width="6.2" height="6.2"/>
	<rect id="p_2_" x="18" y="12.4" class="st1" width="6.2" height="6.2"/>
	<rect id="p_3_" x="18" y="18.6" class="st1" width="6.2" height="6.2"/>
	<rect id="p_4_" x="18" y="24.8" class="st1" width="6.2" height="6.2"/>
	<rect id="p_5_" x="18" y="31" class="st1" width="6.2" height="6.2"/>
	<rect id="p_6_" x="18" y="37.2" class="st1" width="6.2" height="6.2"/>
	<rect id="p_7_" x="18" y="49.7" class="st1" width="6.2" height="6.2"/>
	<rect id="p_8_" x="18" y="80.7" class="st1" width="6.2" height="6.2"/>
	<rect id="p_9_" x="18" y="136.6" class="st1" width="6.2" height="6.2"/>
	<rect id="p_10_" x="18" y="142.8" class="st1" width="6.2" height="6.2"/>
	<rect id="p_11_" x="18" y="149" class="st1" width="6.2" height="6.2"/>
	<rect id="p_12_" x="18" y="155.2" class="st1" width="6.2" height="6.2"/>
	<rect id="p_13_" x="18" y="161.4" class="st1" width="6.2" height="6.2"/>
	<rect id="p_14_" x="18" y="167.6" class="st1" width="6.2" height="6.2"/>
	<rect id="p_15_" x="18" y="173.8" class="st1" width="6.2" height="6.2"/>
	<rect id="p_16_" x="24.2" class="st1" width="6.2" height="6.2"/>
	<rect id="p_17_" x="24.2" y="37.2" class="st1" width="6.2" height="6.2"/>
	<rect id="p_18_" x="24.2" y="62.1" class="st1" width="6.2" height="6.2"/>
	<rect id="p_19_" x="24.2" y="74.5" class="st1" width="6.2" height="6.2"/>
	<rect id="p_20_" x="24.2" y="80.7" class="st1" width="6.2" height="6.2"/>
	<rect id="p_21_" x="24.2" y="86.9" class="st1" width="6.2" height="6.2"/>
	<rect id="p_22_" x="24.2" y="117.9" class="st1" width="6.2" height="6.2"/>
	<rect id="p_23_" x="24.2" y="124.1" class="st1" width="6.2" height="6.2"/>
	<rect id="p_24_" x="24.2" y="136.6" class="st1" width="6.2" height="6.2"/>
	<rect id="p_25_" x="24.2" y="173.8" class="st1" width="6.2" height="6.2"/>
	<rect id="p_26_" x="30.4" class="st1" width="6.2" height="6.2"/>
	<rect id="p_27_" x="30.4" y="12.4" class="st1" width="6.2" height="6.2"/>
	<rect id="p_28_" x="30.4" y="18.6" class="st1" width="6.2" height="6.2"/>
	<rect id="p_29_" x="30.4" y="24.8" class="st1" width="6.2" height="6.2"/>
	<rect id="p_30_" x="30.4" y="37.2" class="st1" width="6.2" height="6.2"/>
	<rect id="p_31_" x="30.4" y="55.9" class="st1" width="6.2" height="6.2"/>
	<rect id="p_32_" x="30.4" y="68.3" class="st1" width="6.2" height="6.2"/>
	<rect id="p_33_" x="30.4" y="74.5" class="st1" width="6.2" height="6.2"/>
	<rect id="p_34_" x="30.4" y="80.7" class="st1" width="6.2" height="6.2"/>
	<rect id="p_35_" x="30.4" y="86.9" class="st1" width="6.2" height="6.2"/>
	<rect id="p_36_" x="30.4" y="105.5" class="st1" width="6.2" height="6.2"/>
	<rect id="p_37_" x="30.4" y="111.7" class="st1" width="6.2" height="6.2"/>
	<rect id="p_38_" x="30.4" y="117.9" class="st1" width="6.2" height="6.2"/>
	<rect id="p_39_" x="30.4" y="124.1" class="st1" width="6.2" height="6.2"/>
	<rect id="p_40_" x="30.4" y="136.6" class="st1" width="6.2" height="6.2"/>
	<rect id="p_41_" x="30.4" y="149" class="st1" width="6.2" height="6.2"/>
	<rect id="p_42_" x="30.4" y="155.2" class="st1" width="6.2" height="6.2"/>
	<rect id="p_43_" x="30.4" y="161.4" class="st1" width="6.2" height="6.2"/>
	<rect id="p_44_" x="30.4" y="173.8" class="st1" width="6.2" height="6.2"/>
	<rect id="p_45_" x="36.6" class="st1" width="6.2" height="6.2"/>
	<rect id="p_46_" x="36.6" y="12.4" class="st1" width="6.2" height="6.2"/>
	<rect id="p_47_" x="36.6" y="18.6" class="st1" width="6.2" height="6.2"/>
	<rect id="p_48_" x="36.6" y="24.8" class="st1" width="6.2" height="6.2"/>
	<rect id="p_49_" x="36.6" y="37.2" class="st1" width="6.2" height="6.2"/>
	<rect id="p_50_" x="36.6" y="55.9" class="st1" width="6.2" height="6.2"/>
	<rect id="p_51_" x="36.6" y="62.1" class="st1" width="6.2" height="6.2"/>
	<rect id="p_52_" x="36.6" y="74.5" class="st1" width="6.2" height="6.2"/>
	<rect id="p_53_" x="36.6" y="80.7" class="st1" width="6.2" height="6.2"/>
	<rect id="p_54_" x="36.6" y="93.1" class="st1" width="6.2" height="6.2"/>
	<rect id="p_55_" x="36.6" y="99.3" class="st1" width="6.2" height="6.2"/>
	<rect id="p_56_" x="36.6" y="124.1" class="st1" width="6.2" height="6.2"/>
	<rect id="p_57_" x="36.6" y="136.6" class="st1" width="6.2" height="6.2"/>
	<rect id="p_58_" x="36.6" y="149" class="st1" width="6.2" height="6.2"/>
	<rect id="p_59_" x="36.6" y="155.2" class="st1" width="6.2" height="6.2"/>
	<rect id="p_60_" x="36.6" y="161.4" class="st1" width="6.2" height="6.2"/>
	<rect id="p_61_" x="36.6" y="173.8" class="st1" width="6.2" height="6.2"/>
	<rect id="p_62_" x="42.8" class="st1" width="6.2" height="6.2"/>
	<rect id="p_63_" x="42.8" y="12.4" class="st1" width="6.2" height="6.2"/>
	<rect id="p_64_" x="42.8" y="18.6" class="st1" width="6.2" height="6.2"/>
	<rect id="p_65_" x="42.8" y="24.8" class="st1" width="6.2" height="6.2"/>
	<rect id="p_66_" x="42.8" y="37.2" class="st1" width="6.2" height="6.2"/>
	<rect id="p_67_" x="42.8" y="62.1" class="st1" width="6.2" height="6.2"/>
	<rect id="p_68_" x="42.8" y="68.3" class="st1" width="6.2" height="6.2"/>
	<rect id="p_69_" x="42.8" y="74.5" class="st1" width="6.2" height="6.2"/>
	<rect id="p_70_" x="42.8" y="80.7" class="st1" width="6.2" height="6.2"/>
	<rect id="p_71_" x="42.8" y="93.1" class="st1" width="6.2" height="6.2"/>
	<rect id="p_72_" x="42.8" y="99.3" class="st1" width="6.2" height="6.2"/>
	<rect id="p_73_" x="42.8" y="117.9" class="st1" width="6.2" height="6.2"/>
	<rect id="p_74_" x="42.8" y="136.6" class="st1" width="6.2" height="6.2"/>
	<rect id="p_75_" x="42.8" y="149" class="st1" width="6.2" height="6.2"/>
	<rect id="p_76_" x="42.8" y="155.2" class="st1" width="6.2" height="6.2"/>
	<rect id="p_77_" x="42.8" y="161.4" class="st1" width="6.2" height="6.2"/>
	<rect id="p_78_" x="42.8" y="173.8" class="st1" width="6.2" height="6.2"/>
	<rect id="p_79_" x="49" class="st1" width="6.2" height="6.2"/>
	<rect id="p_80_" x="49" y="37.2" class="st1" width="6.2" height="6.2"/>
	<rect id="p_81_" x="49" y="55.9" class="st1" width="6.2" height="6.2"/>
	<rect id="p_82_" x="49" y="62.1" class="st1" width="6.2" height="6.2"/>
	<rect id="p_83_" x="49" y="80.7" class="st1" width="6.2" height="6.2"/>
	<rect id="p_84_" x="49" y="86.9" class="st1" width="6.2" height="6.2"/>
	<rect id="p_85_" x="49" y="105.5" class="st1" width="6.2" height="6.2"/>
	<rect id="p_86_" x="49" y="117.9" class="st1" width="6.2" height="6.2"/>
	<rect id="p_87_" x="49" y="136.6" class="st1" width="6.2" height="6.2"/>
	<rect id="p_88_" x="49" y="173.8" class="st1" width="6.2" height="6.2"/>
	<rect id="p_89_" x="55.2" class="st1" width="6.2" height="6.2"/>
	<rect id="p_90_" x="55.2" y="6.2" class="st1" width="6.2" height="6.2"/>
	<rect id="p_91_" x="55.2" y="12.4" class="st1" width="6.2" height="6.2"/>
	<rect id="p_92_" x="55.2" y="18.6" class="st1" width="6.2" height="6.2"/>
	<rect id="p_93_" x="55.2" y="24.8" class="st1" width="6.2" height="6.2"/>
	<rect id="p_94_" x="55.2" y="31" class="st1" width="6.2" height="6.2"/>
	<rect id="p_95_" x="55.2" y="37.2" class="st1" width="6.2" height="6.2"/>
	<rect id="p_96_" x="55.2" y="49.7" class="st1" width="6.2" height="6.2"/>
	<rect id="p_97_" x="55.2" y="62.1" class="st1" width="6.2" height="6.2"/>
	<rect id="p_98_" x="55.2" y="74.5" class="st1" width="6.2" height="6.2"/>
	<rect id="p_99_" x="55.2" y="86.9" class="st1" width="6.2" height="6.2"/>
	<rect id="p_100_" x="55.2" y="99.3" class="st1" width="6.2" height="6.2"/>
	<rect id="p_101_" x="55.2" y="111.7" class="st1" width="6.2" height="6.2"/>
	<rect id="p_102_" x="55.2" y="124.1" class="st1" width="6.2" height="6.2"/>
	<rect id="p_103_" x="55.2" y="136.6" class="st1" width="6.2" height="6.2"/>
	<rect id="p_104_" x="55.2" y="142.8" class="st1" width="6.2" height="6.2"/>
	<rect id="p_105_" x="55.2" y="149" class="st1" width="6.2" height="6.2"/>
	<rect id="p_106_" x="55.2" y="155.2" class="st1" width="6.2" height="6.2"/>
	<rect id="p_107_" x="55.2" y="161.4" class="st1" width="6.2" height="6.2"/>
	<rect id="p_108_" x="55.2" y="167.6" class="st1" width="6.2" height="6.2"/>
	<rect id="p_109_" x="55.2" y="173.8" class="st1" width="6.2" height="6.2"/>
	<rect id="p_110_" x="61.4" y="55.9" class="st1" width="6.2" height="6.2"/>
	<rect id="p_111_" x="61.4" y="86.9" class="st1" width="6.2" height="6.2"/>
	<rect id="p_112_" x="61.4" y="93.1" class="st1" width="6.2" height="6.2"/>
	<rect id="p_113_" x="61.4" y="111.7" class="st1" width="6.2" height="6.2"/>
	<rect id="p_114_" x="67.7" y="6.2" class="st1" width="6.2" height="6.2"/>
	<rect id="p_115_" x="67.7" y="12.4" class="st1" width="6.2" height="6.2"/>
	<rect id="p_116_" x="67.7" y="18.6" class="st1" width="6.2" height="6.2"/>
	<rect id="p_117_" x="67.7" y="37.2" class="st1" width="6.2" height="6.2"/>
	<rect id="p_118_" x="67.7" y="43.4" class="st1" width="6.2" height="6.2"/>
	<rect id="p_119_" x="67.7" y="49.7" class="st1" width="6.2" height="6.2"/>
	<rect id="p_120_" x="67.7" y="55.9" class="st1" width="6.2" height="6.2"/>
	<rect id="p_121_" x="67.7" y="62.1" class="st1" width="6.2" height="6.2"/>
	<rect id="p_122_" x="67.7" y="80.7" class="st1" width="6.2" height="6.2"/>
	<rect id="p_123_" x="67.7" y="86.9" class="st1" width="6.2" height="6.2"/>
	<rect id="p_124_" x="67.7" y="105.5" class="st1" width="6.2" height="6.2"/>
	<rect id="p_125_" x="67.7" y="117.9" class="st1" width="6.2" height="6.2"/>
	<rect id="p_126_" x="67.7" y="124.1" class="st1" width="6.2" height="6.2"/>
	<rect id="p_127_" x="67.7" y="130.3" class="st1" width="6.2" height="6.2"/>
	<rect id="p_128_" x="67.7" y="173.8" class="st1" width="6.2" height="6.2"/>
	<rect id="p_129_" x="73.9" y="6.2" class="st1" width="6.2" height="6.2"/>
	<rect id="p_130_" x="73.9" y="24.8" class="st1" width="6.2" height="6.2"/>
	<rect id="p_131_" x="73.9" y="31" class="st1" width="6.2" height="6.2"/>
	<rect id="p_132_" x="73.9" y="49.7" class="st1" width="6.2" height="6.2"/>
	<rect id="p_133_" x="73.9" y="55.9" class="st1" width="6.2" height="6.2"/>
	<rect id="p_134_" x="73.9" y="68.3" class="st1" width="6.2" height="6.2"/>
	<rect id="p_135_" x="73.9" y="86.9" class="st1" width="6.2" height="6.2"/>
	<rect id="p_136_" x="73.9" y="99.3" class="st1" width="6.2" height="6.2"/>
	<rect id="p_137_" x="73.9" y="105.5" class="st1" width="6.2" height="6.2"/>
	<rect id="p_138_" x="73.9" y="111.7" class="st1" width="6.2" height="6.2"/>
	<rect id="p_139_" x="73.9" y="117.9" class="st1" width="6.2" height="6.2"/>
	<rect id="p_140_" x="73.9" y="173.8" class="st1" width="6.2" height="6.2"/>
	<rect id="p_141_" x="80.1" class="st1" width="6.2" height="6.2"/>
	<rect id="p_142_" x="80.1" y="6.2" class="st1" width="6.2" height="6.2"/>
	<rect id="p_143_" x="80.1" y="24.8" class="st1" width="6.2" height="6.2"/>
	<rect id="p_144_" x="80.1" y="31" class="st1" width="6.2" height="6.2"/>
	<rect id="p_145_" x="80.1" y="37.2" class="st1" width="6.2" height="6.2"/>
	<rect id="p_146_" x="80.1" y="43.4" class="st1" width="6.2" height="6.2"/>
	<rect id="p_147_" x="80.1" y="55.9" class="st1" width="6.2" height="6.2"/>
	<rect id="p_148_" x="80.1" y="62.1" class="st1" width="6.2" height="6.2"/>
	<rect id="p_149_" x="80.1" y="68.3" class="st1" width="6.2" height="6.2"/>
	<rect id="p_150_" x="80.1" y="74.5" class="st1" width="6.2" height="6.2"/>
	<rect id="p_151_" x="80.1" y="86.9" class="st1" width="6.2" height="6.2"/>
	<rect id="p_152_" x="80.1" y="93.1" class="st1" width="6.2" height="6.2"/>
	<rect id="p_153_" x="80.1" y="99.3" class="st1" width="6.2" height="6.2"/>
	<rect id="p_154_" x="80.1" y="111.7" class="st1" width="6.2" height="6.2"/>
	<rect id="p_155_" x="80.1" y="124.1" class="st1" width="6.2" height="6.2"/>
	<rect id="p_156_" x="80.1" y="136.6" class="st1" width="6.2" height="6.2"/>
	<rect id="p_157_" x="80.1" y="155.2" class="st1" width="6.2" height="6.2"/>
	<rect id="p_158_" x="80.1" y="167.6" class="st1" width="6.2" height="6.2"/>
	<rect id="p_159_" x="86.3" y="6.2" class="st1" width="6.2" height="6.2"/>
	<rect id="p_160_" x="86.3" y="31" class="st1" width="6.2" height="6.2"/>
	<rect id="p_161_" x="86.3" y="43.4" class="st1" width="6.2" height="6.2"/>
	<rect id="p_162_" x="86.3" y="62.1" class="st1" width="6.2" height="6.2"/>
	<rect id="p_163_" x="86.3" y="86.9" class="st1" width="6.2" height="6.2"/>
	<rect id="p_164_" x="86.3" y="93.1" class="st1" width="6.2" height="6.2"/>
	<rect id="p_165_" x="86.3" y="105.5" class="st1" width="6.2" height="6.2"/>
	<rect id="p_166_" x="86.3" y="136.6" class="st1" width="6.2" height="6.2"/>
	<rect id="p_167_" x="86.3" y="142.8" class="st1" width="6.2" height="6.2"/>
	<rect id="p_168_" x="86.3" y="149" class="st1" width="6.2" height="6.2"/>
	<rect id="p_169_" x="86.3" y="155.2" class="st1" width="6.2" height="6.2"/>
	<rect id="p_170_" x="86.3" y="167.6" class="st1" width="6.2" height="6.2"/>
	<rect id="p_171_" x="92.5" class="st1" width="6.2" height="6.2"/>
	<rect id="p_172_" x="92.5" y="6.2" class="st1" width="6.2" height="6.2"/>
	<rect id="p_173_" x="92.5" y="18.6" class="st1" width="6.2" height="6.2"/>
	<rect id="p_174_" x="92.5" y="37.2" class="st1" width="6.2" height="6.2"/>
	<rect id="p_175_" x="92.5" y="43.4" class="st1" width="6.2" height="6.2"/>
	<rect id="p_176_" x="92.5" y="49.7" class="st1" width="6.2" height="6.2"/>
	<rect id="p_177_" x="92.5" y="62.1" class="st1" width="6.2" height="6.2"/>
	<rect id="p_178_" x="92.5" y="93.1" class="st1" width="6.2" height="6.2"/>
	<rect id="p_179_" x="92.5" y="117.9" class="st1" width="6.2" height="6.2"/>
	<rect id="p_180_" x="98.7" class="st1" width="6.2" height="6.2"/>
	<rect id="p_181_" x="98.7" y="24.8" class="st1" width="6.2" height="6.2"/>
	<rect id="p_182_" x="98.7" y="31" class="st1" width="6.2" height="6.2"/>
	<rect id="p_183_" x="98.7" y="43.4" class="st1" width="6.2" height="6.2"/>
	<rect id="p_184_" x="98.7" y="74.5" class="st1" width="6.2" height="6.2"/>
	<rect id="p_185_" x="98.7" y="80.7" class="st1" width="6.2" height="6.2"/>
	<rect id="p_186_" x="98.7" y="86.9" class="st1" width="6.2" height="6.2"/>
	<rect id="p_187_" x="98.7" y="93.1" class="st1" width="6.2" height="6.2"/>
	<rect id="p_188_" x="98.7" y="111.7" class="st1" width="6.2" height="6.2"/>
	<rect id="p_189_" x="98.7" y="130.3" class="st1" width="6.2" height="6.2"/>
	<rect id="p_190_" x="98.7" y="136.6" class="st1" width="6.2" height="6.2"/>
	<rect id="p_191_" x="98.7" y="142.8" class="st1" width="6.2" height="6.2"/>
	<rect id="p_192_" x="98.7" y="149" class="st1" width="6.2" height="6.2"/>
	<rect id="p_193_" x="98.7" y="167.6" class="st1" width="6.2" height="6.2"/>
	<rect id="p_194_" x="98.7" y="173.8" class="st1" width="6.2" height="6.2"/>
	<rect id="p_195_" x="104.9" class="st1" width="6.2" height="6.2"/>
	<rect id="p_196_" x="104.9" y="12.4" class="st1" width="6.2" height="6.2"/>
	<rect id="p_197_" x="104.9" y="18.6" class="st1" width="6.2" height="6.2"/>
	<rect id="p_198_" x="104.9" y="24.8" class="st1" width="6.2" height="6.2"/>
	<rect id="p_199_" x="104.9" y="31" class="st1" width="6.2" height="6.2"/>
	<rect id="p_200_" x="104.9" y="37.2" class="st1" width="6.2" height="6.2"/>
	<rect id="p_201_" x="104.9" y="49.7" class="st1" width="6.2" height="6.2"/>
	<rect id="p_202_" x="104.9" y="55.9" class="st1" width="6.2" height="6.2"/>
	<rect id="p_203_" x="104.9" y="68.3" class="st1" width="6.2" height="6.2"/>
	<rect id="p_204_" x="104.9" y="74.5" class="st1" width="6.2" height="6.2"/>
	<rect id="p_205_" x="104.9" y="80.7" class="st1" width="6.2" height="6.2"/>
	<rect id="p_206_" x="104.9" y="86.9" class="st1" width="6.2" height="6.2"/>
	<rect id="p_207_" x="104.9" y="93.1" class="st1" width="6.2" height="6.2"/>
	<rect id="p_208_" x="104.9" y="99.3" class="st1" width="6.2" height="6.2"/>
	<rect id="p_209_" x="104.9" y="111.7" class="st1" width="6.2" height="6.2"/>
	<rect id="p_210_" x="104.9" y="117.9" class="st1" width="6.2" height="6.2"/>
	<rect id="p_211_" x="104.9" y="136.6" class="st1" width="6.2" height="6.2"/>
	<rect id="p_212_" x="104.9" y="161.4" class="st1" width="6.2" height="6.2"/>
	<rect id="p_213_" x="104.9" y="167.6" class="st1" width="6.2" height="6.2"/>
	<rect id="p_214_" x="104.9" y="173.8" class="st1" width="6.2" height="6.2"/>
	<rect id="p_215_" x="111.1" class="st1" width="6.2" height="6.2"/>
	<rect id="p_216_" x="111.1" y="6.2" class="st1" width="6.2" height="6.2"/>
	<rect id="p_217_" x="111.1" y="18.6" class="st1" width="6.2" height="6.2"/>
	<rect id="p_218_" x="111.1" y="24.8" class="st1" width="6.2" height="6.2"/>
	<rect id="p_219_" x="111.1" y="49.7" class="st1" width="6.2" height="6.2"/>
	<rect id="p_220_" x="111.1" y="68.3" class="st1" width="6.2" height="6.2"/>
	<rect id="p_221_" x="111.1" y="86.9" class="st1" width="6.2" height="6.2"/>
	<rect id="p_222_" x="111.1" y="99.3" class="st1" width="6.2" height="6.2"/>
	<rect id="p_223_" x="111.1" y="117.9" class="st1" width="6.2" height="6.2"/>
	<rect id="p_224_" x="111.1" y="136.6" class="st1" width="6.2" height="6.2"/>
	<rect id="p_225_" x="111.1" y="149" class="st1" width="6.2" height="6.2"/>
	<rect id="p_226_" x="111.1" y="167.6" class="st1" width="6.2" height="6.2"/>
	<rect id="p_227_" x="117.3" y="12.4" class="st1" width="6.2" height="6.2"/>
	<rect id="p_228_" x="117.3" y="31" class="st1" width="6.2" height="6.2"/>
	<rect id="p_229_" x="117.3" y="37.2" class="st1" width="6.2" height="6.2"/>
	<rect id="p_230_" x="117.3" y="68.3" class="st1" width="6.2" height="6.2"/>
	<rect id="p_231_" x="117.3" y="86.9" class="st1" width="6.2" height="6.2"/>
	<rect id="p_232_" x="117.3" y="93.1" class="st1" width="6.2" height="6.2"/>
	<rect id="p_233_" x="117.3" y="105.5" class="st1" width="6.2" height="6.2"/>
	<rect id="p_234_" x="117.3" y="111.7" class="st1" width="6.2" height="6.2"/>
	<rect id="p_235_" x="117.3" y="117.9" class="st1" width="6.2" height="6.2"/>
	<rect id="p_236_" x="117.3" y="124.1" class="st1" width="6.2" height="6.2"/>
	<rect id="p_237_" x="117.3" y="130.3" class="st1" width="6.2" height="6.2"/>
	<rect id="p_238_" x="117.3" y="136.6" class="st1" width="6.2" height="6.2"/>
	<rect id="p_239_" x="117.3" y="149" class="st1" width="6.2" height="6.2"/>
	<rect id="p_240_" x="117.3" y="155.2" class="st1" width="6.2" height="6.2"/>
	<rect id="p_241_" x="117.3" y="173.8" class="st1" width="6.2" height="6.2"/>
	<rect id="p_242_" x="123.5" y="18.6" class="st1" width="6.2" height="6.2"/>
	<rect id="p_243_" x="123.5" y="24.8" class="st1" width="6.2" height="6.2"/>
	<rect id="p_244_" x="123.5" y="31" class="st1" width="6.2" height="6.2"/>
	<rect id="p_245_" x="123.5" y="49.7" class="st1" width="6.2" height="6.2"/>
	<rect id="p_246_" x="123.5" y="80.7" class="st1" width="6.2" height="6.2"/>
	<rect id="p_247_" x="123.5" y="86.9" class="st1" width="6.2" height="6.2"/>
	<rect id="p_248_" x="123.5" y="99.3" class="st1" width="6.2" height="6.2"/>
	<rect id="p_249_" x="123.5" y="105.5" class="st1" width="6.2" height="6.2"/>
	<rect id="p_250_" x="123.5" y="130.3" class="st1" width="6.2" height="6.2"/>
	<rect id="p_251_" x="123.5" y="136.6" class="st1" width="6.2" height="6.2"/>
	<rect id="p_252_" x="123.5" y="142.8" class="st1" width="6.2" height="6.2"/>
	<rect id="p_253_" x="123.5" y="149" class="st1" width="6.2" height="6.2"/>
	<rect id="p_254_" x="129.7" class="st1" width="6.2" height="6.2"/>
	<rect id="p_255_" x="129.7" y="18.6" class="st1" width="6.2" height="6.2"/>
	<rect id="p_256_" x="129.7" y="24.8" class="st1" width="6.2" height="6.2"/>
	<rect id="p_257_" x="129.7" y="37.2" class="st1" width="6.2" height="6.2"/>
	<rect id="p_258_" x="129.7" y="55.9" class="st1" width="6.2" height="6.2"/>
	<rect id="p_259_" x="129.7" y="80.7" class="st1" width="6.2" height="6.2"/>
	<rect id="p_260_" x="129.7" y="93.1" class="st1" width="6.2" height="6.2"/>
	<rect id="p_261_" x="129.7" y="99.3" class="st1" width="6.2" height="6.2"/>
	<rect id="p_262_" x="129.7" y="105.5" class="st1" width="6.2" height="6.2"/>
	<rect id="p_263_" x="129.7" y="124.1" class="st1" width="6.2" height="6.2"/>
	<rect id="p_264_" x="129.7" y="130.3" class="st1" width="6.2" height="6.2"/>
	<rect id="p_265_" x="129.7" y="142.8" class="st1" width="6.2" height="6.2"/>
	<rect id="p_266_" x="129.7" y="155.2" class="st1" width="6.2" height="6.2"/>
	<rect id="p_267_" x="129.7" y="161.4" class="st1" width="6.2" height="6.2"/>
	<rect id="p_268_" x="129.7" y="173.8" class="st1" width="6.2" height="6.2"/>
	<rect id="p_269_" x="135.9" y="12.4" class="st1" width="6.2" height="6.2"/>
	<rect id="p_270_" x="135.9" y="18.6" class="st1" width="6.2" height="6.2"/>
	<rect id="p_271_" x="135.9" y="24.8" class="st1" width="6.2" height="6.2"/>
	<rect id="p_272_" x="135.9" y="43.4" class="st1" width="6.2" height="6.2"/>
	<rect id="p_273_" x="135.9" y="55.9" class="st1" width="6.2" height="6.2"/>
	<rect id="p_274_" x="135.9" y="68.3" class="st1" width="6.2" height="6.2"/>
	<rect id="p_275_" x="135.9" y="80.7" class="st1" width="6.2" height="6.2"/>
	<rect id="p_276_" x="135.9" y="105.5" class="st1" width="6.2" height="6.2"/>
	<rect id="p_277_" x="135.9" y="111.7" class="st1" width="6.2" height="6.2"/>
	<rect id="p_278_" x="135.9" y="130.3" class="st1" width="6.2" height="6.2"/>
	<rect id="p_279_" x="135.9" y="136.6" class="st1" width="6.2" height="6.2"/>
	<rect id="p_280_" x="135.9" y="142.8" class="st1" width="6.2" height="6.2"/>
	<rect id="p_281_" x="135.9" y="149" class="st1" width="6.2" height="6.2"/>
	<rect id="p_282_" x="135.9" y="155.2" class="st1" width="6.2" height="6.2"/>
	<rect id="p_283_" x="135.9" y="161.4" class="st1" width="6.2" height="6.2"/>
	<rect id="p_284_" x="135.9" y="173.8" class="st1" width="6.2" height="6.2"/>
	<rect id="p_285_" x="142.1" y="6.2" class="st1" width="6.2" height="6.2"/>
	<rect id="p_286_" x="142.1" y="12.4" class="st1" width="6.2" height="6.2"/>
	<rect id="p_287_" x="142.1" y="18.6" class="st1" width="6.2" height="6.2"/>
	<rect id="p_288_" x="142.1" y="24.8" class="st1" width="6.2" height="6.2"/>
	<rect id="p_289_" x="142.1" y="31" class="st1" width="6.2" height="6.2"/>
	<rect id="p_290_" x="142.1" y="37.2" class="st1" width="6.2" height="6.2"/>
	<rect id="p_291_" x="142.1" y="68.3" class="st1" width="6.2" height="6.2"/>
	<rect id="p_292_" x="142.1" y="74.5" class="st1" width="6.2" height="6.2"/>
	<rect id="p_293_" x="142.1" y="86.9" class="st1" width="6.2" height="6.2"/>
	<rect id="p_294_" x="142.1" y="105.5" class="st1" width="6.2" height="6.2"/>
	<rect id="p_295_" x="142.1" y="111.7" class="st1" width="6.2" height="6.2"/>
	<rect id="p_296_" x="142.1" y="124.1" class="st1" width="6.2" height="6.2"/>
	<rect id="p_297_" x="142.1" y="130.3" class="st1" width="6.2" height="6.2"/>
	<rect id="p_298_" x="142.1" y="136.6" class="st1" width="6.2" height="6.2"/>
	<rect id="p_299_" x="142.1" y="142.8" class="st1" width="6.2" height="6.2"/>
	<rect id="p_300_" x="142.1" y="149" class="st1" width="6.2" height="6.2"/>
	<rect id="p_301_" x="148.3" y="49.7" class="st1" width="6.2" height="6.2"/>
	<rect id="p_302_" x="148.3" y="55.9" class="st1" width="6.2" height="6.2"/>
	<rect id="p_303_" x="148.3" y="62.1" class="st1" width="6.2" height="6.2"/>
	<rect id="p_304_" x="148.3" y="86.9" class="st1" width="6.2" height="6.2"/>
	<rect id="p_305_" x="148.3" y="117.9" class="st1" width="6.2" height="6.2"/>
	<rect id="p_306_" x="148.3" y="124.1" class="st1" width="6.2" height="6.2"/>
	<rect id="p_307_" x="148.3" y="149" class="st1" width="6.2" height="6.2"/>
	<rect id="p_308_" x="148.3" y="155.2" class="st1" width="6.2" height="6.2"/>
	<rect id="p_309_" x="148.3" y="161.4" class="st1" width="6.2" height="6.2"/>
	<rect id="p_310_" x="148.3" y="167.6" class="st1" width="6.2" height="6.2"/>
	<rect id="p_311_" x="148.3" y="173.8" class="st1" width="6.2" height="6.2"/>
	<rect id="p_312_" x="154.6" class="st1" width="6.2" height="6.2"/>
	<rect id="p_313_" x="154.6" y="6.2" class="st1" width="6.2" height="6.2"/>
	<rect id="p_314_" x="154.6" y="12.4" class="st1" width="6.2" height="6.2"/>
	<rect id="p_315_" x="154.6" y="18.6" class="st1" width="6.2" height="6.2"/>
	<rect id="p_316_" x="154.6" y="24.8" class="st1" width="6.2" height="6.2"/>
	<rect id="p_317_" x="154.6" y="31" class="st1" width="6.2" height="6.2"/>
	<rect id="p_318_" x="154.6" y="37.2" class="st1" width="6.2" height="6.2"/>
	<rect id="p_319_" x="154.6" y="49.7" class="st1" width="6.2" height="6.2"/>
	<rect id="p_320_" x="154.6" y="74.5" class="st1" width="6.2" height="6.2"/>
	<rect id="p_321_" x="154.6" y="80.7" class="st1" width="6.2" height="6.2"/>
	<rect id="p_322_" x="154.6" y="86.9" class="st1" width="6.2" height="6.2"/>
	<rect id="p_323_" x="154.6" y="93.1" class="st1" width="6.2" height="6.2"/>
	<rect id="p_324_" x="154.6" y="105.5" class="st1" width="6.2" height="6.2"/>
	<rect id="p_325_" x="154.6" y="117.9" class="st1" width="6.2" height="6.2"/>
	<rect id="p_326_" x="154.6" y="124.1" class="st1" width="6.2" height="6.2"/>
	<rect id="p_327_" x="154.6" y="136.6" class="st1" width="6.2" height="6.2"/>
	<rect id="p_328_" x="154.6" y="149" class="st1" width="6.2" height="6.2"/>
	<rect id="p_329_" x="154.6" y="161.4" class="st1" width="6.2" height="6.2"/>
	<rect id="p_330_" x="154.6" y="173.8" class="st1" width="6.2" height="6.2"/>
	<rect id="p_331_" x="160.8" class="st1" width="6.2" height="6.2"/>
	<rect id="p_332_" x="160.8" y="37.2" class="st1" width="6.2" height="6.2"/>
	<rect id="p_333_" x="160.8" y="55.9" class="st1" width="6.2" height="6.2"/>
	<rect id="p_334_" x="160.8" y="68.3" class="st1" width="6.2" height="6.2"/>
	<rect id="p_335_" x="160.8" y="74.5" class="st1" width="6.2" height="6.2"/>
	<rect id="p_336_" x="160.8" y="86.9" class="st1" width="6.2" height="6.2"/>
	<rect id="p_337_" x="160.8" y="93.1" class="st1" width="6.2" height="6.2"/>
	<rect id="p_338_" x="160.8" y="99.3" class="st1" width="6.2" height="6.2"/>
	<rect id="p_339_" x="160.8" y="105.5" class="st1" width="6.2" height="6.2"/>
	<rect id="p_340_" x="160.8" y="117.9" class="st1" width="6.2" height="6.2"/>
	<rect id="p_341_" x="160.8" y="124.1" class="st1" width="6.2" height="6.2"/>
	<rect id="p_342_" x="160.8" y="149" class="st1" width="6.2" height="6.2"/>
	<rect id="p_343_" x="160.8" y="155.2" class="st1" width="6.2" height="6.2"/>
	<rect id="p_344_" x="160.8" y="161.4" class="st1" width="6.2" height="6.2"/>
	<rect id="p_345_" x="160.8" y="167.6" class="st1" width="6.2" height="6.2"/>
	<rect id="p_346_" x="160.8" y="173.8" class="st1" width="6.2" height="6.2"/>
	<rect id="p_347_" x="167" class="st1" width="6.2" height="6.2"/>
	<rect id="p_348_" x="167" y="12.4" class="st1" width="6.2" height="6.2"/>
	<rect id="p_349_" x="167" y="18.6" class="st1" width="6.2" height="6.2"/>
	<rect id="p_350_" x="167" y="24.8" class="st1" width="6.2" height="6.2"/>
	<rect id="p_351_" x="167" y="37.2" class="st1" width="6.2" height="6.2"/>
	<rect id="p_352_" x="167" y="55.9" class="st1" width="6.2" height="6.2"/>
	<rect id="p_353_" x="167" y="80.7" class="st1" width="6.2" height="6.2"/>
	<rect id="p_354_" x="167" y="93.1" class="st1" width="6.2" height="6.2"/>
	<rect id="p_355_" x="167" y="105.5" class="st1" width="6.2" height="6.2"/>
	<rect id="p_356_" x="167" y="117.9" class="st1" width="6.2" height="6.2"/>
	<rect id="p_357_" x="167" y="124.1" class="st1" width="6.2" height="6.2"/>
	<rect id="p_358_" x="167" y="130.3" class="st1" width="6.2" height="6.2"/>
	<rect id="p_359_" x="167" y="136.6" class="st1" width="6.2" height="6.2"/>
	<rect id="p_360_" x="167" y="142.8" class="st1" width="6.2" height="6.2"/>
	<rect id="p_361_" x="167" y="149" class="st1" width="6.2" height="6.2"/>
	<rect id="p_362_" x="167" y="161.4" class="st1" width="6.2" height="6.2"/>
	<rect id="p_363_" x="167" y="173.8" class="st1" width="6.2" height="6.2"/>
	<rect id="p_364_" x="173.2" class="st1" width="6.2" height="6.2"/>
	<rect id="p_365_" x="173.2" y="12.4" class="st1" width="6.2" height="6.2"/>
	<rect id="p_366_" x="173.2" y="18.6" class="st1" width="6.2" height="6.2"/>
	<rect id="p_367_" x="173.2" y="24.8" class="st1" width="6.2" height="6.2"/>
	<rect id="p_368_" x="173.2" y="37.2" class="st1" width="6.2" height="6.2"/>
	<rect id="p_369_" x="173.2" y="49.7" class="st1" width="6.2" height="6.2"/>
	<rect id="p_370_" x="173.2" y="68.3" class="st1" width="6.2" height="6.2"/>
	<rect id="p_371_" x="173.2" y="86.9" class="st1" width="6.2" height="6.2"/>
	<rect id="p_372_" x="173.2" y="99.3" class="st1" width="6.2" height="6.2"/>
	<rect id="p_373_" x="173.2" y="111.7" class="st1" width="6.2" height="6.2"/>
	<rect id="p_374_" x="173.2" y="130.3" class="st1" width="6.2" height="6.2"/>
	<rect id="p_375_" x="173.2" y="136.6" class="st1" width="6.2" height="6.2"/>
	<rect id="p_376_" x="173.2" y="149" class="st1" width="6.2" height="6.2"/>
	<rect id="p_377_" x="173.2" y="155.2" class="st1" width="6.2" height="6.2"/>
	<rect id="p_378_" x="173.2" y="161.4" class="st1" width="6.2" height="6.2"/>
	<rect id="p_379_" x="173.2" y="167.6" class="st1" width="6.2" height="6.2"/>
	<rect id="p_380_" x="173.2" y="173.8" class="st1" width="6.2" height="6.2"/>
	<rect id="p_381_" x="179.4" class="st1" width="6.2" height="6.2"/>
	<rect id="p_382_" x="179.4" y="12.4" class="st1" width="6.2" height="6.2"/>
	<rect id="p_383_" x="179.4" y="18.6" class="st1" width="6.2" height="6.2"/>
	<rect id="p_384_" x="179.4" y="24.8" class="st1" width="6.2" height="6.2"/>
	<rect id="p_385_" x="179.4" y="37.2" class="st1" width="6.2" height="6.2"/>
	<rect id="p_386_" x="179.4" y="49.7" class="st1" width="6.2" height="6.2"/>
	<rect id="p_387_" x="179.4" y="55.9" class="st1" width="6.2" height="6.2"/>
	<rect id="p_388_" x="179.4" y="86.9" class="st1" width="6.2" height="6.2"/>
	<rect id="p_389_" x="179.4" y="93.1" class="st1" width="6.2" height="6.2"/>
	<rect id="p_390_" x="179.4" y="99.3" class="st1" width="6.2" height="6.2"/>
	<rect id="p_391_" x="179.4" y="105.5" class="st1" width="6.2" height="6.2"/>
	<rect id="p_392_" x="179.4" y="124.1" class="st1" width="6.2" height="6.2"/>
	<rect id="p_393_" x="179.4" y="136.6" class="st1" width="6.2" height="6.2"/>
	<rect id="p_394_" x="179.4" y="155.2" class="st1" width="6.2" height="6.2"/>
	<rect id="p_395_" x="179.4" y="161.4" class="st1" width="6.2" height="6.2"/>
	<rect id="p_396_" x="179.4" y="167.6" class="st1" width="6.2" height="6.2"/>
	<rect id="p_397_" x="179.4" y="173.8" class="st1" width="6.2" height="6.2"/>
	<rect id="p_398_" x="185.6" class="st1" width="6.2" height="6.2"/>
	<rect id="p_399_" x="185.6" y="37.2" class="st1" width="6.2" height="6.2"/>
	<rect id="p_400_" x="185.6" y="49.7" class="st1" width="6.2" height="6.2"/>
	<rect id="p_401_" x="185.6" y="55.9" class="st1" width="6.2" height="6.2"/>
	<rect id="p_402_" x="185.6" y="80.7" class="st1" width="6.2" height="6.2"/>
	<rect id="p_403_" x="185.6" y="105.5" class="st1" width="6.2" height="6.2"/>
	<rect id="p_404_" x="185.6" y="124.1" class="st1" width="6.2" height="6.2"/>
	<rect id="p_405_" x="185.6" y="142.8" class="st1" width="6.2" height="6.2"/>
	<rect id="p_406_" x="185.6" y="149" class="st1" width="6.2" height="6.2"/>
	<rect id="p_407_" x="185.6" y="155.2" class="st1" width="6.2" height="6.2"/>
	<rect id="p_408_" x="185.6" y="161.4" class="st1" width="6.2" height="6.2"/>
	<rect id="p_409_" x="191.8" class="st1" width="6.2" height="6.2"/>
	<rect id="p_410_" x="191.8" y="6.2" class="st1" width="6.2" height="6.2"/>
	<rect id="p_411_" x="191.8" y="12.4" class="st1" width="6.2" height="6.2"/>
	<rect id="p_412_" x="191.8" y="18.6" class="st1" width="6.2" height="6.2"/>
	<rect id="p_413_" x="191.8" y="24.8" class="st1" width="6.2" height="6.2"/>
	<rect id="p_414_" x="191.8" y="31" class="st1" width="6.2" height="6.2"/>
	<rect id="p_415_" x="191.8" y="37.2" class="st1" width="6.2" height="6.2"/>
	<rect id="p_416_" x="191.8" y="74.5" class="st1" width="6.2" height="6.2"/>
	<rect id="p_417_" x="191.8" y="80.7" class="st1" width="6.2" height="6.2"/>
	<rect id="p_418_" x="191.8" y="93.1" class="st1" width="6.2" height="6.2"/>
	<rect id="p_419_" x="191.8" y="105.5" class="st1" width="6.2" height="6.2"/>
	<rect id="p_420_" x="191.8" y="111.7" class="st1" width="6.2" height="6.2"/>
	<rect id="p_421_" x="191.8" y="124.1" class="st1" width="6.2" height="6.2"/>
	<rect id="p_422_" x="191.8" y="142.8" class="st1" width="6.2" height="6.2"/>
	<rect id="p_423_" x="191.8" y="167.6" class="st1" width="6.2" height="6.2"/>
</g>
<rect id="Rectangle" x="115.9" y="55.9" class="st0" width="68.3" height="68.3"/>
<linearGradient id="gradient_1_" gradientUnits="userSpaceOnUse" x1="137.9773" y1="174.74" x2="137.9773" y2="173.74" gradientTransform="matrix(264 0 0 -202.7 -36276 35536.8008)">
	<stop  offset="0" style="stop-color:#4CAF50"/>
	<stop  offset="1" style="stop-color:#4CAF50;stop-opacity:0"/>
</linearGradient>
<rect id="gradient" x="18" y="117" class="st2" width="264" height="202.7"/>
<rect id="bar" x="18" y="117" class="st3" width="264" height="2.4"/>
<path id="Rectangle-7_2_" class="st3" d="M101,211h99c12.7,0,23,10.3,23,23s-10.3,23-23,23h-99c-12.7,0-23-10.3-23-23
	S88.3,211,101,211z"/>
<circle id="Oval-4-Copy" class="st0" cx="101" cy="234" r="14"/>
<polygon id="Path" class="st3" points="98.3,241.6 91.8,235.1 91.8,235 93.5,233.3 93.6,233.3 98.3,238 108.3,228 108.4,228 
	108.4,228 110.1,229.8 110.1,229.9 98.4,241.6 "/>
<path id="PAID" class="st0" d="M137.7,235.7v6.3h-3v-17.1h6.5c1.9,0,3.4,0.5,4.5,1.5s1.7,2.3,1.7,3.9c0,1.7-0.5,3-1.6,3.9
	s-2.6,1.4-4.6,1.4H137.7z M137.7,233.3h3.6c1.1,0,1.9-0.2,2.4-0.7s0.8-1.2,0.8-2.2c0-0.9-0.3-1.7-0.8-2.2s-1.3-0.8-2.3-0.8h-3.6
	V233.3z M159.6,238H153l-1.4,4h-3.1l6.4-17.1h2.7l6.5,17.1H161L159.6,238z M153.8,235.6h4.9l-2.5-7.1L153.8,235.6z M169.2,242h-3
	v-17.1h3V242z M172.8,242v-17.1h5c1.5,0,2.8,0.3,4,1s2.1,1.6,2.7,2.9s1,2.6,1,4.2v0.9c0,1.6-0.3,3-1,4.3s-1.6,2.2-2.8,2.8
	s-2.6,1-4.1,1H172.8z M175.8,227.3v12.3h1.9c1.6,0,2.7-0.5,3.6-1.5s1.3-2.4,1.3-4.2V233c0-1.9-0.4-3.3-1.2-4.2s-2-1.5-3.5-1.5H175.8
	z"/>
<g>
	<g>
		<g>
			<g>
				<path class="st4" d="M150.2,69.5c-11.1,0-20,8.9-20,20s8.9,20,20,20s20-8.9,20-20S161.3,69.5,150.2,69.5z"/>
			</g>
		</g>
		<g>
			<g>
				<g>
					<path class="st0" d="M158.5,83.3h-3.7l-1.8-3.2l-3-5.2c-0.1-0.2-0.2-0.2-0.4-0.2h-2.7c-0.4,0-0.7,0.4-0.4,0.8l5.9,8H142
						c-0.2,0-0.5,0.2-0.5,0.5v2.2c0,0.2,0.2,0.5,0.5,0.5h2.4v6.1c0,0.9,0.2,1.8,0.7,2.7c1,1.9,3,3.2,5.2,3.2c0.9,0,1.8-0.2,2.7-0.7
						v4.9c0,0.2,0.2,0.5,0.5,0.5h2.2c0.2,0,0.5-0.2,0.5-0.5V86.6h2.3c0.2,0,0.5-0.2,0.5-0.5v-2.2C159,83.6,158.8,83.3,158.5,83.3z
						 M152.9,92.7c0,1.5-1.2,2.7-2.7,2.7s-2.7-1.2-2.7-2.7v-6.1h5.3C152.9,86.6,152.9,92.7,152.9,92.7z"/>
				</g>
			</g>
		</g>
	</g>
</g>
</svg>
