<?xml version="1.0" encoding="UTF-8" standalone="no"?>
<svg
   xmlns:dc="http://purl.org/dc/elements/1.1/"
   xmlns:cc="http://creativecommons.org/ns#"
   xmlns:rdf="http://www.w3.org/1999/02/22-rdf-syntax-ns#"
   xmlns:svg="http://www.w3.org/2000/svg"
   xmlns="http://www.w3.org/2000/svg"
   id="svg306"
   version="1.1"
   viewBox="0 0 460 460"
   height="460"
   width="460">
  <metadata
     id="metadata312">
    <rdf:RDF>
      <cc:Work
         rdf:about="">
        <dc:format>image/svg+xml</dc:format>
        <dc:type
           rdf:resource="http://purl.org/dc/dcmitype/StillImage" />
      </cc:Work>
    </rdf:RDF>
  </metadata>
  <defs
     id="defs310" />
  <g
     id="g304"
     fill-rule="nonzero"
     fill="none">
    <path
       id="path2"
       d="M360.633 29.404s3.324-26.518 0-26.518 0 26.518 0 26.518zM360.633 82.44s-3.324 26.517 0 26.517 0-26.518 0-26.518zM334.219 55.922s-26.414-3.338-26.414 0c0 3.337 26.414 0 26.414 0zM387.047 55.922s26.414 3.337 26.414 0c0-3.338-26.414 0-26.414 0zM341.945 37.16s-16.351-21.105-18.687-18.76c-2.336 2.345 18.687 18.76 18.687 18.76zM379.32 74.682s16.352 21.106 18.688 18.761c2.336-2.345-18.688-18.76-18.688-18.76zM341.945 74.682s-21.023 16.416-18.687 18.761c2.336 2.345 18.687-18.76 18.687-18.76zM379.32 37.16s21.024-16.415 18.688-18.76c-2.336-2.345-18.688 18.76-18.688 18.76z"
       fill="#F2CA72" />
    <path
       id="path4"
       d="M350.57 31.388s-7.007-25.796-10.062-24.443c-3.145 1.263 10.062 24.443 10.062 24.443zM370.785 80.365s7.008 25.796 10.063 24.443c3.054-1.173-10.063-24.443-10.063-24.443zM336.285 66.024s-25.695 7.035-24.437 10.101c1.257 3.157 24.437-10.101 24.437-10.101zM385.07 45.82s25.696-7.036 24.348-10.102C408.07 32.65 385.07 45.82 385.07 45.82zM336.285 45.82s-23.09-13.26-24.437-10.102c-1.348 3.157 24.437 10.102 24.437 10.102zM385.07 66.024s23.09 13.258 24.348 10.101c1.258-2.976-24.348-10.101-24.348-10.101zM350.57 80.365s-13.207 23.18-10.062 24.443c2.965 1.353 10.062-24.443 10.062-24.443zM370.785 31.388s13.207-23.18 10.063-24.443c-3.145-1.263-10.063 24.443-10.063 24.443z"
       fill="#9A93DB" />
    <path
       id="path6"
       d="M334.758 18.49s-2.336-11.184-5.93-8.568c-3.594 2.615 5.93 8.568 5.93 8.568zM316.07 47.804s-9.523-6.224-10.332-1.894c-.808 4.42 10.332 1.894 10.332 1.894zM323.348 81.898s-11.141 2.345-8.536 5.953c2.606 3.608 8.536-5.953 8.536-5.953zM352.547 100.749s-6.2 9.56-1.887 10.282c4.402.812 1.887-10.282 1.887-10.282zM386.508 93.353s2.336 11.184 5.93 8.659c3.683-2.616-5.93-8.66-5.93-8.66zM405.285 64.04s9.524 6.223 10.332 1.893c.719-4.42-10.332-1.894-10.332-1.894zM397.918 29.945s11.14-2.345 8.625-5.953c-2.516-3.698-8.625 5.953-8.625 5.953zM368.719 11.094s6.199-9.56 1.886-10.372c-4.402-.722-1.886 10.372-1.886 10.372z"
       fill="#F2CA72" />
    <path
       id="path8"
       d="M352.547 11.094S355.062 0 350.66.722c-4.312.811 1.887 10.372 1.887 10.372zM323.348 29.945s-6.02-9.65-8.536-5.953c-2.515 3.608 8.536 5.953 8.536 5.953zM316.07 64.04s-11.05-2.526-10.332 1.893c.809 4.33 10.332-1.894 10.332-1.894zM334.758 93.353s-9.524 6.133-5.93 8.569c3.594 2.435 5.93-8.57 5.93-8.57zM368.719 100.749s-2.516 11.094 1.886 10.282c4.403-.811-1.886-10.282-1.886-10.282zM397.918 81.898s6.11 9.651 8.625 5.953c2.516-3.608-8.625-5.953-8.625-5.953zM405.285 47.804s11.05 2.525 10.332-1.894c-.808-4.33-10.332 1.894-10.332 1.894zM386.508 18.49s9.613-6.133 5.93-8.659c-3.594-2.525-5.93 8.66-5.93 8.66zM45.102 137.098s-6.649-29.494-10.243-28.231c-3.593 1.262 10.243 28.231 10.243 28.231zM32.973 147.29S8.984 128.98 7.008 132.227c-1.797 3.338 25.965 15.063 25.965 15.063zM30.277 162.804S.09 164.247.81 168.035c.628 3.789 29.468-5.231 29.468-5.231zM38.184 176.514s-22.102 20.564-19.317 23c2.785 2.435 19.317-23 19.317-23zM52.918 181.925s-3.773 30.036 0 30.036c3.863 0 0-30.036 0-30.036zM67.742 176.514s16.352 25.525 19.227 23c2.875-2.526-19.227-23-19.227-23zM75.648 162.804s28.84 8.93 29.47 5.231c.628-3.698-29.47-5.231-29.47-5.231zM72.863 147.29s27.852-11.725 25.965-15.063c-1.887-3.247-25.965 15.063-25.965 15.063zM60.824 137.098s13.836-26.969 10.242-28.231c-3.593-1.263-10.242 28.231-10.242 28.231z"
       fill="#9A93DB" />
    <path
       id="path10"
       d="M40.34 146.659s-13.567-22.188-16.442-19.663c-2.964 2.435 16.442 19.663 16.442 19.663zM33.602 158.294s-24.528-8.208-25.157-4.42c-.629 3.789 25.157 4.42 25.157 4.42zM35.938 171.643s-24.079 9.56-22.192 12.808c1.887 3.337 22.191-12.808 22.191-12.808zM46.18 180.392s-12.309 22.82-8.805 24.173c3.504 1.353 8.805-24.173 8.805-24.173zM59.656 180.392s5.211 25.435 8.715 24.173c3.504-1.263-8.715-24.173-8.715-24.173zM69.988 171.643s20.305 16.145 22.192 12.808c1.886-3.247-22.192-12.808-22.192-12.808zM72.324 158.294s25.875-.721 25.246-4.51c-.629-3.698-25.246 4.51-25.246 4.51zM65.586 146.659s19.316-17.228 16.441-19.663c-2.875-2.525-16.441 19.663-16.441 19.663zM52.918 141.969s3.773-25.706 0-25.706 0 25.706 0 25.706z"
       fill="#69E2CB" />
    <path
       id="path12"
       d="M45.46 155.498s-7.905-8.93-9.792-5.682c-1.887 3.247 9.793 5.682 9.793 5.682zM44.383 161.36s-11.77-1.803-11.14 1.985c.628 3.788 11.14-1.984 11.14-1.984zM47.348 166.502s-10.153 6.223-7.278 8.659c2.875 2.435 7.278-8.659 7.278-8.659zM52.918 168.576s-3.773 11.365 0 11.365c3.863-.09 0-11.365 0-11.365zM58.488 166.502s4.313 11.094 7.278 8.659c2.964-2.436-7.278-8.659-7.278-8.659zM61.543 161.36s10.422 5.683 11.14 1.985c.54-3.788-11.14-1.984-11.14-1.984zM60.465 155.498s11.68-2.345 9.793-5.682c-1.977-3.338-9.793 5.682-9.793 5.682zM55.883 151.62s7.367-9.38 3.863-10.644c-3.504-1.262-3.863 10.644-3.863 10.644zM49.953 151.62s-.27-11.906-3.863-10.644c-3.504 1.353 3.863 10.644 3.863 10.644z"
       fill="#F2CA72" />
    <path
       id="path14"
       d="M128.297 183.278h1.797v54.84h-1.797a5.648 5.648 0 0 1-5.66-5.683v-43.384c-.09-3.157 2.515-5.773 5.66-5.773zM127.129 109.588h2.875v34.906h-2.875c-2.516 0-4.492-2.074-4.492-4.6v-25.796c-.09-2.435 1.976-4.51 4.492-4.51z"
       fill="#7F77C6" />
    <path
       id="path16"
       d="M366.293 335.078h-5.57v1.624h1.257l2.157-.812 2.156-.812M360.723 335.078h-12.13v1.534h12.13v-1.534"
       fill="#DFDFDF" />
    <path
       id="path18"
       d="M348.594 335.078h-1.887v1.534h1.887v-1.534"
       fill="#59359D" />
    <path
       id="path20"
       d="M400.254 318.482c-1.258-4.69-4.852-8.478-9.524-9.831-8.445-2.616-17.878 2.435-23 8.298-3.593 4.24-6.558 8.93-8.894 13.98h-7.367c-2.336-5.05-5.301-9.74-8.895-13.98-5.12-5.863-14.554-10.914-23-8.298-4.672 1.353-8.265 5.051-9.523 9.831-1.617 5.863.18 13.079 4.492 17.86 4.672 5.23 11.23 7.485 16.98 9.56l2.247.812c5.48 1.984 11.05 3.608 16.71 4.78l1.618-7.667 3.054-1.443 3.055 1.443 1.617 7.667c5.66-1.263 11.23-2.796 16.711-4.78l2.246-.812c5.75-1.984 12.309-4.33 16.98-9.56 4.313-4.871 6.11-11.997 4.493-17.86zm-63.52 19.934l-2.336-.812c-5.03-1.804-10.242-3.608-13.386-7.126-2.336-2.615-3.414-6.674-2.606-9.74a5.06 5.06 0 0 1 3.774-3.789c1.437-.36 2.875-.451 4.312-.09 3.684.902 7.098 2.976 9.613 5.772 4.493 5.051 7.278 11.275 10.332 17.95l.45.992c-3.325-.812-6.739-1.895-10.153-3.157zm52.559-7.938c-3.145 3.518-8.356 5.412-13.387 7.126l-2.336.812a111.952 111.952 0 0 1-10.242 3.247c.18-.361.36-.722.45-.992 3.054-6.675 5.929-12.898 10.331-17.95 2.516-2.886 5.93-4.87 9.614-5.772 1.437-.36 2.964-.27 4.402.09a5.06 5.06 0 0 1 3.773 3.788c.809 2.977-.27 7.036-2.605 9.651z"
       fill="#8776CC" />
    <path
       id="path22"
       d="M400.254 318.482l.988-.27c-.629-2.436-1.887-4.69-3.683-6.585a15.384 15.384 0 0 0-6.47-3.878c-1.616-.541-3.413-.812-5.12-.722-3.684.09-7.367 1.083-10.602 2.797-3.144 1.623-5.93 3.878-8.265 6.494-3.594 4.33-6.649 9.11-8.985 14.16l.899.451.09-.992h-7.368v.992l.899-.45a60.956 60.956 0 0 0-8.985-14.161 29.413 29.413 0 0 0-8.355-6.494c-3.235-1.804-6.918-2.797-10.602-2.797-1.707 0-3.414.271-5.12.812a15.384 15.384 0 0 0-6.47 3.879c-1.796 1.804-3.054 4.058-3.683 6.584-.45 1.533-.629 3.157-.629 4.69a21.386 21.386 0 0 0 5.3 14.07c4.852 5.413 11.59 7.758 17.43 9.832l2.247.812a134.265 134.265 0 0 0 16.89 4.87c.27.09.54 0 .719-.09.18-.18.36-.36.45-.631l1.526-7.216 2.157-.992 2.156.992 1.527 7.216c.09.541.63.902 1.168.812 5.75-1.263 11.32-2.887 16.89-4.87l2.247-.813c5.75-2.074 12.488-4.33 17.34-9.831a21.386 21.386 0 0 0 5.3-14.07c0-1.624-.18-3.158-.628-4.69l-1.258.09-.988.27c.359 1.353.539 2.796.539 4.24 0 4.69-1.707 9.2-4.852 12.717-4.492 4.96-10.781 7.215-16.531 9.29l-2.246.812c-5.39 1.984-10.961 3.608-16.621 4.78l.18.992.988-.18-1.618-7.667c-.09-.27-.27-.54-.539-.721l-2.964-1.443a.813.813 0 0 0-.899 0l-3.055 1.443c-.27.09-.449.36-.539.721l-1.617 7.667.988.18.18-.992c-5.66-1.263-11.23-2.796-16.62-4.78l-2.247-.812c-5.75-1.984-12.129-4.33-16.531-9.29a19.401 19.401 0 0 1-4.762-12.718c0-1.443.18-2.796.54-4.24.538-2.164 1.706-4.148 3.233-5.681 1.618-1.624 3.504-2.796 5.66-3.428 1.438-.45 2.965-.631 4.493-.631 3.414.09 6.738.992 9.793 2.615a26.763 26.763 0 0 1 7.726 6.044c3.504 4.149 6.47 8.749 8.715 13.71.18.36.54.54.899.54H358.836c.36 0 .809-.18.988-.54 2.246-4.961 5.211-9.561 8.715-13.71 2.246-2.436 4.852-4.51 7.727-6.044a21.374 21.374 0 0 1 9.703-2.615c1.527 0 3.054.18 4.492.631 2.156.632 4.133 1.804 5.66 3.428a13.787 13.787 0 0 1 3.234 5.682l.899-.27zm-63.52 19.934l.36-.902c-.719-.27-1.528-.541-2.336-.812-2.516-.812-4.942-1.804-7.278-2.886a19.428 19.428 0 0 1-5.66-3.969c-1.617-1.894-2.605-4.33-2.605-6.855 0-.631.09-1.263.27-1.894.18-.722.538-1.443 1.077-1.984.54-.541 1.258-.902 1.977-1.173a6.815 6.815 0 0 1 1.887-.27c.629 0 1.258.09 1.887.18a18.256 18.256 0 0 1 9.074 5.502c4.312 4.87 7.187 11.094 10.152 17.678.18.361.27.722.45.993l.898-.451.27-.993c-3.415-.902-6.739-1.984-10.153-3.156l-.27.992-.359.902a113.654 113.654 0 0 0 10.332 3.247c.54.18 1.078-.18 1.168-.722.09-.18 0-.45-.09-.631-.18-.361-.27-.722-.45-.992-3.054-6.675-5.929-12.989-10.51-18.22-2.696-3.067-6.2-5.141-10.153-6.133a10.32 10.32 0 0 0-2.336-.27c-.809 0-1.707.09-2.516.36-1.078.27-2.066.902-2.785 1.623-.719.812-1.348 1.804-1.617 2.796-.18.812-.36 1.624-.36 2.436 0 2.976 1.169 5.953 3.145 8.208a20.683 20.683 0 0 0 6.29 4.51 107.03 107.03 0 0 0 7.456 2.976l2.246.812.54-.902zm52.559-7.938l-.719-.63a17.437 17.437 0 0 1-5.66 3.968 71.826 71.826 0 0 1-7.277 2.886c-.809.27-1.528.541-2.336.812-3.414 1.262-6.828 2.255-10.153 3.157l.27.992.898.45c.18-.36.36-.72.45-.991 3.054-6.675 5.84-12.808 10.152-17.679a18.256 18.256 0 0 1 9.074-5.502c.63-.18 1.258-.18 1.887-.18s1.348.09 1.887.27c.718.18 1.437.632 1.976 1.173.54.541.899 1.172 1.078 1.984.18.632.27 1.263.27 1.894-.09 2.526-.988 4.961-2.606 6.855l.809.541.719.632c1.976-2.255 3.054-5.232 3.144-8.208 0-.812-.09-1.624-.27-2.435-.269-1.083-.808-2.075-1.616-2.796a6.308 6.308 0 0 0-2.786-1.624c-.808-.27-1.707-.36-2.515-.36-.809 0-1.528.09-2.336.27-3.953.992-7.457 3.067-10.153 6.133-4.582 5.232-7.457 11.545-10.511 18.22l-.45.992c-.18.36-.09.722.18 1.082.27.27.63.451.988.27a113.654 113.654 0 0 0 10.333-3.246l2.246-.812a58.4 58.4 0 0 0 7.457-2.976 20.683 20.683 0 0 0 6.289-4.51l-.719-.632z"
       fill="#663DB4" />
    <path
       id="path24"
       d="M417.055 337.604v36.349H293.34v-36.35h123.715"
       fill="#FD8" />
    <path
       id="path26"
       d="M417.055 337.604v36.349H312.117v-36.35h104.938"
       fill="#F2CA72" />
    <path
       id="path28"
       d="M417.055 337.604h-.989v35.357H294.328v-34.275h122.727v-2.074H293.34a.999.999 0 0 0-.988.992v36.259c0 .27.09.54.27.721.179.18.448.27.718.27h123.715c.539 0 .988-.45.988-.991v-36.26c0-.27-.09-.54-.27-.72-.18-.181-.449-.271-.718-.271v.992"
       fill="#663DB4" />
    <path
       id="path30"
       d="M409.777 373.953v63.859h-109.25v-63.86h109.25"
       fill="#69E2CB" />
    <path
       id="path32"
       d="M409.777 373.953v63.859h-97.39v-63.86h97.39"
       fill="#50D8BE" />
    <path
       id="path34"
       d="M409.777 437.812v-.992H301.516v-61.875h107.273v62.957H410.766v-63.95c0-.27-.09-.54-.27-.72-.18-.181-.45-.271-.719-.271h-109.25c-.27 0-.539.09-.718.27-.18.18-.27.451-.27.722v63.949c0 .27.09.541.27.722.18.18.449.27.718.27h109.25c.27 0 .54-.09.72-.27.179-.18.269-.451.269-.722h-.989"
       fill="#663DB4" />
    <path
       id="path36"
       d="M370.246 437.812h-30.098V337.604h30.098v100.208"
       fill="#8776CC" />
    <path
       id="path38"
       d="M370.246 437.812v-.992h-29.11v-98.224h28.122v99.216h1.976V337.604c0-.27-.09-.541-.27-.722-.179-.18-.448-.27-.718-.27h-30.098c-.27 0-.539.09-.718.27-.18.18-.27.451-.27.722v100.208c0 .54.45.992.988.992h30.098c.27 0 .54-.09.719-.27.18-.181.27-.452.27-.722h-.989"
       fill="#663DB4" />
    <path
       id="path40"
       d="M339.879 375.125h30.637c.539 0 .988-.45.988-.992a.999.999 0 0 0-.988-.992h-30.637a.999.999 0 0 0-.988.992c0 .542.449.992.988.992"
       fill="#663DB4" />
    <path
       id="path42"
       d="M408.79 374.945h-37.556v8.118h37.555v-8.118"
       fill="#46BDA6" />
    <path
       id="path44"
       d="M410.137 374.133h-38.543c0 .27-.09.542-.36.722v.09h37.555v8.118h1.348v-8.93"
       fill="#59359D" />
    <path
       id="path46"
       d="M312.477 374.945h-10.961v8.118h10.96v-8.118"
       fill="#5CC6B2" />
    <path
       id="path48"
       d="M339.16 374.945h-26.683v8.118h26.683v-8.118"
       fill="#46BDA6" />
    <path
       id="path50"
       d="M338.89 374.133h-37.554v8.93h.18v-8.118h37.644v-.18a.82.82 0 0 1-.27-.632"
       fill="#59359D" />
    <path
       id="path52"
       d="M369.258 375.125h-28.121v7.938h28.12v-7.938"
       fill="#7667B2" />
    <path
       id="path54"
       d="M371.234 374.855c-.18.18-.449.27-.629.27h-1.347v7.938h1.976v-8.208m-32.074-.09v8.298h1.977v-7.938h-1.258c-.27 0-.54-.09-.719-.36"
       fill="#59359D" />
    <path
       id="path56"
       d="M371.594 374.133H338.98c0 .27.09.451.27.632.18.18.45.36.719.36h30.636c.27 0 .45-.09.63-.27.18-.18.359-.451.359-.722"
       fill="#59359D" />
    <path
       id="path58"
       d="M105.926 330.569l26.953 59.168c5.57 20.294-6.379 41.31-26.684 46.902a37.608 37.608 0 0 1-10.062 1.353H65.676c-21.024 0-38.004-17.047-38.004-38.153 0-3.427.45-6.764 1.348-10.102l26.953-59.168h49.953M55.164 311.537l-10.691-14.521c-2.157-3.157-1.438-7.577 1.797-9.832 1.976-1.353 4.492-1.623 6.648-.721l7.727 3.247c2.785 1.172 6.109 0 7.457-2.706l6.648-12.537c1.797-3.428 6.02-4.69 9.434-2.887a6.375 6.375 0 0 1 2.875 2.887l6.648 12.537c1.438 2.706 4.672 3.878 7.547 2.706l7.726-3.247c3.594-1.443 7.637.18 9.165 3.788.898 2.165.628 4.69-.72 6.674l-10.69 14.522M53.996 311.537h54.266c4.672 0 8.445 3.788 8.445 8.479v2.074c0 4.69-3.773 8.479-8.445 8.479H53.996c-4.672 0-8.445-3.789-8.445-8.479v-2.074c0-4.69 3.773-8.479 8.445-8.479z"
       fill="#69E2CB" />
    <path
       id="path60"
       d="M94.336 437.902H81.129c21.023 0 38.004-17.047 38.004-38.153 0-3.427-.45-6.765-1.348-10.102l-26.953-59.169h13.207l26.953 59.17c5.57 20.293-6.379 41.309-26.594 46.901a38.1 38.1 0 0 1-10.062 1.353M115.54 297.016l-10.692 14.521H91.64l10.78-14.521c1.798-2.526 1.708-6.043-.359-8.389l5.032-2.074c3.594-1.443 7.726.27 9.164 3.878.898 2.165.629 4.6-.719 6.585z"
       fill="#50D8BE" />
    <path
       id="path62"
       d="M114.91 321.008c0 5.231-4.222 9.47-9.433 9.47H92.359c5.211 0 9.434-4.239 9.434-9.56 0-5.232-4.223-9.47-9.434-9.47h13.118c5.12.09 9.433 4.328 9.433 9.56z"
       fill="#50D8BE" />
    <path
       id="path64"
       d="M108.531 337.784H53.547l2.875-6.223h50.312z"
       fill="#1EC1A6" />
    <path
       id="path66"
       d="M53.996 311.537h54.266c4.672 0 8.445 3.788 8.445 8.479v2.074c0 4.69-3.773 8.479-8.445 8.479H53.996c-4.672 0-8.445-3.789-8.445-8.479v-2.074c0-4.69 3.773-8.479 8.445-8.479z"
       fill="#FD8" />
    <path
       id="path68"
       d="M105.117 330.93l26.953 59.168.809-.36-.899.27a37.04 37.04 0 0 1 1.348 9.831c0 16.416-10.871 31.388-27.312 35.898a35.657 35.657 0 0 1-9.793 1.353H65.766c-20.485 0-37.106-16.686-37.106-37.25h-.27.27-.27.27c0-3.338.45-6.675 1.348-9.832l-.899-.27.809.36 26.953-59.169c.18-.45 0-.992-.45-1.172-.448-.18-.987 0-1.167.45L28.3 389.378l-.09.18c-.898 3.337-1.348 6.855-1.348 10.372 0 21.557 17.43 39.055 38.903 39.055h30.367c3.504 0 6.918-.45 10.242-1.353 17.34-4.78 28.66-20.474 28.66-37.702 0-3.427-.45-6.854-1.347-10.282l-.09-.18-26.953-59.169c-.18-.45-.72-.631-1.168-.45-.45.09-.63.63-.36 1.081M55.883 310.996L45.19 296.475l-.718.54.718-.54c-.718-1.083-1.078-2.255-1.078-3.518 0-1.984.899-3.879 2.606-5.051 1.078-.722 2.246-1.082 3.504-1.082.808 0 1.617.18 2.336.45l7.726 3.248c.809.36 1.707.54 2.606.54 2.425 0 4.851-1.352 6.02-3.607l6.648-12.537c1.078-2.075 3.234-3.247 5.39-3.247.989 0 1.977.27 2.875.721a5.688 5.688 0 0 1 2.516 2.526l6.648 12.537c1.258 2.255 3.594 3.608 6.02 3.608.898 0 1.797-.18 2.605-.541l7.727-3.247c.808-.361 1.527-.451 2.336-.451 2.426 0 4.672 1.443 5.66 3.788.27.721.45 1.533.45 2.345 0 1.263-.36 2.435-1.079 3.518l.719.54-.719-.54-10.691 14.521c-.27.36-.18.992.18 1.263.359.27.988.18 1.257-.18l10.692-14.522c.898-1.353 1.437-2.886 1.437-4.51 0-.992-.18-2.074-.629-3.067-1.258-3.066-4.223-4.87-7.277-4.87-.989 0-2.067.18-3.055.631l-7.726 3.247c-.63.27-1.258.361-1.887.361-1.797 0-3.594-.992-4.492-2.706l-6.649-12.537a8.024 8.024 0 0 0-3.234-3.247c-1.168-.632-2.426-.902-3.684-.902a7.983 7.983 0 0 0-7.008 4.24l-6.648 12.536c-.898 1.714-2.606 2.706-4.492 2.706-.63 0-1.258-.09-1.887-.36l-7.727-3.248c-.988-.36-1.976-.631-3.054-.631-1.617 0-3.145.451-4.492 1.443-2.246 1.533-3.414 4.059-3.414 6.494 0 1.534.449 3.157 1.437 4.51l10.691 14.522c.27.36.899.45 1.258.18.45-.36.54-.992.27-1.353z"
       fill="#663DB4" />
    <path
       id="path70"
       d="M53.996 311.537v.902h54.266c2.066 0 3.953.812 5.3 2.255 1.348 1.353 2.247 3.247 2.247 5.322v2.074c0 2.075-.809 3.969-2.246 5.322-1.348 1.353-3.235 2.255-5.301 2.255H53.996c-2.066 0-3.953-.812-5.3-2.255-1.348-1.353-2.247-3.247-2.247-5.322v-2.074c0-2.075.809-3.969 2.246-5.322 1.348-1.353 3.235-2.255 5.301-2.255v-1.804c-5.121 0-9.344 4.24-9.344 9.38v2.075c0 5.141 4.223 9.38 9.344 9.38h54.266c5.12 0 9.343-4.239 9.343-9.38v-2.074c0-5.141-4.222-9.38-9.343-9.38H53.996v.901z"
       fill="#663DB4" />
    <path
       id="path72"
       d="M47.438 327.051c6.199-3.157 10.511-9.02 13.656-15.063.629-1.172-1.168-2.164-1.707-.992-3.055 5.773-7.008 11.365-12.938 14.341-1.258.541-.18 2.345.989 1.714zM56.691 331.29c9.164-2.074 15.274-10.823 18.868-18.941.539-1.173-1.168-2.255-1.707-.992-3.415 7.667-8.985 16.055-17.7 18.04-1.257.18-.718 2.164.54 1.893zM75.02 331.29c9.164-2.074 15.273-10.823 18.867-18.941.539-1.173-1.168-2.255-1.707-.992-3.414 7.667-8.985 16.055-17.7 18.04-1.347.18-.808 2.164.54 1.893zM93.258 331.29c8.984-1.984 15.004-10.553 18.687-18.4.54-1.172-1.168-2.165-1.707-.992-3.504 7.486-8.894 15.604-17.43 17.498-1.347.18-.808 2.165.45 1.894z"
       fill="#663DB4" />
    <path
       id="path74"
       d="M312.656 171.643h1.707a3.323 3.323 0 0 1 3.325 3.337v33.734c0 1.984-1.618 3.608-3.594 3.608h-1.438v-40.679z"
       fill="#7F77C6" />
    <path
       id="path76"
       d="M313.734 411.655c0 14.25-11.5 25.706-25.605 25.796H153.184c-14.106 0-25.606-11.545-25.606-25.796l-.18-337.333c0-14.251 11.5-25.706 25.606-25.706h134.855c14.106 0 25.606 11.545 25.606 25.706l.27 337.333"
       fill="#9A93DB" />
    <path
       id="path78"
       d="M297.563 411.655c0 14.25-11.5 25.706-25.606 25.796H169.355c-14.105 0-25.605-11.545-25.605-25.796l-.18-337.333c0-14.251 11.5-25.706 25.606-25.706h102.512c14.105 0 25.605 11.545 25.605 25.706l.27 337.333"
       fill="#9387D6" />
    <path
       id="path80"
       d="M297.563 411.655c0 14.25-11.5 25.706-25.606 25.796H169.355c-14.105 0-25.605-11.545-25.605-25.796l-.18-337.333c0-14.251 11.5-25.706 25.606-25.706h102.512c14.105 0 25.605 11.545 25.605 25.706l.27 337.333"
       fill="#9387D6" />
    <path
       id="path82"
       d="M153.184 437.451v-.902c-13.657 0-24.707-11.184-24.707-24.894l-.18-337.333c0-13.71 11.05-24.804 24.707-24.804h134.855c13.657 0 24.707 11.094 24.707 24.804l.18 337.333c0 13.71-11.05 24.804-24.707 24.894H153.184v1.804h134.855c14.645 0 26.504-11.906 26.504-26.698l-.18-337.333c0-14.702-11.86-26.608-26.504-26.608H153.004c-14.645 0-26.504 11.906-26.504 26.608l.18 337.333c0 14.702 11.86 26.608 26.504 26.698v-.902"
       fill="#663DB4" />
    <path
       id="path84"
       d="M169.355 63.498c0 2.075-1.707 3.788-3.773 3.788s-3.773-1.713-3.773-3.788c0-2.074 1.707-3.788 3.773-3.788s3.773 1.714 3.773 3.788zM239.793 64.04c0 1.172-.898 2.074-2.066 2.164h-34.32c-1.169 0-2.067-.992-2.067-2.165 0-1.172.898-2.074 2.066-2.074h34.32c1.079 0 2.067.902 2.067 2.074z"
       fill="#A197DD" />
    <path
       id="path86"
       d="M133.598 86.227h173.847V395.78H133.598V86.227"
       fill="#FFF" />
    <path
       id="path88"
       d="M144.379 86.227h163.066V395.78H144.38V86.227"
       fill="#F0EDF7" />
    <path
       id="path90"
       d="M190.828 63.949c.18.27.18.631 0 .992-.09.18-.27.451-.45.632-.358.36-.898.63-1.526.63h-8.536c-.808 0-1.437-.45-1.796-1.081-.18-.361-.18-.902 0-1.263.09-.18.18-.27.359-.451.36-.36.898-.632 1.437-.632h8.536c.898-.09 1.617.361 1.976 1.173z"
       fill="#A197DD" />
    <path
       id="path92"
       d="M242.129 416.075c0 .721-.09 1.352-.18 1.984-.988 5.412-5.66 9.38-11.23 9.38h-20.485c-5.48 0-10.242-3.968-11.23-9.38-.09-.632-.18-1.353-.18-1.984 0-6.314 5.031-11.365 11.32-11.365h20.575c6.289-.09 11.41 5.05 11.41 11.365z"
       fill="#A9A3E2" />
    <path
       id="path94"
       d="M242.129 416.075h-.899c0 .63-.09 1.262-.18 1.894-.898 4.96-5.21 8.658-10.331 8.658v.902-.902h-20.485c-5.03 0-9.433-3.607-10.332-8.658-.09-.632-.18-1.263-.18-1.894 0-5.773 4.673-10.463 10.423-10.463h20.574c5.75 0 10.422 4.69 10.422 10.463H243.027c0-6.765-5.48-12.267-12.218-12.267h-20.575c-6.738 0-12.218 5.502-12.218 12.267 0 .721.09 1.443.18 2.164 1.077 5.863 6.109 10.102 12.038 10.102h20.575v-.902.902-.902.902c5.93 0 11.05-4.239 12.039-10.102.09-.721.18-1.443.18-2.164h-.9z"
       fill="#663DB4" />
    <path
       id="path96"
       d="M307.445 86.227V395.78h-9.074l-.09-309.553h9.164"
       fill="#DBD6EA" />
    <path
       id="path98"
       d="M452.184 371.878l-.09-.18c1.707.18 3.594-.18 2.605-2.435-.27-.451-.988-.09-.719.45.72 1.624-1.257 1.263-2.605.903-1.527-1.985-3.773-3.879-6.379-3.157-.27.09-.45.36-.36.631l.09.09c.72.812 1.618 1.534 2.606 1.895.988.45 2.066.901 3.145 1.262l1.078 1.624c1.078 1.894 2.785 5.412 1.527 7.576-1.078 1.894-3.594 1.985-5.66 1.534-.629-1.083-1.438-1.985-2.336-2.796-1.707-1.534-4.133-2.797-6.11-1.083a.696.696 0 0 0-.09.902c1.618 2.435 4.852 3.788 7.637 4.42.45.811.72 1.804.809 2.706.09 2.164-1.437 3.337-3.414 3.517a5.41 5.41 0 0 1-1.707 0c-.719-1.894-2.426-3.157-4.402-3.247-.54 0-.809.541-.72.992.36 2.075 1.977 3.338 3.954 3.789.27 1.172.27 2.345.18 3.517-.45 3.157-2.067 5.953-5.391 6.585-.809.18-.539 1.262.18 1.352 5.031.271 7.636-6.313 6.738-11.274 3.055.09 6.2-1.624 6.11-4.87 0-.993-.27-1.895-.63-2.797 2.426.18 5.211-.27 6.2-2.706 1.078-2.976-.63-6.764-2.246-9.2zm-6.11-3.517c1.258.09 2.336.721 3.145 1.623-1.168-.36-2.246-.902-3.145-1.623zm-5.57 10.553c1.348-.451 2.965.811 3.773 1.713.27.271.54.542.809.902-1.707-.45-3.234-1.353-4.582-2.615zm-1.887 9.02c.54 0 1.887.811 1.887 1.533-.54-.18-1.797-.992-1.887-1.534z"
       fill="#8776CC" />
    <path
       id="path100"
       d="M427.477 307.93c.988 2.345 3.593 2.705 5.93 2.525a7.263 7.263 0 0 0-.54 2.706c-.09 3.066 2.875 4.69 5.84 4.6-.898 4.6 1.707 10.914 6.469 10.643.719 0 .898-1.082.18-1.263-3.145-.631-4.672-3.247-5.122-6.223-.18-1.083-.09-2.255.09-3.428a4.494 4.494 0 0 0 3.774-3.608c.09-.45-.18-.992-.72-.902-1.886.09-3.503 1.353-4.132 3.067-.539.09-1.078.09-1.617 0-1.887-.18-3.414-1.263-3.234-3.337.09-.902.27-1.714.718-2.526 2.696-.54 5.66-1.894 7.278-4.239a.696.696 0 0 0-.09-.902c-1.887-1.623-4.223-.45-5.75.992a10.212 10.212 0 0 0-2.156 2.706c-1.887.361-4.313.361-5.391-1.443-1.258-2.074.45-5.412 1.437-7.216a8.94 8.94 0 0 1 .989-1.533c.988-.27 1.976-.722 2.965-1.173.988-.36 1.796-.992 2.515-1.803.09-.271.09-.542-.18-.632l-.09-.09c-2.425-.722-4.581 1.082-6.019 2.976-1.348.361-3.144.632-2.516-.811.18-.451-.449-.902-.718-.451-.989 2.074.808 2.525 2.425 2.255l-.09.18c-1.796 2.525-3.413 6.133-2.245 8.93zm4.851-10.554c.719-.901 1.797-1.443 2.965-1.533-.898.632-1.887 1.173-2.965 1.533zm3.953 10.914c.27-.27.54-.541.719-.812.809-.811 2.336-2.074 3.594-1.623a10.307 10.307 0 0 1-4.313 2.435zm4.403 7.577c0-.722 1.257-1.443 1.796-1.443-.18.54-1.347 1.262-1.796 1.443z"
       fill="#FFD057" />
    <path
       id="path102"
       d="M220.566 172.275c37.825 0 68.461 30.756 68.461 68.729 0 37.972-30.636 68.73-68.46 68.73-37.825 0-68.462-30.758-68.462-68.73 0-37.973 30.637-68.73 68.461-68.73"
       fill="#FFF" />
    <path
       id="path104"
       d="M279.414 298.82H163.695a1.806 1.806 0 0 1-1.797-1.804v-64.4c0-.541.27-1.083.63-1.353l57.859-47.624a1.757 1.757 0 0 1 2.246 0l57.86 47.624c.448.36.628.812.628 1.353v64.4c.09.992-.719 1.804-1.707 1.804"
       fill="#FD8" />
    <path
       id="path106"
       d="M279.414 298.82v-.451H163.695c-.718 0-1.347-.632-1.347-1.353v-64.4c0-.361.18-.812.449-1.083l57.86-47.623c.269-.18.538-.27.898-.27.27 0 .629.09.898.27l57.86 47.623c.269.27.449.632.449 1.083v64.4c0 .721-.63 1.353-1.348 1.353v.902a2.229 2.229 0 0 0 2.246-2.255v-64.4c0-.632-.27-1.353-.808-1.714l-57.86-47.624c-.449-.36-.898-.54-1.437-.54-.54 0-.989.18-1.438.54l-57.86 47.624a2.225 2.225 0 0 0-.808 1.714v64.4c0 1.262.988 2.255 2.246 2.255h115.72v-.451"
       fill="#663DB4" />
    <path
       id="path108"
       d="M173.938 200.325h95.234v78.02h-95.235v-78.02"
       fill="#FFF" />
    <path
       id="path110"
       d="M183.73 200.325h85.442v78.02H183.73v-78.02"
       fill="#F0EDF7" />
    <path
       id="path112"
       d="M173.938 200.325v.451h94.695v77.118h-94.246v-77.569h-.45v.451-.45h-.449v78.02c0 .09.09.27.09.36 0 .09.18.09.36.09h95.144c.09 0 .27-.09.36-.09.09 0 .09-.18.09-.36v-78.02c0-.09-.09-.271-.09-.361 0-.09-.18-.09-.36-.09h-95.144c-.09 0-.27.09-.36.09-.09 0-.09.18-.09.36h.45"
       fill="#663DB4" />
    <path
       id="path114"
       d="M269.172 225.49h-57.59v-25.165h-5.57v25.165h-32.075v5.592h32.075v58.447h5.57v-58.447h57.59v-5.592"
       fill="#FF8080" />
    <path
       id="path116"
       d="M269.172 225.49v-.45h-57.14v-24.715c0-.09-.09-.27-.09-.36-.09-.09-.18-.09-.36-.09h-5.57c-.09 0-.27.09-.36.09-.09 0-.09.18-.09.36v24.714h-31.625c-.09 0-.269.09-.359.09-.09 0-.09.18-.09.361v5.592c0 .09.09.27.09.361 0 .09.18.09.36.09h31.625v57.996c0 .09.09.271.09.361 0 .09.179.09.359.09h5.57c.09 0 .27-.09.36-.09.09-.09.09-.18.09-.36v-57.997h57.14c.09 0 .27-.09.36-.09.09 0 .09-.18.09-.36v-5.593c0-.09-.09-.27-.09-.36-.09-.09-.18-.09-.36-.09v.45h-.45v5.141h-57.14c-.09 0-.27.09-.36.09-.09.09-.09.181-.09.361v57.996h-4.671v-57.996c0-.09-.09-.27-.09-.36-.09-.09-.18-.09-.36-.09h-31.624v-4.69h31.625c.09 0 .27-.091.36-.091.089-.09.089-.18.089-.36v-24.715h4.672v24.714c0 .09.09.27.09.361.09.09.18.09.359.09h57.59v-.45h-.45.45"
       fill="#663DB4" />
    <path
       id="path118"
       d="M195.59 215.93l-5.93 3.517a7.315 7.315 0 0 0-.45 2.435c.81-2.164 2.966-3.607 5.302-3.607.27 0 .629 0 .988.09h.09l9.972 4.42V220.8l-9.972-4.87m28.93-.09c-.27 0-.63 0-.899.09l-11.59 5.682v1.263l10.153-4.51 4.043-2.255a5.212 5.212 0 0 0-1.707-.27"
       fill="#DDDAE4" />
    <path
       id="path120"
       d="M206.46 221.251v1.984l2.427 1.083 2.246-.993v-1.262l-1.528.721-3.144-1.533"
       fill="#EB7676" />
    <path
       id="path122"
       d="M212.031 221.612l-.898.45v1.263l.898-.36v-1.353m-6.469-.812v1.984l.899.361v-1.984l-.899-.361"
       fill="#5E38A6" />
    <path
       id="path124"
       d="M222.363 218.816l-13.476 5.953-13.477-5.953c-2.875-.451-5.57 1.443-6.02 4.33-.09.27-.09.54-.09.901v8.659c0 2.886 2.337 5.231 5.212 5.231.27 0 .629 0 .898-.09l13.477-5.953 13.476 5.953c2.875.451 5.57-1.443 6.02-4.33.09-.27.09-.54.09-.901v-8.66c0-2.885-2.336-5.23-5.211-5.32-.36.18-.63.18-.899.18"
       fill="#FF8080" />
    <path
       id="path126"
       d="M222.363 218.816l-.18-.451-13.296 5.862-13.297-5.862h-.09c-.36-.09-.629-.09-.988-.09-2.696 0-5.121 1.984-5.57 4.78-.09.27-.09.631-.09.902v8.659h.449-.45a5.648 5.648 0 0 0 5.66 5.682c.36 0 .63 0 .989-.09h.09l13.297-5.863 13.297 5.863h.09c.359.09.628.09.988.09 2.695 0 5.12-1.984 5.57-4.78.09-.27.09-.632.09-.902h-.09.09-.09.09v-8.66a5.648 5.648 0 0 0-5.66-5.681c-.36 0-.63 0-.989.09h-.09l.18.45.09.452c.27 0 .54-.09.809-.09 2.605 0 4.761 2.164 4.761 4.78v8.659h.45-.45c0 .27 0 .54-.09.811-.359 2.346-2.425 3.97-4.671 3.97-.27 0-.54 0-.809-.091l-.09.45.18-.45-13.477-5.953a.272.272 0 0 0-.359 0l-13.477 5.953.18.45-.09-.45c-.27 0-.539.09-.808.09-2.606 0-4.762-2.165-4.762-4.78h-.45.45-.45.45v-8.66c0-.27 0-.54.09-.81.36-2.346 2.426-3.97 4.672-3.97.27 0 .539 0 .808.09l.09-.45-.18.45 13.477 5.954c.09.09.27.09.36 0l13.476-5.953-.18-.451.09.45-.09-.45"
       fill="#663DB4" />
    <path
       id="path128"
       d="M281.21 298.459v-65.934c0-.18-.179-.36-.358-.36-.09 0-.18 0-.27.09l-78.793 66.565h79.063c.18 0 .359-.18.359-.361"
       fill="#9387D6" />
    <path
       id="path130"
       d="M281.21 298.459h.45v-65.934h-.45.45a.807.807 0 0 0-.808-.811v.45-.45c-.18 0-.36.09-.54.18L201.52 298.46c-.18.09-.18.36-.09.541.09.18.27.27.449.27h79.062c.45 0 .809-.36.809-.811h-.54l.45.18v-.18h-.45l.45.18v-.18h-.45l-.448-.18v.09l.449.09h-.45.45-.45.09v-.09l-.09.09h.09v-.09.45-.45h-77.804l77.894-65.753-.09-.09v.09h.09l-.09-.09v.09-.27.27-.27.27-.09h-.09l.09.09v-.09h-.09.09-.09.09-.09v65.933h.45l-.45-.18.45.18"
       fill="#663DB4" />
    <path
       id="path132"
       d="M242.398 265.176l-20.125 16.957L241.5 298.37h39.262v-4.871l-38.364-28.322"
       fill="#877CC5" />
    <path
       id="path134"
       d="M280.762 293.498v4.87H241.5l.09.09c.09.091.18.181.18.362h39.082c.18 0 .359-.18.359-.361v-4.6l-.45-.361m-38.991-28.773l-19.946 17.048.45.36 20.124-16.957-.628-.45"
       fill="#5E38A6" />
    <path
       id="path136"
       d="M241.32 298.82h-79.062c-.18 0-.36-.18-.36-.361v-65.934c0-.18.18-.36.36-.36.09 0 .18 0 .27.09l8.445 7.125 70.347 59.44"
       fill="#9C95DB" />
    <path
       id="path138"
       d="M241.32 298.82h-71.066c-.18 0-.36-.18-.36-.361V239.29l71.426 59.53"
       fill="#9387D6" />
    <path
       id="path140"
       d="M161.898 298.459h.45v-65.934h-.27.27-.27.27-.09v.09l.09-.09h-.09v.09-.27.27-.27.27-.09l-.09.09h.09v-.09l-.09.09 77.894 65.754h-77.804v.45-.45.09h.09l-.09-.09v.09h.09-.899c0 .45.36.812.809.812h79.062c.18 0 .36-.09.45-.271.09-.18 0-.36-.09-.541l-78.793-66.565c-.18-.09-.36-.18-.54-.18v.45-.45c-.449 0-.808.36-.808.811h.45-.45v65.934h.36"
       fill="#663DB4" />
    <path
       id="path142"
       d="M169.895 288.086l-7.547 5.502v4.78h7.547v-10.282"
       fill="#9089CA" />
    <path
       id="path144"
       d="M200.98 265.357l-31.085 22.73v10.282h70.167l-39.082-33.012"
       fill="#877CC5" />
    <path
       id="path146"
       d="M201.34 265.086l-.36.27 39.083 33.013H162.257v-4.78l-.45.36v4.6h.36-.36c0 .18.18.36.36.36h79.062l-39.89-33.823"
       fill="#5E38A6" />
    <path
       id="path148"
       d="M217.332 258.231l-54.535 39.867c-.18.09-.18.36-.09.541.09.09.18.18.27.18h117.066c.18 0 .36-.18.36-.36 0-.09-.09-.18-.18-.27l-54.536-39.867c-2.425-1.895-5.84-1.895-8.355-.09z"
       fill="#9387D6" />
    <path
       id="path150"
       d="M217.332 258.231l-.27-.36-54.535 39.866c-.18.18-.359.361-.359.632 0 .18.09.36.18.45.18.181.359.361.629.361h117.066c.45 0 .809-.36.809-.811 0-.271-.09-.542-.36-.632l-54.535-39.866c-1.348-.993-2.875-1.444-4.492-1.444s-3.145.451-4.492 1.444l.359.36.27.361c1.168-.902 2.605-1.263 3.953-1.263 1.437 0 2.785.451 3.953 1.263l54.535 39.867.27-.361-.27.36.09-.09h-.09v.09l.09-.09h-.09.09v-.09l-.09.09h.09v-.09H163.066v.09l.09-.09h-.09v.09l.09-.09-.09.09h.09v-.09l-.09.09h.09-.09l.09.09v-.09h-.09l.09.09-.27-.36.27.36 54.535-39.866-.359-.36z"
       fill="#663DB4" />
    <path
       id="path152"
       d="M159.023 237.937l.989-5.231-3.864-3.518 5.211 1.443 3.504-4.329-.988 5.231 3.863 3.518-5.3-1.263-3.415 4.15M202.688 206.098l.988-5.231-3.863-3.518 5.21 1.443 3.504-4.33-.988 5.232 3.863 3.518-5.3-1.263-3.415 4.149M263.422 153.875l4.851 3.698c.36.27.989.27 1.258-.18.27-.362.27-.993-.18-1.264l-4.851-3.698c-.36-.27-.988-.27-1.258.18-.36.362-.27.993.18 1.264M275.91 163.525l4.852 3.699c.36.27.988.27 1.258-.18.27-.362.27-.993-.18-1.264l-4.852-3.698c-.36-.27-.988-.27-1.258.18-.27.362-.18.903.18 1.263M266.656 169.118l3.684-4.87c.27-.362.27-.993-.18-1.264-.36-.27-.988-.27-1.258.18l-3.683 4.871c-.27.361-.27.992.18 1.263.359.27.988.18 1.257-.18M276.27 156.49l3.683-4.87c.27-.361.27-.993-.18-1.263-.359-.27-.988-.27-1.257.18l-3.684 4.87c-.27.362-.27.993.18 1.264.36.27.988.27 1.258-.18M165.492 324.345l4.852 3.698c.36.27.988.27 1.258-.18.27-.361.27-.992-.18-1.263l-4.852-3.698c-.36-.27-.988-.27-1.257.18-.36.361-.27.993.18 1.263M177.98 333.996l4.852 3.698c.36.27.988.27 1.258-.18.27-.361.27-.992-.18-1.263l-4.851-3.698c-.36-.27-.989-.27-1.258.18-.27.361-.18.902.18 1.263M168.727 339.588l3.683-4.87c.27-.361.27-.993-.18-1.263-.449-.27-.988-.27-1.257.18l-3.684 4.87c-.27.362-.27.993.18 1.264.449.27.988.18 1.258-.18M178.34 326.96l3.683-4.87c.27-.36.27-.992-.18-1.263-.359-.27-.988-.27-1.257.18l-3.684 4.871c-.27.361-.27.993.18 1.263.36.27.988.27 1.258-.18"
       fill="#FFF" />
    <path
       id="path154"
       d="M307.535 85.686h-.09l-.808.541h.808v62.777h.09V85.686"
       fill="#A9A3E0" />
    <path
       id="path156"
       d="M144.379 180.031l-10.781 6.224V253l10.78-6.494V180.03"
       fill="#FFF" />
    <path
       id="path158"
       d="M265.938 169.478c-.18 0-.36-.09-.54-.18-.359-.27-.449-.902-.18-1.263l3.684-4.87c.18-.27.45-.361.72-.361.179 0 .358.09.538.18.36.27.45.902.18 1.263l-3.684 4.87c-.18.181-.449.361-.719.361m2.786-11.725c-.18 0-.36-.09-.54-.18l-4.851-3.698c-.36-.271-.45-.902-.18-1.263.18-.27.45-.361.72-.361.179 0 .358.09.538.18l4.852 3.698c.36.271.449.902.18 1.263-.18.27-.45.36-.72.36m6.829-.901c-.18 0-.36-.09-.54-.18-.359-.271-.449-.902-.179-1.263l3.684-4.87c.18-.271.449-.362.718-.362.18 0 .36.09.54.18.359.271.449.903.18 1.264l-3.684 4.87c-.18.27-.45.361-.72.361m22.731-65.753L144.47 180.122v66.474l7.726-4.6v-.902c0-37.972 30.637-68.73 68.461-68.73 12.13 0 23.54 3.158 33.422 8.75l25.156-15.063-3.234-2.526c-.36-.27-.45-.901-.18-1.262.18-.27.45-.361.72-.361.179 0 .358.09.538.18l3.774 2.887 17.52-10.463-.09-63.408"
       fill="#F2F0F8" />
    <path
       id="path160"
       d="M307.445 86.227h-.808l-8.356 4.871v63.498l9.164-5.592V86.227"
       fill="#E0DCED" />
    <path
       id="path162"
       d="M220.566 172.275c-37.824 0-68.46 30.756-68.46 68.729v.902l7.007-4.15.989-5.05-3.954-3.518 5.211 1.443 3.504-4.329-.539 2.886 9.254-7.576v-21.287h.45-.45c0-.09.09-.27.09-.36 0-.09.18-.09.36-.09h25.964l1.348-1.083-1.528-1.353 2.336.632 17.97-14.793c.448-.36.898-.54 1.437-.54s.988.18 1.437.54l11.5 9.471 19.496-11.635c-9.883-5.683-21.293-8.84-33.422-8.84"
       fill="#FFF" />
    <path
       id="path164"
       d="M173.488 222.784l-9.523 7.847-.18.902 2.246 2.075 7.457-4.42v-6.404m28.48-23.45l-.628.54h1.168l-.54-.54m19.587-15.695c-.27 0-.63.09-.899.27l-17.52 14.342 1.798.541 3.504-4.33-.989 5.142.18.18h14.734l11.14-6.674-11.23-9.2c-.09-.18-.359-.27-.718-.27"
       fill="#FFE29A" />
    <path
       id="path166"
       d="M173.488 221.612l-9.254 7.576-.27 1.353 9.524-7.847v-1.082m27.852-22.91l-1.348 1.082h1.438l.629-.54-.72-.542m20.216-15.965c-.54 0-.989.18-1.438.541l-17.969 14.793 1.079.27L220.747 184c.269-.18.538-.27.898-.27.27 0 .628.09.898.27l11.23 9.2.809-.451-11.5-9.47c-.539-.361-.988-.542-1.527-.542"
       fill="#7D5ABF" />
    <path
       id="path168"
       d="M183.73 200.776h-9.343v24.263h6.02l3.323-2.074v-22.189"
       fill="#FFF" />
    <path
       id="path170"
       d="M203.586 200.776H183.82v22.279l5.93-3.518c.809-2.164 2.785-3.608 4.941-3.608.27 0 .63 0 .899.09l9.972-5.952v-7.396l-2.875 3.607.989-5.23-.09-.272m17.43 0h-8.985v5.322l8.985-5.322"
       fill="#F2F0F8" />
    <path
       id="path172"
       d="M202.598 199.875H174.027c-.09 0-.27.09-.359.09-.09 0-.09.18-.09.36h.45-.45v28.773-3.608c0-.09.09-.27.09-.36 0-.09.18-.09.36-.09h.449v-24.264H203.586l-.988-.901m19.855 0h-10.871c.09 0 .27.09.36.09.09.09.09.18.09.36v.451h8.984l1.437-.901"
       fill="#7D5ABF" />
    <path
       id="path174"
       d="M178.879 225.941h-4.402v2.616l4.402-2.616m27.582-23.902v7.396l4.672-2.796v-3.517l-4.672-1.083m4.672-1.263h-2.426l2.426 2.255v-2.255"
       fill="#FF9393" />
    <path
       id="path176"
       d="M180.406 225.04h-6.379c-.09 0-.27.09-.359.09-.09 0-.09.18-.09.36v3.608l.899-.541v-2.616h4.402l1.527-.902m25.696-23.09l-.45.631v7.396l.899-.54v-7.397l-.45-.09m5.481-2.074h-3.863l.988.901h2.426v2.255l.27.271-.27-.09v3.517l.898-.54v-5.773c0-.09-.09-.27-.09-.361-.09-.18-.27-.18-.359-.18"
       fill="#7D5ABF" />
    <path
       id="path178"
       d="M194.691 215.84c-2.156 0-4.132 1.442-4.941 3.607l5.93-3.518c-.45-.09-.72-.09-.989-.09"
       fill="#E2E0E8" />
    <path
       id="path180"
       d="M161.45 234.87l-2.157 2.797 2.156-1.353v-1.443"
       fill="#FFF" />
    <path
       id="path182"
       d="M162.438 233.788h-.09v1.985l2.156-1.263-.36-.361-1.707-.36"
       fill="#ABA5E0" />
    <path
       id="path184"
       d="M164.145 234.149l.359.36.27-.18-.63-.18m-1.796-.36l-.899 1.082v1.443l.899-.541v-1.985"
       fill="#7D5ABF" />
    <path
       id="path186"
       d="M164.863 226.302l-3.504 4.33-5.21-1.444 3.863 3.518-.989 5.05.27-.09 2.156-2.795.899-1.083h.09l1.707.361.628.18 1.348-.721-2.246-2.075.18-.992.27-1.353.538-2.886M208.527 194.463l-3.504 4.33-1.796-.452-1.079-.27-2.335-.722 1.527 1.353.629.631.629.542.988.901.09.09-.988 5.232 2.875-3.518.539-.631.359.09 4.672 1.173h.27l-.27-.27-2.426-2.166-.988-.901-.18-.18.988-5.232M263.96 152.251c-.269 0-.538.09-.718.36-.27.362-.27.993.18 1.264l4.851 3.698c.18.09.36.18.54.18.269 0 .539-.09.718-.36.27-.362.27-.993-.18-1.264l-4.851-3.698c-.18-.09-.36-.18-.54-.18M276.45 161.902c-.27 0-.54.09-.72.36-.27.362-.27.993.18 1.263l3.235 2.526 1.707-.992-3.774-2.886c-.27-.18-.45-.271-.629-.271M269.621 162.804c-.27 0-.539.09-.719.36l-3.683 4.871c-.27.361-.27.992.18 1.263.18.09.359.18.538.18.27 0 .54-.09.72-.36l3.683-4.87c.27-.362.27-.993-.18-1.264-.09-.09-.36-.18-.539-.18M279.234 150.176c-.27 0-.539.09-.718.361l-3.684 4.87c-.27.362-.27.993.18 1.264.18.09.36.18.539.18.27 0 .539-.09.719-.36l3.683-4.871c.27-.361.27-.993-.18-1.263-.18-.09-.359-.18-.539-.18"
       fill="#FFF" />
    <path
       id="path188"
       d="M307.535 169.93h-.09v29.854h.09V169.93"
       fill="#BAB6E7" />
    <path
       id="path190"
       d="M298.281 175.16l-29.648 16.867a68.57 68.57 0 0 1 14.734 21.557l14.914-8.478V175.16"
       fill="#F5F3FA" />
    <path
       id="path192"
       d="M307.445 169.93l-9.164 5.23v29.946l9.164-5.322V169.93"
       fill="#E7E3F1" />
    <path
       id="path194"
       d="M268.633 192.027l-13.746 7.848h14.285c.09 0 .27.09.36.09.09 0 .09.18.09.36v21.106l13.745-7.847a68.57 68.57 0 0 0-14.734-21.557M183.73 240.282l-6.558 3.698 6.558 5.593v-9.29"
       fill="#FFF" />
    <path
       id="path196"
       d="M205.563 233.878l-9.973 4.42h-.09c-.27.09-.629.09-.988.09-1.707 0-3.145-.721-4.223-1.894l-6.559 3.698v9.29l14.645 12.357 7.188-4.059v-23.902m46.359-2.345H230v.361c0 2.886-1.797 5.322-4.223 5.953-.808.36-1.617.631-2.515.631-.36 0-.63 0-.989-.09h-.09l-10.152-4.51v20.385l39.89-22.73m16.802-30.757H253.27L226.227 216.2c2.156.812 3.773 3.067 3.773 5.773v3.156h33.242l5.48-3.066v-21.287"
       fill="#F5F3FA" />
    <path
       id="path198"
       d="M269.172 199.875h-14.285l-1.617.901h15.453v21.197l.898-.542v-21.106c0-.09-.09-.27-.09-.36 0-.09-.27-.09-.36-.09"
       fill="#977BCC" />
    <path
       id="path200"
       d="M208.887 232.435l-2.426 1.083v23.902l4.672-2.616v-21.286l-2.246-1.083m52.828-6.494H230v4.69h23.54l8.175-4.69"
       fill="#FFA9A9" />
    <path
       id="path202"
       d="M206.46 233.518l-.898.36v23.993l.899-.542v-23.811m4.672-.09v21.286l.898-.541v-20.385l-.898-.36m42.316-2.797H230v.902h21.922l1.527-.902m9.793-5.592H230v.902h31.715l1.527-.902"
       fill="#977BCC" />
    <path
       id="path204"
       d="M230 231.533h-1.078v1.173c0 .27 0 .631-.09.902-.27 1.894-1.527 3.337-3.055 4.149 2.336-.632 4.223-2.977 4.223-5.953v-.27m-3.773-15.424l-4.043 2.255h.09c.359-.09.628-.09.988-.09a5.648 5.648 0 0 1 5.66 5.682v.992H230v-3.067c0-2.706-1.617-4.96-3.773-5.772"
       fill="#E8E6ED" />
    <path
       id="path206"
       d="M230 225.941h-1.078v4.69H230v-4.69"
       fill="#F1A2A2" />
    <path
       id="path208"
       d="M230 230.631h-1.078v.902H230v-.902m0-5.592h-1.078v.902H230v-.902"
       fill="#9278C3" />
    <path
       id="path210"
       d="M223.262 219.267c-.27 0-.54 0-.809.09l-7.996 3.518-23.36 13.258c.9.902 2.067 1.443 3.415 1.443.27 0 .539 0 .718-.09l13.387-5.953h.36l13.386 5.953c.27 0 .54.09.719.09 2.336 0 4.313-1.623 4.672-3.968 0-.27.09-.541.09-.812v-8.659c.18-2.706-1.977-4.87-4.582-4.87"
       fill="#FFA9A9" />
    <path
       id="path212"
       d="M223.262 218.365c-.36 0-.63 0-.989.09h-.09l-7.636 4.33 7.996-3.518c.27 0 .539-.09.719-.09 2.605 0 4.761 2.164 4.761 4.78v8.659c0 .27 0 .54-.09.811-.359 2.346-2.425 3.97-4.671 3.97-.27 0-.54 0-.719-.091l-13.387-5.953h-.36l-13.386 5.953c-.27 0-.539.09-.719.09-1.347 0-2.515-.541-3.414-1.443l-.808.45c1.078 1.173 2.515 1.895 4.222 1.895.36 0 .63 0 .989-.09h.09l9.972-4.42.899-.36 2.425-1.083 2.246.992.899.361 10.152 4.51h.09c.36.09.629.09.988.09.899 0 1.797-.18 2.516-.631a5.886 5.886 0 0 0 3.055-4.15c.09-.27.09-.63.09-.901v-8.659c-.18-3.067-2.696-5.592-5.84-5.592"
       fill="#977BCC" />
    <path
       id="path214"
       d="M144.379 262.651l-10.781 6.133v30.126l10.78-6.134v-30.125"
       fill="#FFF" />
    <path
       id="path216"
       d="M153.992 257.24l-9.613 5.501v30.126l17.07-9.742v-7.215c-3.324-5.863-5.84-12.086-7.457-18.67"
       fill="#F5F3FA" />
    <path
       id="path218"
       d="M161.45 252.91l-7.458 4.239c1.617 6.584 4.133 12.898 7.457 18.58v-22.82"
       fill="#FFF" />
    <path
       id="path220"
       d="M169.895 248.22l-7.547 4.239v30.035l7.547-4.24V248.22m6.468-3.698l-.18.09 17.88 14.882-17.7-14.972"
       fill="#BCB7E7" />
    <path
       id="path222"
       d="M176.184 244.612l-6.29 3.608v30.035l27.672-15.784-3.504-2.977-17.878-14.882"
       fill="#B6AEE3" />
    <path
       id="path224"
       d="M162.348 252.459l-.899.541v30.035l.899-.54v-30.036m14.824-8.479l-.809.451 17.7 14.973 3.503 2.976.809-.45-14.645-12.357-6.558-5.593"
       fill="#977BCC" />
    <path
       id="path226"
       d="M133.598 86.227v.902h172.949v307.75h-172.05V86.226h-.9v.902-.902h-.898V395.78c0 .271.09.451.27.632.18.18.36.27.629.27h173.847c.27 0 .45-.09.63-.27a.82.82 0 0 0 .269-.632V86.227a.82.82 0 0 0-.27-.63.814.814 0 0 0-.629-.272H133.598c-.27 0-.45.09-.63.271a.82.82 0 0 0-.269.631h.899z"
       fill="#663DB4" />
    <path
       id="path228"
       d="M137.012 104.627l-4.852-15.152-15.453-3.518 15.902-3.879 2.786-16.505 5.03 15.062 15.274 3.698-15.902 4.33zM131.8 405.16l1.798-9.38-7.008-6.223 9.344 2.525 6.199-7.666-1.707 9.2 6.918 6.313-9.524-2.254z"
       fill="#FFF" />
    <path
       id="path230"
       d="M18.059 437H1.887c-.54 0-.899.36-.899.902 0 .541.36.902.899.902h16.172c.539 0 .898-.36.898-.902 0-.451-.45-.902-.898-.902"
       fill="#663DB4" />
    <path
       id="path232"
       d="M18.059 436.91H1.887a.999.999 0 0 0-.989.992c0 .541.45.992.989.992h16.172c.539 0 .988-.45.988-.992a.999.999 0 0 0-.988-.992v.18c.449 0 .808.361.808.812 0 .45-.36.812-.808.812H1.887a.807.807 0 0 1-.809-.812c0-.451.36-.812.809-.812h16.172v-.18zM424.691 437h-396.3c-.54 0-.899.36-.899.902 0 .541.36.902.899.902h396.39c.54 0 .899-.36.899-.902-.09-.451-.45-.902-.989-.902"
       fill="#663DB4" />
    <path
       id="path234"
       d="M424.691 436.91h-396.3a.999.999 0 0 0-.989.992c0 .541.45.992.989.992h396.39c.54 0 .989-.45.989-.992 0-.541-.45-.992-1.079-.992v.18c.45 0 .809.361.809.812 0 .45-.36.812-.809.812h-396.3a.807.807 0 0 1-.809-.812c0-.451.36-.812.809-.812h396.39v-.18h-.09zM439.156 437h-6.648c-.54 0-.899.36-.899.902 0 .541.36.902.899.902h6.648c.54 0 .899-.36.899-.902a.902.902 0 0 0-.899-.902"
       fill="#663DB4" />
    <path
       id="path236"
       d="M439.156 436.91h-6.648a.999.999 0 0 0-.988.992c0 .541.449.992.988.992h6.648c.54 0 .989-.45.989-.992.09-.541-.36-.992-.989-.992v.18c.45 0 .809.361.809.812 0 .45-.36.812-.809.812h-6.648a.807.807 0 0 1-.809-.812c0-.451.36-.812.809-.812h6.648v-.18z"
       fill="#663DB4" />
    <ellipse
       id="ellipse238"
       ry="6.765"
       rx="36.297"
       fill="#D5C3DD"
       cy="453.145"
       cx="123.715" />
    <path
       id="path240"
       d="M92 427.44c.09-5.322 14.375-9.471 32.074-9.291 17.7.18 31.985 4.6 31.895 9.922-.09 5.321-14.375 9.47-32.074 9.29-17.7-.18-31.985-4.6-31.895-9.922"
       fill="#FD8" />
    <path
       id="path242"
       d="M155.969 428.07l-.18 15.965c-.09 5.322-14.375 9.47-32.074 9.29-17.7-.18-31.985-4.6-31.895-9.921l.18-15.965 63.969.632"
       fill="#FD8" />
    <path
       id="path244"
       d="M92 427.44h.898c0-.452.18-.903.45-1.354.539-.902 1.797-1.804 3.504-2.706 2.605-1.262 6.378-2.435 10.87-3.156 4.493-.812 9.704-1.173 15.364-1.173h.988c8.715.09 16.621 1.263 22.281 2.976 2.786.902 5.122 1.895 6.56 2.977.718.541 1.257 1.082 1.616 1.623.36.542.45.993.45 1.444 0 .45-.18.902-.45 1.353-.539.901-1.797 1.803-3.504 2.705-2.605 1.263-6.379 2.436-10.87 3.157-4.493.812-9.704 1.173-15.364 1.173h-.988c-8.715-.09-16.621-1.263-22.282-2.977-2.785-.902-5.12-1.894-6.558-2.976-.719-.541-1.258-1.082-1.617-1.624-.36-.54-.45-.992-.45-1.443h-1.796c0 .902.27 1.714.808 2.436.899 1.262 2.336 2.435 4.313 3.337 2.875 1.443 6.918 2.706 11.68 3.517 4.761.902 10.242 1.353 16.081 1.444h1.079c8.714 0 16.53-.993 22.19-2.706 2.876-.902 5.212-1.894 6.919-3.067.808-.631 1.527-1.263 2.066-1.984.54-.722.809-1.534.809-2.436 0-.902-.27-1.713-.809-2.435-.898-1.263-2.336-2.435-4.312-3.337-2.875-1.443-6.918-2.706-11.68-3.518-4.762-.902-10.242-1.353-16.082-1.443h-1.078c-8.715 0-16.531.992-22.191 2.706-2.875.902-5.211 1.894-6.918 3.067-.809.631-1.528 1.262-2.067 1.984a3.968 3.968 0 0 0-.808 2.435H92z"
       fill="#663DB4" />
    <path
       id="path246"
       d="M91.102 427.44l-.18 15.964c0 .902.27 1.714.808 2.435.899 1.263 2.336 2.436 4.313 3.337 2.875 1.444 6.918 2.706 11.68 3.518 4.761.902 10.242 1.353 16.082 1.443h1.078c8.715 0 16.441-.992 22.191-2.706 2.875-.902 5.211-1.894 6.918-3.066.809-.632 1.528-1.263 2.067-1.985.539-.721.808-1.533.808-2.435l.18-15.965c0-.54-.36-.902-.899-.902s-.898.361-.898.902l-.18 15.965c0 .451-.18.902-.449 1.353-.539.902-1.797 1.804-3.504 2.706-2.605 1.263-6.379 2.435-10.87 3.157-4.493.812-9.704 1.172-15.274 1.172h-1.078c-8.715-.09-16.711-1.262-22.282-2.976-2.785-.902-5.12-1.894-6.558-2.977-.72-.54-1.258-1.082-1.618-1.623-.359-.541-.449-.992-.449-1.443l.18-15.965c0-.541-.36-.902-.898-.902-.54 0-1.168.451-1.168.992z"
       fill="#663DB4" />
    <path
       id="path248"
       d="M101.703 435.557l-.18 14.702c0 .541.36.902.899.902s.898-.361.898-.902l.18-14.702c0-.541-.36-.902-.898-.902a.902.902 0 0 0-.899.902M116.348 437.27l-.09 14.703c0 .54.36.902.898.902.54 0 .899-.361.899-.902l.09-14.702c0-.542-.36-.902-.899-.902-.45 0-.898.36-.898.902M130.813 438.082l-.09 14.702c0 .541.359.902.898.902.54 0 .899-.36.899-.902l.09-14.702c0-.54-.36-.902-.9-.902-.448 0-.898.451-.898.902M144.379 436.008l-.18 14.702c0 .541.36.902.899.902s.898-.361.898-.902l.18-14.702c0-.541-.36-.902-.899-.902-.449 0-.898.36-.898.902"
       fill="#663DB4" />
    <path
       id="path250"
       d="M139.078 425.635c-2.066.722-4.133 1.443-6.02 2.165l4.852.09c.36-.09.719-.27 1.168-.45v-1.805m-25.426-2.345l-.18 4.33h3.684c.54-.361 1.258-.542 2.246-.632v.632h1.977v-.632c.988.09 1.887.27 2.516.632h3.234c-.988-1.263-2.965-2.075-5.66-2.255l.09-1.985-1.887-.09-.09 1.985h-.09c-1.347 0-2.695.27-3.863.901l.09-3.066-2.067.18"
       fill="#A37DA2" />
    <path
       id="path252"
       d="M123.895 427.71c1.168.541 1.796 1.443 1.707 2.706v.992l2.425.09c3.504-1.443 6.649-2.525 9.883-3.698l-4.851-.09c-1.887.631-3.594 1.353-5.121 1.984 0-.721-.27-1.443-.81-2.074l-3.233.09m-4.493 0l-.18 3.517 1.887.09.18-3.607h-1.887m-5.84-.09l-.09 3.427 2.516.09.09-1.353c0-.902.45-1.623 1.258-2.074l-3.773-.09"
       fill="#A37DA2" />
    <path
       id="path254"
       d="M89.125 440.518l.809-9.02-7.278-5.322 9.164 1.534 5.121-8.028-.718 9.02 7.277 5.322-9.344-1.263z"
       fill="#FFF" />
    <path
       id="path256"
       d="M305.379 449.627c14.465 0 26.144 2.346 26.144 5.142 0 2.796-11.68 5.14-26.144 5.14-14.465 0-26.145-2.344-26.145-5.14s11.68-5.142 26.145-5.142z"
       fill="#D5C3DD" />
    <path
       id="path258"
       d="M297.023 405.16l.989.813c.898-1.083 2.066-1.895 3.504-2.436 1.437-.54 3.054-.812 4.941-.812 3.055 0 6.559.812 10.152 2.346a41.113 41.113 0 0 1 10.871 6.854c4.043 3.428 7.278 7.306 9.434 11.185 2.156 3.878 3.324 7.576 3.324 10.823 0 2.526-.718 4.69-2.066 6.314-.899 1.082-2.067 1.894-3.504 2.435-1.438.542-3.055.812-4.941.812-3.055 0-6.559-.812-10.153-2.345a41.113 41.113 0 0 1-10.87-6.855c-4.044-3.427-7.278-7.306-9.434-11.184-2.157-3.879-3.325-7.577-3.325-10.824 0-2.525.72-4.69 2.067-6.313l-.989-.812-.988-.812c-1.887 2.165-2.695 4.96-2.695 8.027 0 3.789 1.258 7.938 3.683 12.087 2.336 4.149 5.75 8.208 10.063 11.906 3.684 3.156 7.637 5.592 11.59 7.215 3.863 1.624 7.726 2.526 11.23 2.526 2.156 0 4.133-.361 5.93-.992a11.844 11.844 0 0 0 4.582-3.247c1.887-2.165 2.695-4.961 2.695-8.028 0-3.788-1.258-7.937-3.683-12.086-2.336-4.15-5.75-8.208-10.063-11.906-3.683-3.157-7.637-5.592-11.59-7.216-3.863-1.623-7.726-2.525-11.23-2.525-2.156 0-4.133.36-5.93.992a11.844 11.844 0 0 0-4.582 3.247l.988.812"
       fill="#4D3E63" />
    <path
       id="path260"
       d="M285.164 420.133c-.27.992-.36 2.075-.36 3.157 0 3.788 1.259 7.937 3.594 12.086 2.336 4.15 5.75 8.208 9.973 11.906 3.684 3.157 7.637 5.593 11.59 7.216 3.863 1.624 7.726 2.526 11.23 2.526 3.145 0 6.02-.722 8.266-2.255a1.326 1.326 0 0 0 .36-1.804 1.315 1.315 0 0 0-1.797-.361c-1.707 1.172-4.043 1.804-6.829 1.804-3.054 0-6.558-.812-10.152-2.345a41.113 41.113 0 0 1-10.871-6.855c-4.043-3.428-7.277-7.306-9.434-11.184-2.156-3.879-3.324-7.577-3.324-10.824 0-.902.09-1.804.27-2.616.18-.721-.27-1.443-.989-1.533-.628-.09-1.347.36-1.527 1.082z"
       fill="#4D3E63" />
    <path
       id="path262"
       d="M296.035 404.44l-10.601 15.242c-.45.632-.27 1.443.359 1.804.629.451 1.437.27 1.797-.36l10.601-15.244c.45-.631.27-1.443-.359-1.804-.629-.36-1.437-.27-1.797.361M329.727 454.588l.09-.09 10.421-12.718c.45-.54.36-1.353-.18-1.804-.538-.45-1.347-.36-1.796.18l-10.422 12.628.988.812-.898-.902a1.311 1.311 0 0 0 0 1.894c.449.541 1.257.541 1.797 0z"
       fill="#4D3E63" />
    <path
       id="path264"
       d="M297.023 405.16c5.66-6.764 19.766-4.238 31.356 5.683 11.68 9.922 16.531 23.36 10.781 30.126-5.66 6.764-19.765 4.239-31.355-5.683-11.59-9.921-16.442-23.36-10.782-30.125"
       fill="#FD8" />
    <path
       id="path266"
       d="M339.25 440.969l-10.422 12.717c-6.469 4.42-18.957 1.534-29.469-7.396-9.523-8.117-14.554-18.58-12.847-25.886l10.601-15.243 42.137 35.808"
       fill="#FD8" />
    <path
       id="path268"
       d="M297.023 405.16l.72.542c.987-1.173 2.245-1.984 3.683-2.616 1.437-.54 3.234-.902 5.12-.902 6.2 0 14.196 3.157 21.384 9.2 4.132 3.428 7.367 7.396 9.523 11.275 2.156 3.878 3.324 7.757 3.324 11.004 0 2.615-.718 4.87-2.156 6.584-.988 1.173-2.246 1.984-3.683 2.616-1.438.54-3.235.902-5.122.902-6.199 0-14.195-3.157-21.293-9.2-4.132-3.428-7.367-7.396-9.523-11.275-2.156-3.878-3.324-7.757-3.324-11.004 0-2.615.719-4.87 2.156-6.584l-.809-.541-.718-.541c-1.797 2.074-2.606 4.78-2.606 7.756 0 3.699 1.258 7.848 3.594 11.906 2.336 4.06 5.66 8.118 9.973 11.726 7.367 6.223 15.722 9.65 22.46 9.65 2.067 0 4.044-.36 5.75-.991a10.827 10.827 0 0 0 4.403-3.067c1.797-2.075 2.605-4.78 2.605-7.757 0-3.698-1.257-7.847-3.593-11.906-2.336-4.059-5.66-8.117-9.973-11.725-7.367-6.224-15.723-9.651-22.461-9.651-2.066 0-4.043.36-5.75.992a10.827 10.827 0 0 0-4.402 3.067l.718.54"
       fill="#663DB4" />
    <path
       id="path270"
       d="M338.531 440.337l-10.422 12.718.72.541-.54-.721c-1.797 1.262-4.223 1.894-7.008 1.894-6.199 0-14.195-3.157-21.383-9.2-4.132-3.518-7.277-7.396-9.523-11.275-2.156-3.878-3.324-7.757-3.324-11.004 0-.992.09-1.894.27-2.706l-.9-.18.72.541 10.601-15.243c.27-.451.18-.992-.18-1.263-.359-.27-.988-.18-1.257.18l-10.602 15.244c-.09.09-.09.18-.18.27-.27.992-.359 1.985-.359 3.067 0 3.698 1.258 7.757 3.594 11.906 2.336 4.059 5.66 8.118 9.883 11.725 7.367 6.224 15.722 9.651 22.46 9.651 3.055 0 5.84-.721 8.087-2.164l.18-.18 10.421-12.718c.36-.361.27-.993-.09-1.263-.27-.27-.808-.18-1.168.18z"
       fill="#663DB4" />
    <path
       id="path272"
       d="M288.758 432.4l8.984-10.102c.36-.36.27-.902-.09-1.263-.359-.36-.898-.27-1.257.09l-8.985 10.102c-.36.361-.27.902.09 1.263.36.361.898.27 1.258-.09M294.148 440.788l8.985-10.102c.36-.36.27-.902-.09-1.262-.36-.361-.898-.271-1.258.09l-8.984 10.102c-.36.36-.27.902.09 1.262a.96.96 0 0 0 1.257-.09M301.516 447.914l8.984-10.102c.36-.361.27-.902-.09-1.263-.36-.36-.898-.27-1.258.09l-8.984 10.102c-.36.361-.27.902.09 1.263a.96.96 0 0 0 1.258-.09M309.152 452.965l8.985-10.102c.36-.361.27-.902-.09-1.263-.36-.36-.899-.27-1.258.09l-8.984 10.102c-.36.36-.27.902.09 1.263.359.27.988.27 1.257-.09M319.125 455.31l8.984-10.102c.36-.36.27-.902-.09-1.263-.359-.36-.898-.27-1.257.09l-8.985 10.102c-.359.361-.27.902.09 1.263.36.36.988.27 1.258-.09"
       fill="#663DB4" />
    <path
       id="path274"
       d="M315.352 409.58l-5.93 5.412 1.797 1.894.988-.902c.54-.45 1.078-.721 1.707-.721.809 0 1.797.45 2.785 1.262l-2.965 2.706 1.528 1.353 2.785-2.615c1.707 2.074 2.156 4.149.719 5.592l5.48 4.6c2.156.992 4.223 1.984 6.469 3.066l1.348-1.262c-3.954-1.985-7.907-3.879-11.231-5.232 1.707-1.804 1.078-4.78-1.527-7.847l1.527-1.353-1.348-1.443-1.527 1.443c-.988-.992-2.246-1.804-3.594-2.255l2.336-2.164-1.347-1.534M318.855 423.651c-.09 0-.09 0 0 0l-.808.812 1.707 1.804c1.617.721 3.144 1.353 4.582 2.074l-5.48-4.69m-5.122-4.33l-.18.181 1.348 1.533.45-.36-1.618-1.353"
       fill="#A37DA2" />
    <path
       id="path276"
       d="M291.633 432.49l1.976-9.65-7.277-6.585 9.703 2.706 6.38-8.028-1.798 9.561 7.188 6.584-9.883-2.345z"
       fill="#FFF" />
    <path
       id="path278"
       d="M426.848 133.49v38.604c0 .541.359.902.898.902.54 0 .899-.36.899-.902V133.49c0-.541-.36-.902-.899-.902a.902.902 0 0 0-.898.902M442.3 162.624v18.31c0 .54.36.901.9.901.538 0 .898-.36.898-.902v-18.31c0-.54-.36-.901-.899-.901-.449 0-.898.45-.898.902M442.3 148.282v6.855c0 .541.36.902.9.902.538 0 .898-.36.898-.902v-6.855c0-.54-.36-.902-.899-.902-.449 0-.898.361-.898.902"
       fill="#663DB4" />
    <path
       id="path280"
       d="M415.438 210.698l1.257.09c.36-6.764 2.336-12.808 5.032-17.047 1.347-2.165 2.875-3.788 4.492-4.96 1.617-1.083 3.324-1.714 4.941-1.714h.45c1.617.09 3.144.721 4.581 1.804 2.157 1.713 4.043 4.51 5.391 8.117 1.348 3.608 2.156 8.028 2.156 12.718 0 .812 0 1.714-.09 2.525-.359 6.765-2.336 12.808-5.03 17.047-1.348 2.165-2.876 3.789-4.493 4.961-1.617 1.083-3.324 1.714-4.941 1.714h-.45c-1.617-.09-3.144-.722-4.582-1.804-2.156-1.714-4.043-4.51-5.39-8.118-1.348-3.607-2.157-8.027-2.157-12.717 0-.812 0-1.714.09-2.526l-1.257-.09-1.258-.09c-.09.902-.09 1.804-.09 2.706 0 6.674 1.437 12.808 3.953 17.317 1.258 2.255 2.785 4.15 4.582 5.593 1.797 1.352 3.863 2.254 6.02 2.345h.539c2.336 0 4.492-.812 6.468-2.165 2.965-2.075 5.391-5.412 7.278-9.47 1.886-4.15 3.054-9.11 3.324-14.432.09-.902.09-1.804.09-2.706 0-6.674-1.438-12.808-3.953-17.318-1.258-2.254-2.786-4.149-4.582-5.592-1.797-1.353-3.864-2.255-6.02-2.345h-.539c-2.336 0-4.492.812-6.469 2.165-2.965 2.074-5.39 5.412-7.277 9.47-1.887 4.15-3.055 9.11-3.324 14.432l1.257.09z"
       fill="#4D3E63" />
    <path
       id="path282"
       d="M448.05 189.592c2.427 1.443 4.583 4.24 6.11 7.937 1.527 3.789 2.426 8.479 2.426 13.53 0 .812 0 1.623-.09 2.525-.36 6.224-1.976 11.816-4.402 15.965-1.168 2.075-2.516 3.788-3.953 5.051-1.438 1.263-2.965 2.075-4.493 2.435-.718.18-1.168.812-.988 1.534.18.721.809 1.172 1.527.992 2.067-.451 3.954-1.534 5.66-2.977 2.606-2.255 4.762-5.502 6.29-9.38 1.617-3.879 2.605-8.479 2.965-13.44.09-.901.09-1.803.09-2.615 0-5.412-.989-10.463-2.606-14.522-1.707-4.149-4.133-7.396-7.188-9.2-.628-.36-1.437-.18-1.796.451-.36.542-.18 1.353.449 1.714z"
       fill="#4D3E63" />
    <path
       id="path284"
       d="M431.52 187.157l17.07 2.616c.719.09 1.348-.361 1.527-1.083.09-.721-.36-1.353-1.078-1.533l-17.07-2.616c-.719-.09-1.348.361-1.528 1.083-.18.721.36 1.443 1.079 1.533M443.379 237.216l.629 1.172.09-1.263-15.184-1.082a1.184 1.184 0 0 0-1.348 1.173c-.09.721.45 1.353 1.168 1.353l15.184 1.082c.27 0 .45 0 .719-.18.629-.361.898-1.173.539-1.804-.45-.542-1.168-.812-1.797-.451z"
       fill="#4D3E63" />
    <path
       id="path286"
       d="M415.438 210.698c.808-14.25 8.085-25.345 16.261-24.894 8.176.45 14.106 12.357 13.297 26.608-.808 14.25-8.086 25.345-16.262 24.894-8.175-.451-14.105-12.357-13.296-26.608"
       fill="#FD8" />
    <path
       id="path288"
       d="M428.734 237.306l15.184 1.082c7.187-1.533 13.117-11.906 13.926-24.713.629-11.636-3.235-21.738-9.164-25.255l-17.07-2.616-2.876 51.502"
       fill="#FD8" />
    <path
       id="path290"
       d="M415.438 210.698l.898.09c.36-6.855 2.336-12.898 5.031-17.227 1.348-2.165 2.965-3.879 4.582-5.051 1.707-1.173 3.414-1.804 5.211-1.804h.45c1.706.09 3.324.721 4.85 1.894 2.247 1.714 4.224 4.6 5.571 8.298 1.348 3.698 2.156 8.118 2.156 12.898 0 .812 0 1.714-.09 2.526-.359 6.854-2.335 12.898-5.03 17.227-1.348 2.165-2.965 3.878-4.583 5.051-1.707 1.173-3.414 1.804-5.21 1.804h-.45c-1.707-.09-3.324-.722-4.851-1.894-2.246-1.714-4.223-4.6-5.57-8.298-1.348-3.698-2.157-8.118-2.157-12.898 0-.812 0-1.714.09-2.526l-.899-.09-.898-.09c-.09.902-.09 1.804-.09 2.706 0 6.674 1.438 12.627 3.953 17.137 1.258 2.255 2.786 4.059 4.493 5.412 1.707 1.353 3.683 2.164 5.84 2.255h.538c2.157 0 4.313-.722 6.2-2.075 2.875-1.984 5.3-5.231 7.097-9.38 1.797-4.06 3.055-9.02 3.325-14.341.09-.902.09-1.804.09-2.706 0-6.675-1.438-12.628-3.954-17.138-1.258-2.254-2.785-4.058-4.492-5.411-1.707-1.353-3.684-2.165-5.84-2.255h-.539c-2.156 0-4.312.721-6.2 2.074-2.874 1.985-5.3 5.232-7.097 9.38-1.797 4.06-3.054 9.02-3.324 14.342l.899.09z"
       fill="#663DB4" />
    <path
       id="path292"
       d="M428.645 238.208l15.183 1.082h.27c1.976-.45 3.863-1.443 5.48-2.886 2.516-2.165 4.672-5.412 6.2-9.29 1.617-3.879 2.605-8.389 2.874-13.35.09-.901.09-1.803.09-2.615 0-5.412-.988-10.373-2.605-14.431-1.707-4.06-4.043-7.306-7.008-9.02-.09-.09-.18-.09-.36-.09l-17.07-2.616c-.449-.09-.988.27-.988.722-.09.45.27.992.719.992l17.07 2.616.09-.902-.45.811c2.516 1.444 4.762 4.33 6.29 8.208 1.527 3.788 2.515 8.569 2.515 13.71 0 .812 0 1.714-.09 2.526-.359 6.313-1.976 11.905-4.402 16.145-1.168 2.074-2.605 3.878-4.043 5.14-1.527 1.264-3.055 2.165-4.672 2.526l.18.902.09-.902-15.184-1.082c-.539 0-.898.36-.988.812 0 .54.36.992.809.992z"
       fill="#663DB4" />
    <path
       id="path294"
       d="M455.418 195.906l-12.578-.451c-.54 0-.899.36-.899.902 0 .541.36.902.899.902l12.578.45c.539 0 .898-.36.898-.901a.902.902 0 0 0-.898-.902M457.574 204.925l-12.578-.36c-.539 0-.898.36-.898.902 0 .54.359.902.898.902l12.578.36c.54 0 .899-.36.899-.902a.902.902 0 0 0-.899-.902M457.574 214.486l-12.578-.45c-.539 0-.898.36-.898.901s.359.902.898.902l12.578.451c.54 0 .899-.36.899-.902 0-.54-.36-.902-.899-.902M456.137 222.875l-12.578-.451c-.54 0-.899.36-.899.901 0 .542.36.902.899.902l12.578.451c.539 0 .898-.36.898-.902a.902.902 0 0 0-.898-.901M451.285 231.173l-12.578-.451c-.539 0-.898.36-.898.902 0 .54.359.901.898.901l12.578.451c.54 0 .899-.36.899-.901 0-.542-.36-.902-.899-.902"
       fill="#663DB4" />
    <path
       id="path296"
       d="M430.352 208.894c-.63 1.984-2.067 3.247-4.223 3.247H424.69l-.27 2.345c1.798 3.698 3.235 7.036 4.763 10.824h.18l.269-4.42c-.988-2.345-1.977-4.6-2.965-6.494 1.348 0 2.516-.541 3.414-1.353l.27-4.149m-5.032-3.067l-.18 1.895 5.301.09.09-1.894-5.21-.09m.538-5.773l-.27 2.435h1.708c1.797 0 2.875.812 3.234 2.435l.27-4.78-4.942-.09"
       fill="#A37DA2" />
    <path
       id="path298"
       d="M429.633 220.8l-.27 4.42h2.067a91.176 91.176 0 0 0-1.797-4.42m1.168-20.655l-.27 4.78c.09.271.09.632.09.902h-.18l-.09 1.895h.18l-.27 1.082-.269 4.059c1.258-1.083 2.156-2.887 2.516-5.141h2.605l.18-1.895h-2.606c.09-1.352-.269-2.705-.898-3.878l3.953.09.18-1.894H430.8"
       fill="#A37DA2" />
    <path
       id="path300"
       d="M430.98 204.655l-7.726-4.96.27-9.02-4.403 8.207-9.523-.721 7.636 4.87-.18 9.02 4.673-8.208z"
       fill="#FFF" />
    <path
       id="path302"
       d="M346.527 252.459l6.918 3.698-1.257-7.757 5.57-5.502-7.727-1.082-3.504-7.036-3.414 7.036-7.726 1.082 5.57 5.502-1.348 7.757zM370.785 274.827l3.684 1.985-.719-4.15 2.965-2.886-4.043-.63-1.887-3.699-1.797 3.698-4.133.631 2.965 2.887-.718 4.149zM343.113 288.176l3.684 1.895-.719-4.06 2.965-2.976-4.133-.54-1.797-3.79-1.886 3.79-4.043.54 2.964 2.977-.718 4.059z"
       fill="#8776CC" />
  </g>
</svg>
